<?xml version="1.0" encoding="UTF-8" standalone="no"?>
<svg
   xmlns:dc="http://purl.org/dc/elements/1.1/"
   xmlns:cc="http://creativecommons.org/ns#"
   xmlns:rdf="http://www.w3.org/1999/02/22-rdf-syntax-ns#"
   xmlns:svg="http://www.w3.org/2000/svg"
   xmlns="http://www.w3.org/2000/svg"
   xmlns:sodipodi="http://sodipodi.sourceforge.net/DTD/sodipodi-0.dtd"
   xmlns:inkscape="http://www.inkscape.org/namespaces/inkscape"
   inkscape:export-ydpi="96.000008"
   inkscape:export-xdpi="96.000008"
   inkscape:export-filename="N:\Brendan\1_Pictures\Icons\icon3-1.png"
   sodipodi:docname="icon3-1_drawing.svg"
   inkscape:version="1.0.2-2 (e86c870879, 2021-01-15)"
   id="svg8"
   version="1.1"
   viewBox="0 0 270.93333 270.93334"
   height="1024"
   width="1024">
  <defs
     id="defs2" />
  <sodipodi:namedview
     inkscape:document-rotation="0"
     inkscape:window-maximized="1"
     inkscape:window-y="-9"
     inkscape:window-x="-9"
     inkscape:window-height="991"
     inkscape:window-width="1920"
     units="px"
     showgrid="true"
     inkscape:current-layer="layer1"
     inkscape:document-units="px"
     inkscape:cy="575.18551"
     inkscape:cx="6773.8722"
     inkscape:zoom="0.38623047"
     inkscape:pageshadow="2"
     inkscape:pageopacity="0.0"
     borderopacity="1.0"
     bordercolor="#666666"
     pagecolor="#ffffff"
     id="base"
     inkscape:snap-grids="false">
    <inkscape:grid
       visible="true"
       originx="135.46667"
       originy="135.46667"
       spacingy="16.933333"
       empspacing="6"
       units="px"
       id="grid815"
       type="axonomgrid" />
  </sodipodi:namedview>
  <metadata
     id="metadata5">
    <rdf:RDF>
      <cc:Work
         rdf:about="">
        <dc:format>image/svg+xml</dc:format>
        <dc:type
           rdf:resource="http://purl.org/dc/dcmitype/StillImage" />
        <dc:title />
      </cc:Work>
    </rdf:RDF>
  </metadata>
  <g
     transform="translate(0,-26.066658)"
     id="layer1"
     inkscape:groupmode="layer"
     inkscape:label="Layer 1">
    <rect
       style="fill:#898989;fill-opacity:0.988889;stroke:none;stroke-width:8.25041;stroke-linecap:round;stroke-linejoin:round;stroke-opacity:1"
       id="rect843"
       width="2138.8833"
       height="609.59998"
       x="-23.682627"
       y="0.66666448" />
    <g
       id="g961"
       transform="translate(293.29393,287.86665)"
       inkscape:export-xdpi="96.000008"
       inkscape:export-ydpi="96.000008"
       style="stroke-width:1.32291667;stroke-miterlimit:4;stroke-dasharray:none">
      <rect
         ry="0.55542356"
         y="26.06665"
         x="-7.3046876e-06"
         height="270.93335"
         width="270.93335"
         id="rect951"
         style="opacity:1;fill:#ffffff;fill-opacity:0.988889;stroke:none;stroke-width:1.32291667;stroke-linecap:round;stroke-linejoin:round;stroke-miterlimit:4;stroke-dasharray:none;stroke-opacity:1" />
      <g
         id="g959"
         style="stroke:none;stroke-opacity:1;stroke-width:1.32291667;stroke-miterlimit:4;stroke-dasharray:none">
        <path
           sodipodi:nodetypes="ccccc"
           inkscape:connector-curvature="0"
           id="path953"
           d="m 135.46667,212.33332 29.3294,-50.79998 c 14.66469,25.4 0,0 14.66469,25.4 l -29.32939,50.79998 z"
           style="fill:#ffce0b;fill-opacity:0.855556;stroke:none;stroke-width:1.32291667;stroke-linecap:butt;stroke-linejoin:round;stroke-miterlimit:4;stroke-dasharray:none;stroke-opacity:1" />
        <path
           sodipodi:nodetypes="cccccc"
           inkscape:connector-curvature="0"
           id="path955"
           d="M 76.807884,110.73334 62.143183,136.09593 135.46668,263.13335 150.13137,237.73332 120.80198,186.8959 Z"
           style="fill:#ffce0b;fill-opacity:0.854902;stroke:none;stroke-width:1.32291667;stroke-linecap:round;stroke-linejoin:round;stroke-miterlimit:4;stroke-dasharray:none;stroke-opacity:1" />
        <path
           sodipodi:nodetypes="ccccc"
           inkscape:connector-curvature="0"
           id="path957"
           d="m 179.46076,136.13334 -14.6647,-25.4 h 58.65879 l -29.32939,50.8 c -14.6647,-25.4 -1e-5,0 -14.6647,-25.4 z"
           style="fill:#ffce0b;fill-opacity:0.855556;stroke:none;stroke-width:1.32291667;stroke-linecap:butt;stroke-linejoin:round;stroke-miterlimit:4;stroke-dasharray:none;stroke-opacity:1" />
      </g>
    </g>
    <rect
       ry="0.55542356"
       y="26.06665"
       x="-7.3046876e-006"
       height="270.93335"
       width="270.93335"
       id="rect851"
       style="opacity:1;fill:#ffffff;fill-opacity:0.98888885;stroke:none;stroke-width:1.16756558;stroke-linecap:round;stroke-linejoin:round;stroke-miterlimit:4;stroke-dasharray:none;stroke-opacity:1"
       inkscape:export-xdpi="96.000008"
       inkscape:export-ydpi="96.000008" />
    <rect
       ry="0.55542356"
       y="26.06665"
       x="293.29391"
       height="270.93335"
       width="270.93335"
       id="rect819"
       style="fill:#ffffff;fill-opacity:0.988889;stroke:none;stroke-width:1.32292;stroke-linecap:round;stroke-linejoin:round;stroke-miterlimit:4;stroke-dasharray:none;stroke-opacity:1" />
    <g
       id="g886"
       style="stroke:none;stroke-width:1.32292;stroke-miterlimit:4;stroke-dasharray:none;stroke-opacity:1"
       transform="translate(293.29393)">
      <path
         sodipodi:nodetypes="cccccc"
         inkscape:connector-curvature="0"
         id="path835"
         d="m 106.13728,161.53333 29.32939,-50.8 58.65878,101.6 14.6647,-25.4 L 135.46667,59.933333 91.472581,136.13333"
         style="fill:#559fff;fill-opacity:0.854902;stroke:none;stroke-width:1.32292;stroke-linecap:butt;stroke-linejoin:round;stroke-miterlimit:4;stroke-dasharray:none;stroke-opacity:1" />
      <path
         sodipodi:nodetypes="ccc"
         inkscape:connector-curvature="0"
         id="path860"
         d="m 76.807898,161.53333 -29.3294,50.8 h 58.658782"
         style="fill:#559fff;fill-opacity:0.854902;stroke:none;stroke-width:1.32292;stroke-linecap:butt;stroke-linejoin:round;stroke-miterlimit:4;stroke-dasharray:none;stroke-opacity:1" />
    </g>
    <path
       sodipodi:nodetypes="ccccccccccc"
       inkscape:connector-curvature="0"
       id="path817"
       d="m 106.13728,212.33333 -29.329396,-50.8 -29.329395,50.79999 h 58.658781 m 1e-5,-50.79999 29.32939,-50.80001 58.65878,101.6 14.6647,-25.4 -73.32348,-126.999996 -43.99409,76.200006 14.6647,25.4"
       style="fill:none;fill-opacity:0.854902;stroke:#000000;stroke-width:1.32292;stroke-linecap:butt;stroke-linejoin:round;stroke-miterlimit:4;stroke-dasharray:none;stroke-opacity:1" />
    <rect
       ry="0.55542356"
       y="313.93329"
       x="586.58783"
       height="270.93335"
       width="270.93335"
       id="rect845"
       style="fill:#ffffff;fill-opacity:0.98888898;stroke:none;stroke-width:1.32292;stroke-linecap:round;stroke-linejoin:round;stroke-miterlimit:4;stroke-dasharray:none;stroke-opacity:1"
       inkscape:export-xdpi="96.000008"
       inkscape:export-ydpi="96.000008" />
    <rect
       ry="0.55542356"
       y="313.93332"
       x="-8.0122218e-06"
       height="270.93335"
       width="270.93335"
       id="rect872"
       style="fill:#ffffff;fill-opacity:0.988889;stroke:none;stroke-width:1.16757;stroke-linecap:round;stroke-linejoin:round;stroke-miterlimit:4;stroke-dasharray:none;stroke-opacity:1"
       inkscape:export-xdpi="96.000008"
       inkscape:export-ydpi="96.000008" />
    <path
       sodipodi:nodetypes="ccccccccc"
       inkscape:connector-curvature="0"
       id="path839"
       d="m 194.12546,449.39999 -29.3294,-50.8 h 58.65879 l -29.32939,50.8 m -14.6647,25.4 -29.32939,50.8 -14.6647,-25.4 29.32939,-50.8 14.6647,25.4"
       style="fill:none;fill-opacity:0.855556;stroke:#000000;stroke-width:1.32291667;stroke-linecap:round;stroke-linejoin:round;stroke-miterlimit:4;stroke-dasharray:none;stroke-opacity:1" />
    <path
       sodipodi:nodetypes="cccccc"
       inkscape:connector-curvature="0"
       id="path841"
       d="M 76.807883,398.60001 62.143182,423.9626 135.46668,551.00002 150.13137,525.59999 120.80198,474.76257 Z"
       style="fill:none;fill-opacity:0.854902;stroke:#000000;stroke-width:1.32291667;stroke-linecap:round;stroke-linejoin:round;stroke-miterlimit:4;stroke-dasharray:none;stroke-opacity:1" />
    <path
       sodipodi:nodetypes="ccccccccc"
       inkscape:connector-curvature="0"
       id="path896"
       d="m 487.41939,449.39999 -29.3294,-50.8 h 58.65879 l -29.32939,50.8 m -14.6647,25.4 -29.32939,50.8 -14.6647,-25.4 29.32939,-50.8 14.6647,25.4"
       style="fill:none;fill-opacity:0.855556;stroke:#ffffff;stroke-width:1.32292;stroke-linecap:round;stroke-linejoin:round;stroke-miterlimit:4;stroke-dasharray:none;stroke-opacity:1" />
    <path
       sodipodi:nodetypes="cccccc"
       inkscape:connector-curvature="0"
       id="path898"
       d="m 370.10181,398.60001 -14.6647,25.36259 73.3235,127.03742 14.66469,-25.40003 -29.32939,-50.83742 z"
       style="fill:none;fill-opacity:0.854902;stroke:#ffffff;stroke-width:1.32292;stroke-linecap:round;stroke-linejoin:round;stroke-miterlimit:4;stroke-dasharray:none;stroke-opacity:1" />
    <path
       sodipodi:nodetypes="ccccccccccc"
       inkscape:connector-curvature="0"
       id="path894"
       d="m 370.10182,161.53334 -29.3294,50.79999 h 58.65879 l -29.3294,-50.8 m 14.6647,-25.4 14.6647,25.4 29.32939,-50.8 58.65878,101.6 14.6647,-25.4 L 428.7606,59.933332 384.76651,136.13334"
       style="fill:none;fill-opacity:0.854902;stroke:#fdfdfd;stroke-width:1.32292;stroke-linecap:round;stroke-linejoin:round;stroke-miterlimit:4;stroke-dasharray:none;stroke-opacity:1" />
    <rect
       ry="0.55542356"
       y="26.066654"
       x="879.88177"
       height="270.93335"
       width="270.93335"
       id="rect911"
       style="opacity:1;fill:#ffffff;fill-opacity:0.988889;stroke:none;stroke-width:1.16757;stroke-linecap:round;stroke-linejoin:round;stroke-miterlimit:4;stroke-dasharray:none;stroke-opacity:1"
       inkscape:export-xdpi="96.000008"
       inkscape:export-ydpi="96.000008" />
    <g
       id="g966"
       style="stroke-width:2.64583;stroke-miterlimit:4;stroke-dasharray:none"
       transform="translate(293.29393)">
      <path
         sodipodi:nodetypes="ccccccccccc"
         inkscape:connector-curvature="0"
         id="path913"
         d="m 692.72514,212.33334 -29.32939,-50.8 -29.3294,50.79999 h 58.65878 m 10e-6,-50.79999 29.32939,-50.80001 58.65878,101.6 14.6647,-25.4 -73.32348,-127 -43.99409,76.20001 14.6647,25.4"
         style="fill:none;fill-opacity:0.854902;stroke:#000000;stroke-width:2.64583;stroke-linecap:butt;stroke-linejoin:round;stroke-miterlimit:4;stroke-dasharray:none;stroke-opacity:1" />
      <path
         sodipodi:nodetypes="ccccccccc"
         inkscape:connector-curvature="0"
         id="path915"
         d="m 780.71332,161.53333 -29.3294,-50.8 h 58.65879 l -29.32939,50.8 m -14.6647,25.4 -29.32939,50.8 -14.6647,-25.4 29.32939,-50.8 14.6647,25.4"
         style="fill:none;fill-opacity:0.855556;stroke:#000000;stroke-width:2.64583;stroke-linecap:round;stroke-linejoin:round;stroke-miterlimit:4;stroke-dasharray:none;stroke-opacity:1" />
      <path
         sodipodi:nodetypes="cccccc"
         inkscape:connector-curvature="0"
         id="path917"
         d="m 663.39574,110.73335 -14.6647,25.36259 73.3235,127.03742 14.66469,-25.40003 -29.32939,-50.83742 z"
         style="fill:none;fill-opacity:0.854902;stroke:#000000;stroke-width:2.64583;stroke-linecap:round;stroke-linejoin:round;stroke-miterlimit:4;stroke-dasharray:none;stroke-opacity:1" />
    </g>
    <path
       sodipodi:nodetypes="ccccccccc"
       inkscape:connector-curvature="0"
       id="path970"
       d="m 780.71333,449.39999 -29.3294,-50.8 h 58.65879 l -29.32939,50.8 m -14.6647,25.4 -29.32939,50.8 -14.6647,-25.4 29.32939,-50.8 14.6647,25.4"
       style="fill:none;fill-opacity:0.855556;stroke:#559fff;stroke-width:2.64583;stroke-linecap:round;stroke-linejoin:round;stroke-miterlimit:4;stroke-dasharray:none;stroke-opacity:1" />
    <g
       id="g949"
       transform="translate(-102.65288,-93.133332)"
       style="stroke:#ffffff;stroke-opacity:1;stroke-width:2.64583335;stroke-miterlimit:4;stroke-dasharray:none">
      <g
         id="g991"
         transform="translate(175.97636,67.733332)"
         style="stroke:#ffffff;stroke-opacity:1;stroke-width:2.64583335;stroke-miterlimit:4;stroke-dasharray:none">
        <path
           sodipodi:nodetypes="cccccc"
           inkscape:connector-curvature="0"
           id="path933"
           d="m 619.40166,474.79999 29.32939,-50.8 58.65878,101.6 14.6647,-25.4 -73.32348,-127 -43.99409,76.2"
           style="fill:#559fff;fill-opacity:1;stroke:#ffffff;stroke-width:2.64583335;stroke-linecap:butt;stroke-linejoin:round;stroke-miterlimit:4;stroke-dasharray:none;stroke-opacity:1" />
        <path
           sodipodi:nodetypes="ccc"
           inkscape:connector-curvature="0"
           id="path935"
           d="m 590.07228,474.79999 -29.3294,50.8 h 58.65878"
           style="fill:#559fff;fill-opacity:1;stroke:#ffffff;stroke-width:2.64583335;stroke-linecap:butt;stroke-linejoin:round;stroke-miterlimit:4;stroke-dasharray:none;stroke-opacity:1" />
      </g>
    </g>
    <path
       sodipodi:nodetypes="cccccc"
       inkscape:connector-curvature="0"
       id="path972"
       d="m 663.39575,398.60001 -14.6647,25.36259 73.3235,127.03742 14.66469,-25.40003 -29.32939,-50.83742 z"
       style="fill:none;fill-opacity:0.854902;stroke:#559fff;stroke-width:2.64583;stroke-linecap:round;stroke-linejoin:round;stroke-miterlimit:4;stroke-dasharray:none;stroke-opacity:1" />
    <rect
       ry="0.55542356"
       y="313.93329"
       x="879.88177"
       height="270.93335"
       width="270.93335"
       id="rect1013"
       style="fill:#ffffff;fill-opacity:0.988889;stroke:none;stroke-width:1.32292;stroke-linecap:round;stroke-linejoin:round;stroke-miterlimit:4;stroke-dasharray:none;stroke-opacity:1"
       inkscape:export-xdpi="96.000008"
       inkscape:export-ydpi="96.000008" />
    <g
       id="g1021"
       style="stroke:#000000;stroke-width:10.5833;stroke-miterlimit:4;stroke-dasharray:none;stroke-opacity:1"
       transform="translate(293.29392,287.86666)">
      <path
         sodipodi:nodetypes="ccccccccccc"
         inkscape:connector-curvature="0"
         id="path1015"
         d="m 692.72514,212.33334 -29.32939,-50.8 -29.3294,50.79999 h 58.65878 m 10e-6,-50.79999 29.32939,-50.80001 58.65878,101.6 14.6647,-25.4 -73.32348,-127 -43.99409,76.20001 14.6647,25.4"
         style="fill:none;fill-opacity:0.854902;stroke:#000000;stroke-width:10.5833;stroke-linecap:butt;stroke-linejoin:round;stroke-miterlimit:4;stroke-dasharray:none;stroke-opacity:1" />
      <path
         sodipodi:nodetypes="ccccccccc"
         inkscape:connector-curvature="0"
         id="path1017"
         d="m 780.71332,161.53333 -29.3294,-50.8 h 58.65879 l -29.32939,50.8 m -14.6647,25.4 -29.32939,50.8 -14.6647,-25.4 29.32939,-50.8 14.6647,25.4"
         style="fill:none;fill-opacity:0.855556;stroke:#000000;stroke-width:10.5833;stroke-linecap:round;stroke-linejoin:round;stroke-miterlimit:4;stroke-dasharray:none;stroke-opacity:1" />
      <path
         sodipodi:nodetypes="cccccc"
         inkscape:connector-curvature="0"
         id="path1019"
         d="m 663.39574,110.73335 -14.6647,25.36259 73.3235,127.03742 14.66469,-25.40003 -29.32939,-50.83742 z"
         style="fill:none;fill-opacity:0.854902;stroke:#000000;stroke-width:10.5833;stroke-linecap:round;stroke-linejoin:round;stroke-miterlimit:4;stroke-dasharray:none;stroke-opacity:1" />
    </g>
    <g
       id="g1029"
       style="stroke:none;stroke-width:1.32292;stroke-miterlimit:4;stroke-dasharray:none;stroke-opacity:1;fill:#ffffff;fill-opacity:0.98888898"
       transform="translate(879.88178,287.86665)">
      <path
         sodipodi:nodetypes="ccccc"
         inkscape:connector-curvature="0"
         id="path1023"
         d="m 135.46667,212.33332 29.3294,-50.79998 c 14.66469,25.4 0,0 14.66469,25.4 l -29.32939,50.79998 z"
         style="fill:#ffffff;fill-opacity:0.98888898;stroke:none;stroke-width:1.32292;stroke-linecap:butt;stroke-linejoin:round;stroke-miterlimit:4;stroke-dasharray:none;stroke-opacity:1" />
      <path
         sodipodi:nodetypes="cccccc"
         inkscape:connector-curvature="0"
         id="path1025"
         d="M 76.807884,110.73334 62.143183,136.09593 135.46668,263.13335 150.13137,237.73332 120.80198,186.8959 Z"
         style="fill:#ffffff;fill-opacity:0.98888898;stroke:none;stroke-width:1.32292;stroke-linecap:round;stroke-linejoin:round;stroke-miterlimit:4;stroke-dasharray:none;stroke-opacity:1" />
      <path
         sodipodi:nodetypes="ccccc"
         inkscape:connector-curvature="0"
         id="path1027"
         d="m 179.46076,136.13334 -14.6647,-25.4 h 58.65879 l -29.32939,50.8 c -14.6647,-25.4 -1e-5,0 -14.6647,-25.4 z"
         style="fill:#ffffff;fill-opacity:0.98888898;stroke:none;stroke-width:1.32292;stroke-linecap:butt;stroke-linejoin:round;stroke-miterlimit:4;stroke-dasharray:none;stroke-opacity:1" />
    </g>
    <g
       id="g1037"
       transform="translate(190.64104,-93.133328)"
       style="fill:#ffffff;fill-opacity:0.98888898">
      <g
         id="g1035"
         transform="translate(175.97636,67.733332)"
         style="fill:#ffffff;fill-opacity:0.98888898">
        <path
           sodipodi:nodetypes="cccccc"
           inkscape:connector-curvature="0"
           id="path1031"
           d="m 619.40166,474.79999 29.32939,-50.8 58.65878,101.6 14.6647,-25.4 -73.32348,-127 -43.99409,76.2"
           style="fill:#ffffff;fill-opacity:0.98888898;stroke:none;stroke-width:1.32292;stroke-linecap:butt;stroke-linejoin:round;stroke-miterlimit:4;stroke-dasharray:none;stroke-opacity:1" />
        <path
           sodipodi:nodetypes="ccc"
           inkscape:connector-curvature="0"
           id="path1033"
           d="m 590.07228,474.79999 -29.3294,50.8 h 58.65878"
           style="fill:#ffffff;fill-opacity:0.98888898;stroke:none;stroke-width:1.32292;stroke-linecap:butt;stroke-linejoin:round;stroke-miterlimit:4;stroke-dasharray:none;stroke-opacity:1" />
      </g>
    </g>
    <g
       id="g1045"
       transform="translate(293.29393,287.86666)"
       style="stroke:#fbfbfb;stroke-width:2.64583;stroke-miterlimit:4;stroke-dasharray:none;stroke-opacity:1">
      <path
         sodipodi:nodetypes="ccccccccccc"
         inkscape:connector-curvature="0"
         id="path1039"
         d="m 692.72514,212.33334 -29.32939,-50.8 -29.3294,50.79999 h 58.65878 m 10e-6,-50.79999 29.32939,-50.80001 58.65878,101.6 14.6647,-25.4 -73.32348,-127 -43.99409,76.20001 14.6647,25.4"
         style="fill:none;fill-opacity:0.854902;stroke:#fbfbfb;stroke-width:2.64583;stroke-linecap:butt;stroke-linejoin:round;stroke-miterlimit:4;stroke-dasharray:none;stroke-opacity:1" />
      <path
         sodipodi:nodetypes="ccccccccc"
         inkscape:connector-curvature="0"
         id="path1041"
         d="m 780.71332,161.53333 -29.3294,-50.8 h 58.65879 l -29.32939,50.8 m -14.6647,25.4 -29.32939,50.8 -14.6647,-25.4 29.32939,-50.8 14.6647,25.4"
         style="fill:none;fill-opacity:0.855556;stroke:#fbfbfb;stroke-width:2.64583;stroke-linecap:round;stroke-linejoin:round;stroke-miterlimit:4;stroke-dasharray:none;stroke-opacity:1" />
      <path
         sodipodi:nodetypes="cccccc"
         inkscape:connector-curvature="0"
         id="path1043"
         d="m 663.39574,110.73335 -14.6647,25.36259 73.3235,127.03742 14.66469,-25.40003 -29.32939,-50.83742 z"
         style="fill:none;fill-opacity:0.854902;stroke:#fbfbfb;stroke-width:2.64583;stroke-linecap:round;stroke-linejoin:round;stroke-miterlimit:4;stroke-dasharray:none;stroke-opacity:1" />
    </g>
    <rect
       ry="0.55542356"
       y="26.066656"
       x="586.58783"
       height="270.93335"
       width="270.93335"
       id="rect1047"
       style="opacity:1;fill:#ffffff;fill-opacity:0.988889;stroke:none;stroke-width:1.16757;stroke-linecap:round;stroke-linejoin:round;stroke-miterlimit:4;stroke-dasharray:none;stroke-opacity:1"
       inkscape:export-xdpi="96.09375"
       inkscape:export-ydpi="96.09375" />
    <path
       sodipodi:nodetypes="ccccc"
       inkscape:connector-curvature="0"
       id="path864"
       d="m 766.04861,136.13333 -14.6647,-25.4 h 58.6588 l -29.3294,50.8 c -14.6647,-25.4 -10e-5,0 -14.6647,-25.4 z"
       style="fill:#ffce0b;fill-opacity:1;stroke:#ffffff;stroke-width:2.64583;stroke-linecap:butt;stroke-linejoin:round;stroke-miterlimit:4;stroke-dasharray:none;stroke-opacity:1" />
    <path
       sodipodi:nodetypes="ccccc"
       inkscape:connector-curvature="0"
       id="path821"
       d="m 722.05451,212.33331 29.3294,-50.79998 c 14.6647,25.4 0,0 14.6647,25.4 l -29.3294,50.79998 z"
       style="fill:#ffce0b;fill-opacity:1;stroke:#ffffff;stroke-width:2.64583;stroke-linecap:butt;stroke-linejoin:round;stroke-miterlimit:4;stroke-dasharray:none;stroke-opacity:1" />
    <path
       sodipodi:nodetypes="cccccccccccc"
       inkscape:connector-curvature="0"
       id="path968"
       d="m 692.72511,212.33334 -29.3294,-50.8 -29.3294,50.79999 h 49.2611 9.3977 m 0,-50.79999 29.3294,-50.80001 58.6588,101.6 14.6647,-25.4 -73.3235,-127.000002 -43.9941,76.200012 14.6647,25.4"
       style="fill:none;fill-opacity:0.854902;stroke:#ffce0b;stroke-width:2.64583;stroke-linecap:butt;stroke-linejoin:round;stroke-miterlimit:4;stroke-dasharray:none;stroke-opacity:1" />
    <path
       sodipodi:nodetypes="cccccc"
       inkscape:connector-curvature="0"
       id="path819"
       d="m 663.39571,110.73333 -14.6647,25.36259 73.3235,127.03742 14.6647,-25.40003 -29.3294,-50.83742 z"
       style="fill:#ffce0b;fill-opacity:1;stroke:#ffffff;stroke-width:2.64583;stroke-linecap:round;stroke-linejoin:round;stroke-miterlimit:4;stroke-dasharray:none;stroke-opacity:1" />
    <rect
       ry="0.55542356"
       y="313.93329"
       x="1173.1758"
       height="270.93335"
       width="270.93335"
       id="rect899"
       style="fill:#ffffff;fill-opacity:0.988889;stroke:none;stroke-width:1.32292;stroke-linecap:round;stroke-linejoin:round;stroke-miterlimit:4;stroke-dasharray:none;stroke-opacity:1"
       inkscape:export-xdpi="96.000008"
       inkscape:export-ydpi="96.000008" />
    <g
       id="g907"
       style="stroke:#000000;stroke-width:10.5833;stroke-miterlimit:4;stroke-dasharray:none;stroke-opacity:1"
       transform="translate(586.58786,287.86666)">
      <path
         sodipodi:nodetypes="ccccccccccc"
         inkscape:connector-curvature="0"
         id="path901"
         d="m 692.72514,212.33334 -29.32939,-50.8 -29.3294,50.79999 h 58.65878 m 10e-6,-50.79999 29.32939,-50.80001 58.65878,101.6 14.6647,-25.4 -73.32348,-127 -43.99409,76.20001 14.6647,25.4"
         style="fill:none;fill-opacity:0.854902;stroke:#000000;stroke-width:10.5833;stroke-linecap:butt;stroke-linejoin:round;stroke-miterlimit:4;stroke-dasharray:none;stroke-opacity:1" />
      <path
         sodipodi:nodetypes="ccccccccc"
         inkscape:connector-curvature="0"
         id="path903"
         d="m 780.71332,161.53333 -29.3294,-50.8 h 58.65879 l -29.32939,50.8 m -14.6647,25.4 -29.32939,50.8 -14.6647,-25.4 29.32939,-50.8 14.6647,25.4"
         style="fill:none;fill-opacity:0.855556;stroke:#000000;stroke-width:10.5833;stroke-linecap:round;stroke-linejoin:round;stroke-miterlimit:4;stroke-dasharray:none;stroke-opacity:1" />
      <path
         sodipodi:nodetypes="cccccc"
         inkscape:connector-curvature="0"
         id="path905"
         d="m 663.39574,110.73335 -14.6647,25.36259 73.3235,127.03742 14.66469,-25.40003 -29.32939,-50.83742 z"
         style="fill:none;fill-opacity:0.854902;stroke:#000000;stroke-width:10.5833;stroke-linecap:round;stroke-linejoin:round;stroke-miterlimit:4;stroke-dasharray:none;stroke-opacity:1" />
    </g>
    <g
       id="g916"
       style="fill:#7ff4f2;fill-opacity:0.98888898;stroke:none;stroke-width:1.32292;stroke-miterlimit:4;stroke-dasharray:none;stroke-opacity:1"
       transform="translate(1173.1757,287.86665)">
      <path
         sodipodi:nodetypes="ccccc"
         inkscape:connector-curvature="0"
         id="path909"
         d="m 135.46667,212.33332 29.3294,-50.79998 c 14.66469,25.4 0,0 14.66469,25.4 l -29.32939,50.79998 z"
         style="fill:#7ff4f2;fill-opacity:0.98888898;stroke:none;stroke-width:1.32292;stroke-linecap:butt;stroke-linejoin:round;stroke-miterlimit:4;stroke-dasharray:none;stroke-opacity:1" />
      <path
         sodipodi:nodetypes="cccccc"
         inkscape:connector-curvature="0"
         id="path911"
         d="M 76.807884,110.73334 62.143183,136.09593 135.46668,263.13335 150.13137,237.73332 120.80198,186.8959 Z"
         style="fill:#7ff4f2;fill-opacity:0.98888898;stroke:none;stroke-width:1.32292;stroke-linecap:round;stroke-linejoin:round;stroke-miterlimit:4;stroke-dasharray:none;stroke-opacity:1" />
      <path
         sodipodi:nodetypes="ccccc"
         inkscape:connector-curvature="0"
         id="path914"
         d="m 179.46076,136.13334 -14.6647,-25.4 h 58.65879 l -29.32939,50.8 c -14.6647,-25.4 -1e-5,0 -14.6647,-25.4 z"
         style="fill:#7ff4f2;fill-opacity:0.98888898;stroke:none;stroke-width:1.32292;stroke-linecap:butt;stroke-linejoin:round;stroke-miterlimit:4;stroke-dasharray:none;stroke-opacity:1" />
    </g>
    <g
       id="g924"
       transform="translate(483.93498,-93.133328)"
       style="fill:#b57ef5;fill-opacity:0.98888898">
      <g
         id="g922"
         transform="translate(175.97636,67.733332)"
         style="fill:#b57ef5;fill-opacity:0.98888898">
        <path
           sodipodi:nodetypes="cccccc"
           inkscape:connector-curvature="0"
           id="path918"
           d="m 619.40166,474.79999 29.32939,-50.8 58.65878,101.6 14.6647,-25.4 -73.32348,-127 -43.99409,76.2"
           style="fill:#b57ef5;fill-opacity:0.98888898;stroke:none;stroke-width:1.32292;stroke-linecap:butt;stroke-linejoin:round;stroke-miterlimit:4;stroke-dasharray:none;stroke-opacity:1" />
        <path
           sodipodi:nodetypes="ccc"
           inkscape:connector-curvature="0"
           id="path920"
           d="m 590.07228,474.79999 -29.3294,50.8 h 58.65878"
           style="fill:#b57ef5;fill-opacity:0.98888898;stroke:none;stroke-width:1.32292;stroke-linecap:butt;stroke-linejoin:round;stroke-miterlimit:4;stroke-dasharray:none;stroke-opacity:1" />
      </g>
    </g>
    <g
       id="g932"
       transform="translate(586.58786,287.86666)"
       style="stroke:#fbfbfb;stroke-width:2.64583;stroke-miterlimit:4;stroke-dasharray:none;stroke-opacity:1">
      <path
         sodipodi:nodetypes="ccccccccccc"
         inkscape:connector-curvature="0"
         id="path926"
         d="m 692.72514,212.33334 -29.32939,-50.8 -29.3294,50.79999 h 58.65878 m 10e-6,-50.79999 29.32939,-50.80001 58.65878,101.6 14.6647,-25.4 -73.32348,-127 -43.99409,76.20001 14.6647,25.4"
         style="fill:none;fill-opacity:0.854902;stroke:#fbfbfb;stroke-width:2.64583;stroke-linecap:butt;stroke-linejoin:round;stroke-miterlimit:4;stroke-dasharray:none;stroke-opacity:1" />
      <path
         sodipodi:nodetypes="ccccccccc"
         inkscape:connector-curvature="0"
         id="path928"
         d="m 780.71332,161.53333 -29.3294,-50.8 h 58.65879 l -29.32939,50.8 m -14.6647,25.4 -29.32939,50.8 -14.6647,-25.4 29.32939,-50.8 14.6647,25.4"
         style="fill:none;fill-opacity:0.855556;stroke:#fbfbfb;stroke-width:2.64583;stroke-linecap:round;stroke-linejoin:round;stroke-miterlimit:4;stroke-dasharray:none;stroke-opacity:1" />
      <path
         sodipodi:nodetypes="cccccc"
         inkscape:connector-curvature="0"
         id="path930"
         d="m 663.39574,110.73335 -14.6647,25.36259 73.3235,127.03742 14.66469,-25.40003 -29.32939,-50.83742 z"
         style="fill:none;fill-opacity:0.854902;stroke:#fbfbfb;stroke-width:2.64583;stroke-linecap:round;stroke-linejoin:round;stroke-miterlimit:4;stroke-dasharray:none;stroke-opacity:1" />
    </g>
    <g
       id="g923"
       transform="translate(293.29393,287.86665)"
       style="stroke:#fbfbfb;stroke-width:2.64583;stroke-miterlimit:4;stroke-dasharray:none;stroke-opacity:1">
      <path
         sodipodi:nodetypes="ccccccccccc"
         inkscape:connector-curvature="0"
         id="path916"
         d="m 692.72514,212.33334 -29.32939,-50.8 -29.3294,50.79999 h 58.65878 m 10e-6,-50.79999 29.32939,-50.80001 58.65878,101.6 14.6647,-25.4 -73.32348,-127 -43.99409,76.20001 14.6647,25.4"
         style="fill:none;fill-opacity:0.854902;stroke:#fbfbfb;stroke-width:2.64583;stroke-linecap:butt;stroke-linejoin:round;stroke-miterlimit:4;stroke-dasharray:none;stroke-opacity:1" />
      <path
         sodipodi:nodetypes="ccccccccc"
         inkscape:connector-curvature="0"
         id="path919"
         d="m 780.71332,161.53333 -29.3294,-50.8 h 58.65879 l -29.32939,50.8 m -14.6647,25.4 -29.32939,50.8 -14.6647,-25.4 29.32939,-50.8 14.6647,25.4"
         style="fill:none;fill-opacity:0.855556;stroke:#fbfbfb;stroke-width:2.64583;stroke-linecap:round;stroke-linejoin:round;stroke-miterlimit:4;stroke-dasharray:none;stroke-opacity:1" />
      <path
         sodipodi:nodetypes="cccccc"
         inkscape:connector-curvature="0"
         id="path921"
         d="m 663.39574,110.73335 -14.6647,25.36259 73.3235,127.03742 14.66469,-25.40003 -29.32939,-50.83742 z"
         style="fill:none;fill-opacity:0.854902;stroke:#fbfbfb;stroke-width:2.64583;stroke-linecap:round;stroke-linejoin:round;stroke-miterlimit:4;stroke-dasharray:none;stroke-opacity:1" />
    </g>
    <rect
       ry="0.55542356"
       y="26.066654"
       x="1173.1757"
       height="270.93335"
       width="270.93335"
       id="rect981"
       style="opacity:1;fill:#ffffff;fill-opacity:0.988889;stroke:none;stroke-width:1.16757;stroke-linecap:round;stroke-linejoin:round;stroke-miterlimit:4;stroke-dasharray:none;stroke-opacity:1"
       inkscape:export-xdpi="96"
       inkscape:export-ydpi="96" />
    <g
       id="g1591"
       transform="translate(-5.3370514)"
       style="stroke:none;stroke-opacity:0.99215686">
      <g
         id="g1612">
        <rect
           ry="0.21566036"
           y="-99.43251"
           x="1170.046"
           height="105.19826"
           width="287.86667"
           id="rect1099"
           style="opacity:1;fill:#ffffff;fill-opacity:0.988889;stroke:#898989;stroke-width:20.7459;stroke-linecap:round;stroke-linejoin:round;stroke-miterlimit:4;stroke-dasharray:none;stroke-opacity:0.99215686"
           inkscape:export-xdpi="96.000008"
           inkscape:export-ydpi="96.000008" />
        <g
           id="g1089"
           transform="translate(5.3370354,-294.3785)"
           style="fill:#000000;fill-opacity:0.988889;stroke:none;stroke-opacity:0.992157">
          <path
             fill-rule="evenodd"
             fill="#0099b0"
             d="m 1256.7192,277.21944 h 4.6295 v -15.70176 c 0,-5.67129 -3.903,-7.57795 -9.5756,-7.57795 -3.4494,0 -5.9903,0.90592 -7.7599,3.35844 l 3.6301,2.76773 c 0.8162,-1.31595 1.9515,-1.77212 4.3566,-1.77212 3.3123,0 4.7193,0.77394 4.7193,2.95097 v 2.40511 h -6.3991 c -4.9461,0 -7.487,3.13292 -7.487,6.80785 0,3.99399 2.9945,7.03466 8.1225,7.03466 3.1317,0 4.7205,-0.72525 5.6726,-2.31542 h 0.091 z m 0,-8.07896 c 0,3.58652 -1.316,3.99399 -5.1729,3.99399 -3.1316,0 -4.3579,-1.36209 -4.3579,-2.90356 0,-1.67986 1.2711,-2.77029 3.9953,-2.77029 h 5.5355 z"
             id="path993"
             style="fill:#000000;fill-opacity:0.988889;stroke:none;stroke-width:1.28136;stroke-opacity:0.992157" />
          <path
             fill-rule="evenodd"
             fill="#0099b0"
             d="m 1266.4331,277.21944 h 4.6283 v -13.84251 c 0,-3.35588 2.2244,-4.81022 4.4937,-4.81022 1.1802,0 1.9515,0.31778 3.0407,1.13657 l 3.3572,-3.994 c -1.407,-1.08915 -2.9485,-1.76955 -4.8103,-1.76955 -2.4499,0 -4.5385,0.90848 -5.9903,2.72288 h -0.091 v -2.44995 h -4.6283 z"
             id="path995"
             style="fill:#000000;fill-opacity:0.988889;stroke:none;stroke-width:1.28136;stroke-opacity:0.992157" />
          <path
             fill-rule="evenodd"
             fill="#0099b0"
             d="m 1295.798,277.21944 h 4.6283 v -32.312 h -4.6283 v 11.75517 c -1.7247,-1.63373 -3.5852,-2.72288 -5.9455,-2.72288 -2.8138,0 -4.855,1.26854 -6.171,2.99581 -1.2711,1.63117 -1.6337,3.1278 -1.6337,8.75936 0,5.67129 0.3626,7.16792 1.6337,8.80165 1.316,1.72471 3.3572,2.99582 6.171,2.99582 2.3603,0 4.4937,-1.09172 5.9455,-2.67804 z m -4.5385,-18.65273 c 4.3117,0 4.5385,3.8146 4.5385,7.12819 0,3.35844 -0.2268,7.16792 -4.5385,7.16792 -4.3567,0 -4.5835,-3.58396 -4.5835,-7.16792 0,-3.54167 0.2268,-7.12819 4.5835,-7.12819"
             id="path997"
             style="fill:#000000;fill-opacity:0.988889;stroke:none;stroke-width:1.28136;stroke-opacity:0.992157" />
          <polygon
             fill-rule="evenodd"
             fill="#0099b0"
             points="99.736,175.398 95.664,162.826 93.043,162.826 88.971,175.398 88.9,175.398 85.464,162.826 81.64,162.826 87.377,180.781 90.564,180.781 94.318,168.208 94.389,168.208 98.143,180.781 101.332,180.781 107.068,162.826 103.242,162.826 99.809,175.398 "
             id="polygon999"
             transform="matrix(1.2813578,0,0,1.2813578,1198.2931,45.574292)"
             style="fill:#000000;fill-opacity:0.988889;stroke:none;stroke-opacity:0.992157" />
          <path
             fill-rule="evenodd"
             fill="#0099b0"
             d="m 1349.7317,277.21944 h 4.6295 v -15.70176 c 0,-5.67129 -3.9043,-7.57795 -9.5756,-7.57795 -3.4481,0 -5.9916,0.90592 -7.7612,3.35844 l 3.6314,2.76773 c 0.8162,-1.31595 1.9489,-1.77212 4.354,-1.77212 3.3136,0 4.7206,0.77394 4.7206,2.95097 v 2.40511 h -6.3991 c -4.9448,0 -7.4883,3.13292 -7.4883,6.80785 0,3.99399 2.9958,7.03466 8.1238,7.03466 3.1304,0 4.7205,-0.72525 5.6739,-2.31542 h 0.09 v 2.04249 z m 0,-8.07896 c 0,3.58652 -1.316,3.99399 -5.1729,3.99399 -3.1303,0 -4.3566,-1.36209 -4.3566,-2.90356 0,-1.67986 1.2711,-2.77029 3.994,-2.77029 h 5.5355 z"
             id="path1001"
             style="fill:#000000;fill-opacity:0.988889;stroke:none;stroke-width:1.28136;stroke-opacity:0.992157" />
          <path
             fill-rule="evenodd"
             fill="#0099b0"
             d="m 1359.4469,277.21944 h 4.627 v -13.84251 c 0,-3.35588 2.2219,-4.81022 4.4924,-4.81022 1.1814,0 1.9515,0.31778 3.0407,1.13657 l 3.3584,-3.994 c -1.4069,-1.08915 -2.9509,-1.76955 -4.8102,-1.76955 -2.4499,0 -4.5373,0.90848 -5.9891,2.72288 h -0.092 v -2.44995 h -4.627 z"
             id="path1003"
             style="fill:#000000;fill-opacity:0.988889;stroke:none;stroke-width:1.28136;stroke-opacity:0.992157" />
          <path
             fill-rule="evenodd"
             fill="#0099b0"
             d="m 1394.0179,267.46318 v -3.8146 c 0,-5.94422 -4.4001,-9.71013 -9.482,-9.71013 -4.4476,0 -9.4846,2.90355 -9.4846,11.84231 0,9.43976 5.4906,11.71032 10.2111,11.71032 3.0855,0 6.0339,-1.08915 8.3032,-3.72106 l -3.3584,-2.85999 c -1.3621,1.40949 -3.2688,2.22444 -5.0358,2.22444 -3.1777,0 -5.4906,-1.90666 -5.4906,-5.67129 z m -14.3371,-3.81332 c 0.09,-3.49427 2.1322,-5.35608 4.8551,-5.35608 2.7229,0 4.7205,1.86181 4.8551,5.35608 z"
             id="path1005"
             style="fill:#000000;fill-opacity:0.988889;stroke:none;stroke-width:1.28136;stroke-opacity:0.992157" />
          <path
             fill-rule="evenodd"
             fill="#0099b0"
             d="m 1198.2931,229.35303 c 0,4.99089 0.7252,6.89755 2.4948,8.84906 1.2711,1.40693 3.4046,2.94841 6.9898,2.94841 3.584,0 5.7174,-1.54148 6.9885,-2.94841 1.7696,-1.95151 2.4961,-3.85945 2.4961,-8.84906 0,-4.94732 -0.7265,-6.8527 -2.4961,-8.8042 -1.2711,-1.40694 -3.4045,-2.95097 -6.9885,-2.95097 -3.5852,0 -5.7187,1.54403 -6.9898,2.95097 -1.7696,1.95278 -2.4948,3.85688 -2.4948,8.8042 m 14.3397,0.0448 c 0,3.31359 -0.2717,4.21951 -1.134,5.44577 -0.6817,0.95333 -2.1335,1.67986 -3.7211,1.67986 -1.5889,0 -3.0407,-0.72525 -3.7211,-1.67986 -0.8623,-1.22626 -1.1352,-2.13218 -1.1352,-5.49062 0,-3.31359 0.2729,-4.22207 1.1352,-5.44577 0.6804,-0.95333 2.1322,-1.67986 3.7211,-1.67986 1.5876,0 3.0394,0.72525 3.7211,1.67986 0.8623,1.2237 1.134,2.13218 1.134,5.49062"
             id="path1007"
             style="fill:#000000;fill-opacity:0.988889;stroke:none;stroke-width:1.28136;stroke-opacity:0.992157" />
          <path
             fill-rule="evenodd"
             fill="#0099b0"
             d="m 1261.6806,231.12259 v -3.81204 c 0,-5.94678 -4.4015,-9.71269 -9.4833,-9.71269 -4.4489,0 -9.4847,2.90612 -9.4847,11.84487 0,9.4372 5.4907,11.70777 10.2099,11.70777 3.0868,0 6.0352,-1.08916 8.3045,-3.72107 l -3.3585,-2.85743 c -1.3608,1.40694 -3.2661,2.22444 -5.0357,2.22444 -3.1778,0 -5.4919,-1.90666 -5.4919,-5.67385 z m -14.3397,-3.81076 c 0.091,-3.49682 2.1335,-5.35607 4.8564,-5.35607 2.7228,0 4.7192,1.85925 4.855,5.35607 z"
             id="path1009"
             style="fill:#000000;fill-opacity:0.988889;stroke:none;stroke-width:1.28136;stroke-opacity:0.992157" />
          <path
             fill-rule="evenodd"
             fill="#0099b0"
             d="m 1265.631,240.87757 h 4.6283 v -13.70156 c 0,-3.13292 1.9515,-4.94732 4.5834,-4.94732 2.5871,0 4.5386,1.8144 4.5386,4.94732 v 13.70156 h 4.6282 v -15.29173 c 0,-5.22025 -4.0837,-7.98798 -7.6689,-7.98798 -2.45,0 -4.5386,0.90848 -5.9891,2.72288 h -0.092 v -2.44995 h -4.6283 z"
             id="path1011"
             style="fill:#000000;fill-opacity:0.988889;stroke:none;stroke-width:1.28136;stroke-opacity:0.992157" />
          <path
             fill-rule="evenodd"
             fill="#0099b0"
             d="m 1296.5246,237.02196 c 2.9496,2.76773 6.3991,4.12982 10.1201,4.12982 5.3548,0 9.5295,-2.58578 9.5295,-7.0795 0,-3.67366 -1.9041,-6.57978 -6.6708,-6.89755 l -3.812,-0.27037 c -2.3141,-0.18323 -3.0394,-1.18141 -3.0394,-2.17959 0,-1.58632 0.9982,-2.76773 3.9466,-2.76773 2.4974,0 4.3592,0.86363 6.1736,2.13218 l 2.8574,-3.35588 c -2.2693,-1.90666 -4.9909,-3.13292 -9.0323,-3.13292 -4.8551,0 -8.5761,2.40511 -8.5761,7.0795 0,3.94658 2.8138,6.21715 6.6246,6.53493 l 4.085,0.36262 c 1.5901,0.13454 2.8138,0.63556 2.8138,2.26929 0,1.9515 -1.9079,2.9484 -4.5385,2.9484 -3.0856,0 -5.2639,-0.99561 -7.2602,-2.9484 z"
             id="path1013"
             style="fill:#000000;fill-opacity:0.988889;stroke:none;stroke-width:1.28136;stroke-opacity:0.992157" />
          <path
             fill-rule="evenodd"
             fill="#0099b0"
             d="m 1318.8061,229.35303 c 0,4.99089 0.7278,6.89755 2.4973,8.84906 1.2712,1.40693 3.4033,2.94841 6.9873,2.94841 3.5865,0 5.7187,-1.54148 6.9898,-2.94841 1.7696,-1.95151 2.4948,-3.85945 2.4948,-8.84906 0,-4.94732 -0.7252,-6.8527 -2.4948,-8.8042 -1.2711,-1.40694 -3.4033,-2.95097 -6.9898,-2.95097 -3.584,0 -5.7161,1.54403 -6.9873,2.95097 -1.7695,1.95278 -2.4973,3.85688 -2.4973,8.8042 m 14.3397,0.0448 c 0,3.31359 -0.2704,4.21951 -1.134,5.44577 -0.6804,0.95333 -2.1322,1.67986 -3.7211,1.67986 -1.5863,0 -3.0407,-0.72525 -3.7185,-1.67986 -0.8636,-1.22626 -1.1366,-2.13218 -1.1366,-5.49062 0,-3.31359 0.273,-4.22207 1.1366,-5.44577 0.6778,-0.95333 2.1322,-1.67986 3.7185,-1.67986 1.5889,0 3.0407,0.72525 3.7211,1.67986 0.8636,1.2237 1.134,2.13218 1.134,5.49062"
             id="path1015-2"
             style="fill:#000000;fill-opacity:0.988889;stroke:none;stroke-width:1.28136;stroke-opacity:0.992157" />
          <path
             fill-rule="evenodd"
             fill="#0099b0"
             d="m 1341.727,233.16507 c 0,5.21769 4.085,7.98543 7.7151,7.98543 2.4025,0 4.4924,-0.90849 5.9442,-2.72289 h 0.09 v 2.45252 h 4.627 v -23.00934 h -4.627 v 13.70412 c 0,3.13036 -1.9515,4.94732 -4.5399,4.94732 -2.6306,0 -4.5821,-1.81696 -4.5821,-4.94732 v -13.70412 h -4.627 z"
             id="path1017-3"
             style="fill:#000000;fill-opacity:0.988889;stroke:none;stroke-width:1.28136;stroke-opacity:0.992157" />
          <path
             fill-rule="evenodd"
             fill="#0099b0"
             d="m 1365.1797,240.87757 h 4.6295 v -13.83995 c 0,-3.35844 2.2219,-4.81022 4.4925,-4.81022 1.1814,0 1.9515,0.31778 3.0407,1.13401 l 3.3584,-3.994 c -1.4095,-1.08915 -2.9484,-1.76955 -4.8102,-1.76955 -2.45,0 -4.5399,0.90848 -5.9917,2.72288 h -0.09 v -2.44995 h -4.6295 z"
             id="path1019-0"
             style="fill:#000000;fill-opacity:0.988889;stroke:none;stroke-width:1.28136;stroke-opacity:0.992157" />
          <path
             fill-rule="evenodd"
             fill="#0099b0"
             d="m 1395.4415,234.1184 c -1.134,1.40693 -2.7677,2.40511 -4.6718,2.40511 -3.7659,0 -5.9916,-2.13474 -5.9916,-7.12819 0,-5.03574 2.2244,-7.16792 5.9916,-7.16792 1.9041,0 3.5391,0.99818 4.6718,2.40511 l 3.4033,-3.04066 c -1.9951,-2.31541 -4.7654,-3.99399 -8.2583,-3.99399 -5.3087,0 -10.4367,3.35844 -10.4367,11.79746 0,8.3993 5.128,11.75518 10.4367,11.75518 3.4942,0 6.2645,-1.67986 8.2583,-3.99143 z"
             id="path1021"
             style="fill:#000000;fill-opacity:0.988889;stroke:none;stroke-width:1.28136;stroke-opacity:0.992157" />
          <path
             fill-rule="evenodd"
             fill="#0099b0"
             d="m 1418.9916,231.12259 v -3.81204 c 0,-5.94678 -4.4053,-9.71269 -9.4846,-9.71269 -4.4502,0 -9.4846,2.90612 -9.4846,11.84487 0,9.4372 5.4906,11.70777 10.2111,11.70777 3.0855,0 6.0365,-1.08916 8.3032,-3.72107 l -3.3584,-2.85743 c -1.3621,1.40694 -3.2662,2.22444 -5.0358,2.22444 -3.1777,0 -5.4906,-1.90666 -5.4906,-5.67385 z m -14.3397,-3.81076 c 0.09,-3.49682 2.1322,-5.35607 4.8551,-5.35607 2.7229,0 4.718,1.85925 4.8551,5.35607 z"
             id="path1023-9"
             style="fill:#000000;fill-opacity:0.988889;stroke:none;stroke-width:1.28136;stroke-opacity:0.992157" />
          <path
             fill="#0099b0"
             d="m 1230.3796,236.52351 c 4.3566,0 4.5834,-3.58652 4.5834,-7.12563 0,-3.58652 -0.2268,-7.17048 -4.5834,-7.17048 -4.3105,0 -4.5386,3.81204 -4.5386,7.17048 0,3.31359 0.2268,7.12563 4.5386,7.12563 m -9.1848,40.69593 v -59.34737 h 4.6462 v 2.40511 c 1.4531,-1.58889 3.5853,-2.67804 5.9455,-2.67804 2.8126,0 4.8564,1.27111 6.1723,2.99581 1.2698,1.63374 1.6325,3.13036 1.6325,8.80421 0,5.62645 -0.3627,7.12563 -1.6325,8.7568 -1.3159,1.72471 -3.3597,2.99582 -6.1723,2.99582 -2.3602,0 -4.2208,-1.08916 -5.9455,-2.72289 l -0.017,18.23372 c 1.5427,-1.8144 3.63,-2.72288 6.08,-2.72288 3.5852,0 7.6689,2.76773 7.6689,7.98542 v 15.29429 h -4.6282 v -13.70413 c 0,-3.13292 -1.9515,-4.94732 -4.5386,-4.94732 -2.6319,0 -4.5821,1.8144 -4.5821,4.94732 v 13.70413 z"
             id="path1025-7"
             style="fill:#000000;fill-opacity:0.988889;stroke:none;stroke-width:1.28136;stroke-opacity:0.992157" />
        </g>
      </g>
    </g>
    <g
       id="g1097"
       transform="translate(0,29.961388)"
       style="fill:#000000;fill-opacity:0.98888898">
      <path
         fill="#0099b0"
         d="m 1393.49,119.38563 -21.0642,-3.91711 c -0.5126,-0.0961 -1.0738,-0.5779 -1.2468,-1.0725 l -6.4567,-15.063643 c -0.2409,-0.465133 -0.1948,-1.195507 0.1025,-1.628606 l 12.2728,-17.887755 c 0.2934,-0.430536 0.2358,-1.08531 -0.1345,-1.455622 l -15.3289,-15.328883 c -0.3703,-0.370313 -1.0238,-0.430537 -1.4544,-0.134543 l -18.2016,12.490676 c -0.4306,0.295994 -1.1686,0.348529 -1.6363,0.117885 l -14.6024,-5.977534 c -0.4959,-0.164014 -0.9789,-0.718842 -1.0763,-1.232666 l -4.0555,-21.786927 c -0.095,-0.513825 -0.601,-0.93411 -1.1238,-0.93411 h -21.6806 c -0.5215,0 -1.0276,0.420285 -1.1224,0.93411 l -4.0542,21.786927 c -0.097,0.513824 -0.5792,1.068652 -1.0764,1.232666 l -14.6036,5.977534 c -0.469,0.230644 -1.2071,0.178109 -1.6363,-0.117885 L 1257.11,62.896968 c -0.4318,-0.295994 -1.0866,-0.23577 -1.4556,0.134543 l -15.3302,15.328883 c -0.369,0.370312 -0.4305,1.025086 -0.1345,1.455622 l 12.2741,17.887755 c 0.2947,0.433099 0.3408,1.163473 0.1012,1.628606 l -6.458,15.063643 c -0.1717,0.4946 -0.7317,0.97639 -1.2468,1.0725 l -21.063,3.91711 c -0.5151,0.0974 -0.9341,0.60223 -0.9341,1.12503 v 21.67929 c 0,0.5228 0.4203,1.03149 0.9341,1.12503 l 20.5466,3.82358 c 0.5138,0.0935 1.0635,0.58173 1.2199,1.08018 l 6.4144,16.02338 c 0.2294,0.47026 0.1756,1.20576 -0.1217,1.63629 l -11.6706,17.00747 c -0.2947,0.43053 -0.2345,1.08659 0.1345,1.4569 l 15.3315,15.32888 c 0.369,0.36775 1.0238,0.42798 1.4556,0.13454 l 16.7063,-11.46687 c 0.4306,-0.29471 1.152,-0.31777 1.6017,-0.0551 l 7.3679,3.93376 c 0.4664,0.23834 1.0109,0.0372 1.2108,-0.44591 l 15.1918,-36.70706 c 0.2012,-0.48307 0,-1.0994 -0.4459,-1.37233 l -1.8439,-1.12888 c -0.3408,-0.20758 -0.8034,-0.56507 -1.166,-0.8931 -6.6515,-4.25924 -11.0645,-11.71033 -11.0645,-20.19548 0,-13.24155 10.7352,-23.97549 23.9755,-23.97549 13.2402,0 23.9742,10.73394 23.9742,23.97549 0,8.48515 -4.4118,15.93624 -11.0646,20.19548 -0.36,0.32803 -0.8239,0.68552 -1.1634,0.8931 l -1.8439,1.12888 c -0.4434,0.27293 -0.6458,0.88926 -0.4459,1.37233 l 15.1905,36.70834 c 0.1999,0.48307 0.7432,0.68297 1.2109,0.44592 l 7.3678,-3.93377 c 0.451,-0.26268 1.1711,-0.2409 1.6017,0.0551 l 16.7076,11.46687 c 0.4305,0.29343 1.0866,0.2332 1.4543,-0.13455 l 15.3315,-15.32888 c 0.3703,-0.37031 0.4305,-1.02637 0.1345,-1.4569 l -11.6719,-17.00747 c -0.2947,-0.43053 -0.3498,-1.16603 -0.1204,-1.63629 l 6.4145,-16.02338 c 0.1576,-0.49845 0.7034,-0.98664 1.2185,-1.08018 l 20.5466,-3.82358 c 0.5125,-0.0935 0.9341,-0.60223 0.9341,-1.12503 v -21.67929 c 0,-0.52408 -0.419,-1.02893 -0.9316,-1.12631"
         id="path991"
         style="stroke-width:1.28136;fill:#000000;fill-opacity:0.98888898" />
    </g>
    <rect
       style="fill:#fefefe;fill-opacity:0.988889;stroke:none;stroke-width:18.0622;stroke-linecap:round;stroke-linejoin:round;stroke-miterlimit:4;stroke-dasharray:none;stroke-dashoffset:0;stroke-opacity:1"
       id="rect836"
       width="270.93335"
       height="270.93335"
       x="1466.4698"
       y="313.93332"
       ry="0.24594283"
       inkscape:export-xdpi="96.000008"
       inkscape:export-ydpi="96.000008" />
    <path
       style="fill:#000000;fill-opacity:0.98888898;stroke:#000000;stroke-width:8.46664;stroke-linecap:butt;stroke-linejoin:round;stroke-miterlimit:4;stroke-dasharray:none;stroke-opacity:1"
       d="m 1563.1989,427.65572 122.0296,-0.0229 -60.995,105.69217 z"
       id="path834"
       sodipodi:nodetypes="cccc" />
    <path
       style="fill:none;fill-opacity:0.988889;stroke:#ffffff;stroke-width:8.46664;stroke-linecap:butt;stroke-linejoin:round;stroke-miterlimit:4;stroke-dasharray:none;stroke-dashoffset:0;stroke-opacity:1"
       d="m 1640.6738,472.36654 -61.0346,-105.66931 -60.995,105.69217 z"
       id="path832" />
    <g
       id="g1642"
       transform="translate(-5.2566377,-2.4334507)"
       inkscape:export-xdpi="96"
       inkscape:export-ydpi="96">
      <rect
         style="fill:#fefefe;fill-opacity:0.988889;stroke:none;stroke-width:18.0622;stroke-linecap:round;stroke-linejoin:round;stroke-miterlimit:4;stroke-dasharray:none;stroke-dashoffset:0;stroke-opacity:1"
         id="rect836-5"
         width="270.93335"
         height="270.93335"
         x="1471.7264"
         y="28.500109"
         ry="0.24594283"
         inkscape:export-xdpi="96.000008"
         inkscape:export-ydpi="96.000008" />
      <path
         style="fill:#fefefe;fill-opacity:0.988889;stroke:#000000;stroke-width:8.46664;stroke-linecap:butt;stroke-linejoin:round;stroke-miterlimit:4;stroke-dasharray:none;stroke-dashoffset:0;stroke-opacity:1"
         d="M 1645.9304,186.93333 1584.8958,81.264018 1523.9008,186.95619 Z"
         id="path832-4" />
    </g>
    <rect
       style="fill:#fefefe;fill-opacity:0.988889;stroke:none;stroke-width:18.0622;stroke-linecap:round;stroke-linejoin:round;stroke-miterlimit:4;stroke-dasharray:none;stroke-dashoffset:0;stroke-opacity:1"
       id="rect1644"
       width="270.93335"
       height="270.93335"
       x="1759.7639"
       y="26.06666"
       ry="0.24594283"
       inkscape:export-xdpi="96.000008"
       inkscape:export-ydpi="96.000008" />
    <path
       id="rect1660"
       style="fill:none;fill-opacity:0.988889;stroke:#000000;stroke-width:16.0000003;stroke-linecap:round;stroke-linejoin:miter;stroke-miterlimit:4;stroke-dasharray:none;stroke-opacity:1"
       d="m 7078.8109,247.42578 -188.9765,327.45313 182.8848,-0.0312 -76.836,-133.02735 c -9.2354,-15.99916 2.3079,-35.99707 20.7813,-36.00195 l 153.6191,-0.0293 z"
       transform="matrix(0.26458333,0,0,0.26458333,0,26.066658)"
       sodipodi:nodetypes="ccccccc" />
    <g
       id="path1646"
       style="opacity:1" />
  </g>
</svg>
