%TF.GenerationSoftware,KiCad,Pcbnew,(6.0.2)*%
%TF.CreationDate,2022-08-29T12:15:15-07:00*%
%TF.ProjectId,tklc_v1_rgb,746b6c63-5f76-4315-9f72-67622e6b6963,rev?*%
%TF.SameCoordinates,Original*%
%TF.FileFunction,Profile,NP*%
%FSLAX46Y46*%
G04 Gerber Fmt 4.6, Leading zero omitted, Abs format (unit mm)*
G04 Created by KiCad (PCBNEW (6.0.2)) date 2022-08-29 12:15:15*
%MOMM*%
%LPD*%
G01*
G04 APERTURE LIST*
%TA.AperFunction,Profile*%
%ADD10C,0.100000*%
%TD*%
%TA.AperFunction,Profile*%
%ADD11C,0.120000*%
%TD*%
G04 APERTURE END LIST*
D10*
X50006249Y-219456251D02*
X50006249Y-80581251D01*
X376618750Y-221456250D02*
G75*
G03*
X378618750Y-219456250I1J1999999D01*
G01*
X52006249Y-78581249D02*
X376618750Y-78581249D01*
X50006250Y-219456250D02*
G75*
G03*
X52006250Y-221456250I1999999J-1D01*
G01*
X378618750Y-80581250D02*
G75*
G03*
X376618750Y-78581250I-1999999J1D01*
G01*
X378618750Y-219456250D02*
X378618750Y-80581250D01*
X376618751Y-221456251D02*
X52006251Y-221456251D01*
X52006249Y-78581250D02*
G75*
G03*
X50006250Y-80581250I-16J-1999983D01*
G01*
D11*
%TO.C,SW46*%
X295956250Y-157781250D02*
X299356250Y-157781250D01*
X299356250Y-157781250D02*
X299356250Y-161181250D01*
X299356250Y-161181250D02*
X295956250Y-161181250D01*
X295956250Y-161181250D02*
X295956250Y-157781250D01*
%TO.C,Kailh PG1350*%
X331356250Y-138931250D02*
X326056250Y-138931250D01*
X330706250Y-141231250D02*
X326706250Y-141231250D01*
X306706250Y-141231250D02*
X302706250Y-141231250D01*
X330706250Y-144731250D02*
X330706250Y-141231250D01*
X326706250Y-141231250D02*
X326706250Y-144731250D01*
X306706250Y-144731250D02*
X302706250Y-144731250D01*
X331356250Y-138931250D02*
X331356250Y-133431250D01*
X307356250Y-138931250D02*
X302056250Y-138931250D01*
X326056250Y-133431250D02*
X326056250Y-138931250D01*
X307356250Y-138931250D02*
X307356250Y-133431250D01*
X302706250Y-141231250D02*
X302706250Y-144731250D01*
X302056250Y-133431250D02*
X302056250Y-138931250D01*
X306706250Y-144731250D02*
X306706250Y-141231250D01*
X307356250Y-133431250D02*
X302056250Y-133431250D01*
X330706250Y-144731250D02*
X326706250Y-144731250D01*
X331356250Y-133431250D02*
X326056250Y-133431250D01*
%TO.C,SW6*%
X153081250Y-114918750D02*
X156481250Y-114918750D01*
X156481250Y-114918750D02*
X156481250Y-118318750D01*
X156481250Y-118318750D02*
X153081250Y-118318750D01*
X153081250Y-118318750D02*
X153081250Y-114918750D01*
%TO.C,SW49*%
X367393750Y-157781250D02*
X370793750Y-157781250D01*
X370793750Y-157781250D02*
X370793750Y-161181250D01*
X370793750Y-161181250D02*
X367393750Y-161181250D01*
X367393750Y-161181250D02*
X367393750Y-157781250D01*
%TO.C,SW59*%
X243568750Y-176831250D02*
X246968750Y-176831250D01*
X246968750Y-176831250D02*
X246968750Y-180231250D01*
X246968750Y-180231250D02*
X243568750Y-180231250D01*
X243568750Y-180231250D02*
X243568750Y-176831250D01*
%TO.C,SW42*%
X219756250Y-157781250D02*
X223156250Y-157781250D01*
X223156250Y-157781250D02*
X223156250Y-161181250D01*
X223156250Y-161181250D02*
X219756250Y-161181250D01*
X219756250Y-161181250D02*
X219756250Y-157781250D01*
%TO.C,SW1*%
X57831250Y-114918750D02*
X61231250Y-114918750D01*
X61231250Y-114918750D02*
X61231250Y-118318750D01*
X61231250Y-118318750D02*
X57831250Y-118318750D01*
X57831250Y-118318750D02*
X57831250Y-114918750D01*
%TO.C,SW66*%
X100693750Y-195881250D02*
X104093750Y-195881250D01*
X104093750Y-195881250D02*
X104093750Y-199281250D01*
X104093750Y-199281250D02*
X100693750Y-199281250D01*
X100693750Y-199281250D02*
X100693750Y-195881250D01*
%TO.C,SW14*%
X305481250Y-114918750D02*
X308881250Y-114918750D01*
X308881250Y-114918750D02*
X308881250Y-118318750D01*
X308881250Y-118318750D02*
X305481250Y-118318750D01*
X305481250Y-118318750D02*
X305481250Y-114918750D01*
%TO.C,SW21*%
X114981250Y-138731250D02*
X118381250Y-138731250D01*
X118381250Y-138731250D02*
X118381250Y-142131250D01*
X118381250Y-142131250D02*
X114981250Y-142131250D01*
X114981250Y-142131250D02*
X114981250Y-138731250D01*
%TO.C,SW27*%
X229281250Y-138731250D02*
X232681250Y-138731250D01*
X232681250Y-138731250D02*
X232681250Y-142131250D01*
X232681250Y-142131250D02*
X229281250Y-142131250D01*
X229281250Y-142131250D02*
X229281250Y-138731250D01*
%TO.C,SW28*%
X248331250Y-138731250D02*
X251731250Y-138731250D01*
X251731250Y-138731250D02*
X251731250Y-142131250D01*
X251731250Y-142131250D02*
X248331250Y-142131250D01*
X248331250Y-142131250D02*
X248331250Y-138731250D01*
%TO.C,Kailh PG1350*%
X167162500Y-217431250D02*
X167162500Y-220931250D01*
X142512500Y-209631250D02*
X142512500Y-215131250D01*
X171162500Y-220931250D02*
X171162500Y-217431250D01*
X147162500Y-217431250D02*
X143162500Y-217431250D01*
X143162500Y-217431250D02*
X143162500Y-220931250D01*
X147812500Y-215131250D02*
X147812500Y-209631250D01*
X147812500Y-209631250D02*
X142512500Y-209631250D01*
X147162500Y-220931250D02*
X143162500Y-220931250D01*
X171162500Y-217431250D02*
X167162500Y-217431250D01*
X171812500Y-215131250D02*
X171812500Y-209631250D01*
X171812500Y-215131250D02*
X166512500Y-215131250D01*
X171162500Y-220931250D02*
X167162500Y-220931250D01*
X147162500Y-220931250D02*
X147162500Y-217431250D01*
X147812500Y-215131250D02*
X142512500Y-215131250D01*
X166512500Y-209631250D02*
X166512500Y-215131250D01*
X171812500Y-209631250D02*
X166512500Y-209631250D01*
%TO.C,SW7*%
X172131250Y-114918750D02*
X175531250Y-114918750D01*
X175531250Y-114918750D02*
X175531250Y-118318750D01*
X175531250Y-118318750D02*
X172131250Y-118318750D01*
X172131250Y-118318750D02*
X172131250Y-114918750D01*
%TO.C,SW2*%
X76881250Y-114918750D02*
X80281250Y-114918750D01*
X80281250Y-114918750D02*
X80281250Y-118318750D01*
X80281250Y-118318750D02*
X76881250Y-118318750D01*
X76881250Y-118318750D02*
X76881250Y-114918750D01*
%TO.C,SW45*%
X276906250Y-157781250D02*
X280306250Y-157781250D01*
X280306250Y-157781250D02*
X280306250Y-161181250D01*
X280306250Y-161181250D02*
X276906250Y-161181250D01*
X276906250Y-161181250D02*
X276906250Y-157781250D01*
%TO.C,SW91*%
X343581250Y-214931250D02*
X346981250Y-214931250D01*
X346981250Y-214931250D02*
X346981250Y-218331250D01*
X346981250Y-218331250D02*
X343581250Y-218331250D01*
X343581250Y-218331250D02*
X343581250Y-214931250D01*
%TO.C,SW5*%
X134031250Y-114918750D02*
X137431250Y-114918750D01*
X137431250Y-114918750D02*
X137431250Y-118318750D01*
X137431250Y-118318750D02*
X134031250Y-118318750D01*
X134031250Y-118318750D02*
X134031250Y-114918750D01*
%TO.C,SW11*%
X248331250Y-114918750D02*
X251731250Y-114918750D01*
X251731250Y-114918750D02*
X251731250Y-118318750D01*
X251731250Y-118318750D02*
X248331250Y-118318750D01*
X248331250Y-118318750D02*
X248331250Y-114918750D01*
%TO.C,SW41*%
X200706250Y-157781250D02*
X204106250Y-157781250D01*
X204106250Y-157781250D02*
X204106250Y-161181250D01*
X204106250Y-161181250D02*
X200706250Y-161181250D01*
X200706250Y-161181250D02*
X200706250Y-157781250D01*
%TO.C,Kailh PG1350*%
X214137500Y-209631250D02*
X214137500Y-215131250D01*
X190137500Y-209631250D02*
X190137500Y-215131250D01*
X195437500Y-209631250D02*
X190137500Y-209631250D01*
X194787500Y-220931250D02*
X190787500Y-220931250D01*
X194787500Y-217431250D02*
X190787500Y-217431250D01*
X190787500Y-217431250D02*
X190787500Y-220931250D01*
X218787500Y-220931250D02*
X214787500Y-220931250D01*
X218787500Y-217431250D02*
X214787500Y-217431250D01*
X219437500Y-209631250D02*
X214137500Y-209631250D01*
X195437500Y-215131250D02*
X195437500Y-209631250D01*
X219437500Y-215131250D02*
X214137500Y-215131250D01*
X194787500Y-220931250D02*
X194787500Y-217431250D01*
X219437500Y-215131250D02*
X219437500Y-209631250D01*
X218787500Y-220931250D02*
X218787500Y-217431250D01*
X214787500Y-217431250D02*
X214787500Y-220931250D01*
X195437500Y-215131250D02*
X190137500Y-215131250D01*
X304325000Y-182831250D02*
X300325000Y-182831250D01*
X304975000Y-171531250D02*
X299675000Y-171531250D01*
X328975000Y-177031250D02*
X323675000Y-177031250D01*
X324325000Y-179331250D02*
X324325000Y-182831250D01*
X328975000Y-171531250D02*
X323675000Y-171531250D01*
X328325000Y-182831250D02*
X324325000Y-182831250D01*
X299675000Y-171531250D02*
X299675000Y-177031250D01*
X328325000Y-179331250D02*
X324325000Y-179331250D01*
X304975000Y-177031250D02*
X304975000Y-171531250D01*
X304975000Y-177031250D02*
X299675000Y-177031250D01*
X323675000Y-171531250D02*
X323675000Y-177031250D01*
X304325000Y-179331250D02*
X300325000Y-179331250D01*
X328975000Y-177031250D02*
X328975000Y-171531250D01*
X328325000Y-182831250D02*
X328325000Y-179331250D01*
X300325000Y-179331250D02*
X300325000Y-182831250D01*
X304325000Y-182831250D02*
X304325000Y-179331250D01*
%TO.C,SW22*%
X134031250Y-138731250D02*
X137431250Y-138731250D01*
X137431250Y-138731250D02*
X137431250Y-142131250D01*
X137431250Y-142131250D02*
X134031250Y-142131250D01*
X134031250Y-142131250D02*
X134031250Y-138731250D01*
%TO.C,SW52*%
X110218750Y-176831250D02*
X113618750Y-176831250D01*
X113618750Y-176831250D02*
X113618750Y-180231250D01*
X113618750Y-180231250D02*
X110218750Y-180231250D01*
X110218750Y-180231250D02*
X110218750Y-176831250D01*
%TO.C,SW50*%
X64975000Y-176831250D02*
X68375000Y-176831250D01*
X68375000Y-176831250D02*
X68375000Y-180231250D01*
X68375000Y-180231250D02*
X64975000Y-180231250D01*
X64975000Y-180231250D02*
X64975000Y-176831250D01*
%TO.C,SW90*%
X324531250Y-214931250D02*
X327931250Y-214931250D01*
X327931250Y-214931250D02*
X327931250Y-218331250D01*
X327931250Y-218331250D02*
X324531250Y-218331250D01*
X324531250Y-218331250D02*
X324531250Y-214931250D01*
%TO.C,SW19*%
X76881250Y-138731250D02*
X80281250Y-138731250D01*
X80281250Y-138731250D02*
X80281250Y-142131250D01*
X80281250Y-142131250D02*
X76881250Y-142131250D01*
X76881250Y-142131250D02*
X76881250Y-138731250D01*
%TO.C,SW68*%
X138793750Y-195881250D02*
X142193750Y-195881250D01*
X142193750Y-195881250D02*
X142193750Y-199281250D01*
X142193750Y-199281250D02*
X138793750Y-199281250D01*
X138793750Y-199281250D02*
X138793750Y-195881250D01*
%TO.C,SW8*%
X191181250Y-114918750D02*
X194581250Y-114918750D01*
X194581250Y-114918750D02*
X194581250Y-118318750D01*
X194581250Y-118318750D02*
X191181250Y-118318750D01*
X191181250Y-118318750D02*
X191181250Y-114918750D01*
%TO.C,SW25*%
X191181250Y-138731250D02*
X194581250Y-138731250D01*
X194581250Y-138731250D02*
X194581250Y-142131250D01*
X194581250Y-142131250D02*
X191181250Y-142131250D01*
X191181250Y-142131250D02*
X191181250Y-138731250D01*
%TO.C,SW53*%
X129268750Y-176831250D02*
X132668750Y-176831250D01*
X132668750Y-176831250D02*
X132668750Y-180231250D01*
X132668750Y-180231250D02*
X129268750Y-180231250D01*
X129268750Y-180231250D02*
X129268750Y-176831250D01*
%TO.C,SW39*%
X162606250Y-157781250D02*
X166006250Y-157781250D01*
X166006250Y-157781250D02*
X166006250Y-161181250D01*
X166006250Y-161181250D02*
X162606250Y-161181250D01*
X162606250Y-161181250D02*
X162606250Y-157781250D01*
%TO.C,C1*%
X54136048Y-95964141D02*
X62136048Y-95964141D01*
X62136048Y-95964141D02*
X62136048Y-90964141D01*
X62136048Y-90964141D02*
X54136048Y-90964141D01*
X54136048Y-90964141D02*
X54136048Y-95964141D01*
%TO.C,SW83*%
X119743750Y-214931250D02*
X123143750Y-214931250D01*
X123143750Y-214931250D02*
X123143750Y-218331250D01*
X123143750Y-218331250D02*
X119743750Y-218331250D01*
X119743750Y-218331250D02*
X119743750Y-214931250D01*
%TO.C,SW74*%
X253093750Y-195881250D02*
X256493750Y-195881250D01*
X256493750Y-195881250D02*
X256493750Y-199281250D01*
X256493750Y-199281250D02*
X253093750Y-199281250D01*
X253093750Y-199281250D02*
X253093750Y-195881250D01*
%TO.C,SW36*%
X105456250Y-157781250D02*
X108856250Y-157781250D01*
X108856250Y-157781250D02*
X108856250Y-161181250D01*
X108856250Y-161181250D02*
X105456250Y-161181250D01*
X105456250Y-161181250D02*
X105456250Y-157781250D01*
%TO.C,SW86*%
X236425000Y-214931250D02*
X239825000Y-214931250D01*
X239825000Y-214931250D02*
X239825000Y-218331250D01*
X239825000Y-218331250D02*
X236425000Y-218331250D01*
X236425000Y-218331250D02*
X236425000Y-214931250D01*
%TO.C,SW32*%
X343581250Y-138731250D02*
X346981250Y-138731250D01*
X346981250Y-138731250D02*
X346981250Y-142131250D01*
X346981250Y-142131250D02*
X343581250Y-142131250D01*
X343581250Y-142131250D02*
X343581250Y-138731250D01*
%TO.C,SW77*%
X324531250Y-195881250D02*
X327931250Y-195881250D01*
X327931250Y-195881250D02*
X327931250Y-199281250D01*
X327931250Y-199281250D02*
X324531250Y-199281250D01*
X324531250Y-199281250D02*
X324531250Y-195881250D01*
%TO.C,SW76*%
X298337500Y-195881250D02*
X301737500Y-195881250D01*
X301737500Y-195881250D02*
X301737500Y-199281250D01*
X301737500Y-199281250D02*
X298337500Y-199281250D01*
X298337500Y-199281250D02*
X298337500Y-195881250D01*
%TO.C,SW3*%
X95931250Y-114918750D02*
X99331250Y-114918750D01*
X99331250Y-114918750D02*
X99331250Y-118318750D01*
X99331250Y-118318750D02*
X95931250Y-118318750D01*
X95931250Y-118318750D02*
X95931250Y-114918750D01*
%TO.C,SW34*%
X62593750Y-157781250D02*
X65993750Y-157781250D01*
X65993750Y-157781250D02*
X65993750Y-161181250D01*
X65993750Y-161181250D02*
X62593750Y-161181250D01*
X62593750Y-161181250D02*
X62593750Y-157781250D01*
%TO.C,Kailh PG1350*%
X85437500Y-201881250D02*
X81437500Y-201881250D01*
X62087500Y-190581250D02*
X56787500Y-190581250D01*
X80787500Y-190581250D02*
X80787500Y-196081250D01*
X86087500Y-190581250D02*
X80787500Y-190581250D01*
X62087500Y-196081250D02*
X56787500Y-196081250D01*
X61437500Y-198381250D02*
X57437500Y-198381250D01*
X86087500Y-196081250D02*
X80787500Y-196081250D01*
X57437500Y-198381250D02*
X57437500Y-201881250D01*
X85437500Y-198381250D02*
X81437500Y-198381250D01*
X86087500Y-196081250D02*
X86087500Y-190581250D01*
X61437500Y-201881250D02*
X61437500Y-198381250D01*
X56787500Y-190581250D02*
X56787500Y-196081250D01*
X81437500Y-198381250D02*
X81437500Y-201881250D01*
X85437500Y-201881250D02*
X85437500Y-198381250D01*
X62087500Y-196081250D02*
X62087500Y-190581250D01*
X61437500Y-201881250D02*
X57437500Y-201881250D01*
%TO.C,SW70*%
X176893750Y-195881250D02*
X180293750Y-195881250D01*
X180293750Y-195881250D02*
X180293750Y-199281250D01*
X180293750Y-199281250D02*
X176893750Y-199281250D01*
X176893750Y-199281250D02*
X176893750Y-195881250D01*
%TO.C,SW56*%
X186418750Y-176831250D02*
X189818750Y-176831250D01*
X189818750Y-176831250D02*
X189818750Y-180231250D01*
X189818750Y-180231250D02*
X186418750Y-180231250D01*
X186418750Y-180231250D02*
X186418750Y-176831250D01*
%TO.C,SW84*%
X155462500Y-214931250D02*
X158862500Y-214931250D01*
X158862500Y-214931250D02*
X158862500Y-218331250D01*
X158862500Y-218331250D02*
X155462500Y-218331250D01*
X155462500Y-218331250D02*
X155462500Y-214931250D01*
%TO.C,SW65*%
X69737500Y-195881250D02*
X73137500Y-195881250D01*
X73137500Y-195881250D02*
X73137500Y-199281250D01*
X73137500Y-199281250D02*
X69737500Y-199281250D01*
X69737500Y-199281250D02*
X69737500Y-195881250D01*
%TO.C,SW35*%
X86406250Y-157781250D02*
X89806250Y-157781250D01*
X89806250Y-157781250D02*
X89806250Y-161181250D01*
X89806250Y-161181250D02*
X86406250Y-161181250D01*
X86406250Y-161181250D02*
X86406250Y-157781250D01*
%TO.C,SW75*%
X272143750Y-195881250D02*
X275543750Y-195881250D01*
X275543750Y-195881250D02*
X275543750Y-199281250D01*
X275543750Y-199281250D02*
X272143750Y-199281250D01*
X272143750Y-199281250D02*
X272143750Y-195881250D01*
%TO.C,SW23*%
X153081250Y-138731250D02*
X156481250Y-138731250D01*
X156481250Y-138731250D02*
X156481250Y-142131250D01*
X156481250Y-142131250D02*
X153081250Y-142131250D01*
X153081250Y-142131250D02*
X153081250Y-138731250D01*
%TO.C,SW47*%
X319768750Y-157781250D02*
X323168750Y-157781250D01*
X323168750Y-157781250D02*
X323168750Y-161181250D01*
X323168750Y-161181250D02*
X319768750Y-161181250D01*
X319768750Y-161181250D02*
X319768750Y-157781250D01*
%TO.C,SW72*%
X214993750Y-195881250D02*
X218393750Y-195881250D01*
X218393750Y-195881250D02*
X218393750Y-199281250D01*
X218393750Y-199281250D02*
X214993750Y-199281250D01*
X214993750Y-199281250D02*
X214993750Y-195881250D01*
%TO.C,SW60*%
X262618750Y-176831250D02*
X266018750Y-176831250D01*
X266018750Y-176831250D02*
X266018750Y-180231250D01*
X266018750Y-180231250D02*
X262618750Y-180231250D01*
X262618750Y-180231250D02*
X262618750Y-176831250D01*
%TO.C,SW51*%
X91168750Y-176831250D02*
X94568750Y-176831250D01*
X94568750Y-176831250D02*
X94568750Y-180231250D01*
X94568750Y-180231250D02*
X91168750Y-180231250D01*
X91168750Y-180231250D02*
X91168750Y-176831250D01*
%TO.C,SW57*%
X205468750Y-176831250D02*
X208868750Y-176831250D01*
X208868750Y-176831250D02*
X208868750Y-180231250D01*
X208868750Y-180231250D02*
X205468750Y-180231250D01*
X205468750Y-180231250D02*
X205468750Y-176831250D01*
%TO.C,SW43*%
X238806250Y-157781250D02*
X242206250Y-157781250D01*
X242206250Y-157781250D02*
X242206250Y-161181250D01*
X242206250Y-161181250D02*
X238806250Y-161181250D01*
X238806250Y-161181250D02*
X238806250Y-157781250D01*
%TO.C,SW24*%
X172131250Y-138731250D02*
X175531250Y-138731250D01*
X175531250Y-138731250D02*
X175531250Y-142131250D01*
X175531250Y-142131250D02*
X172131250Y-142131250D01*
X172131250Y-142131250D02*
X172131250Y-138731250D01*
%TO.C,SW44*%
X257856250Y-157781250D02*
X261256250Y-157781250D01*
X261256250Y-157781250D02*
X261256250Y-161181250D01*
X261256250Y-161181250D02*
X257856250Y-161181250D01*
X257856250Y-161181250D02*
X257856250Y-157781250D01*
%TO.C,SW38*%
X143556250Y-157781250D02*
X146956250Y-157781250D01*
X146956250Y-157781250D02*
X146956250Y-161181250D01*
X146956250Y-161181250D02*
X143556250Y-161181250D01*
X143556250Y-161181250D02*
X143556250Y-157781250D01*
%TO.C,SW33*%
X367393750Y-138731250D02*
X370793750Y-138731250D01*
X370793750Y-138731250D02*
X370793750Y-142131250D01*
X370793750Y-142131250D02*
X367393750Y-142131250D01*
X367393750Y-142131250D02*
X367393750Y-138731250D01*
%TO.C,SW73*%
X234043750Y-195881250D02*
X237443750Y-195881250D01*
X237443750Y-195881250D02*
X237443750Y-199281250D01*
X237443750Y-199281250D02*
X234043750Y-199281250D01*
X234043750Y-199281250D02*
X234043750Y-195881250D01*
%TO.C,SW30*%
X286431250Y-138731250D02*
X289831250Y-138731250D01*
X289831250Y-138731250D02*
X289831250Y-142131250D01*
X289831250Y-142131250D02*
X286431250Y-142131250D01*
X286431250Y-142131250D02*
X286431250Y-138731250D01*
%TO.C,SW89*%
X305481250Y-214931250D02*
X308881250Y-214931250D01*
X308881250Y-214931250D02*
X308881250Y-218331250D01*
X308881250Y-218331250D02*
X305481250Y-218331250D01*
X305481250Y-218331250D02*
X305481250Y-214931250D01*
%TO.C,SW61*%
X281668750Y-176831250D02*
X285068750Y-176831250D01*
X285068750Y-176831250D02*
X285068750Y-180231250D01*
X285068750Y-180231250D02*
X281668750Y-180231250D01*
X281668750Y-180231250D02*
X281668750Y-176831250D01*
%TO.C,SW87*%
X260237500Y-214931250D02*
X263637500Y-214931250D01*
X263637500Y-214931250D02*
X263637500Y-218331250D01*
X263637500Y-218331250D02*
X260237500Y-218331250D01*
X260237500Y-218331250D02*
X260237500Y-214931250D01*
%TO.C,SW31*%
X315006250Y-138731250D02*
X318406250Y-138731250D01*
X318406250Y-138731250D02*
X318406250Y-142131250D01*
X318406250Y-142131250D02*
X315006250Y-142131250D01*
X315006250Y-142131250D02*
X315006250Y-138731250D01*
%TO.C,SW10*%
X229281250Y-114918750D02*
X232681250Y-114918750D01*
X232681250Y-114918750D02*
X232681250Y-118318750D01*
X232681250Y-118318750D02*
X229281250Y-118318750D01*
X229281250Y-118318750D02*
X229281250Y-114918750D01*
%TO.C,SW15*%
X324531250Y-114918750D02*
X327931250Y-114918750D01*
X327931250Y-114918750D02*
X327931250Y-118318750D01*
X327931250Y-118318750D02*
X324531250Y-118318750D01*
X324531250Y-118318750D02*
X324531250Y-114918750D01*
%TO.C,SW48*%
X343581250Y-157781250D02*
X346981250Y-157781250D01*
X346981250Y-157781250D02*
X346981250Y-161181250D01*
X346981250Y-161181250D02*
X343581250Y-161181250D01*
X343581250Y-161181250D02*
X343581250Y-157781250D01*
%TO.C,SW12*%
X267381250Y-114918750D02*
X270781250Y-114918750D01*
X270781250Y-114918750D02*
X270781250Y-118318750D01*
X270781250Y-118318750D02*
X267381250Y-118318750D01*
X267381250Y-118318750D02*
X267381250Y-114918750D01*
%TO.C,SW40*%
X181656250Y-157781250D02*
X185056250Y-157781250D01*
X185056250Y-157781250D02*
X185056250Y-161181250D01*
X185056250Y-161181250D02*
X181656250Y-161181250D01*
X181656250Y-161181250D02*
X181656250Y-157781250D01*
%TO.C,SW80*%
X60212500Y-214931250D02*
X63612500Y-214931250D01*
X63612500Y-214931250D02*
X63612500Y-218331250D01*
X63612500Y-218331250D02*
X60212500Y-218331250D01*
X60212500Y-218331250D02*
X60212500Y-214931250D01*
%TO.C,SW69*%
X157843750Y-195881250D02*
X161243750Y-195881250D01*
X161243750Y-195881250D02*
X161243750Y-199281250D01*
X161243750Y-199281250D02*
X157843750Y-199281250D01*
X157843750Y-199281250D02*
X157843750Y-195881250D01*
%TO.C,SW29*%
X267381250Y-138731250D02*
X270781250Y-138731250D01*
X270781250Y-138731250D02*
X270781250Y-142131250D01*
X270781250Y-142131250D02*
X267381250Y-142131250D01*
X267381250Y-142131250D02*
X267381250Y-138731250D01*
%TO.C,SW67*%
X119743750Y-195881250D02*
X123143750Y-195881250D01*
X123143750Y-195881250D02*
X123143750Y-199281250D01*
X123143750Y-199281250D02*
X119743750Y-199281250D01*
X119743750Y-199281250D02*
X119743750Y-195881250D01*
%TO.C,SW13*%
X286431250Y-114918750D02*
X289831250Y-114918750D01*
X289831250Y-114918750D02*
X289831250Y-118318750D01*
X289831250Y-118318750D02*
X286431250Y-118318750D01*
X286431250Y-118318750D02*
X286431250Y-114918750D01*
%TO.C,SW18*%
X57831250Y-138731250D02*
X61231250Y-138731250D01*
X61231250Y-138731250D02*
X61231250Y-142131250D01*
X61231250Y-142131250D02*
X57831250Y-142131250D01*
X57831250Y-142131250D02*
X57831250Y-138731250D01*
%TO.C,SW4*%
X114981250Y-114918750D02*
X118381250Y-114918750D01*
X118381250Y-114918750D02*
X118381250Y-118318750D01*
X118381250Y-118318750D02*
X114981250Y-118318750D01*
X114981250Y-118318750D02*
X114981250Y-114918750D01*
%TO.C,SW62*%
X312625000Y-176831250D02*
X316025000Y-176831250D01*
X316025000Y-176831250D02*
X316025000Y-180231250D01*
X316025000Y-180231250D02*
X312625000Y-180231250D01*
X312625000Y-180231250D02*
X312625000Y-176831250D01*
%TO.C,C2*%
X54136048Y-90011011D02*
X62136048Y-90011011D01*
X62136048Y-90011011D02*
X62136048Y-85011011D01*
X62136048Y-85011011D02*
X54136048Y-85011011D01*
X54136048Y-85011011D02*
X54136048Y-90011011D01*
%TO.C,SW81*%
X81643750Y-214931250D02*
X85043750Y-214931250D01*
X85043750Y-214931250D02*
X85043750Y-218331250D01*
X85043750Y-218331250D02*
X81643750Y-218331250D01*
X81643750Y-218331250D02*
X81643750Y-214931250D01*
%TO.C,SW79*%
X367393750Y-195881250D02*
X370793750Y-195881250D01*
X370793750Y-195881250D02*
X370793750Y-199281250D01*
X370793750Y-199281250D02*
X367393750Y-199281250D01*
X367393750Y-199281250D02*
X367393750Y-195881250D01*
%TO.C,SW82*%
X100693750Y-214931250D02*
X104093750Y-214931250D01*
X104093750Y-214931250D02*
X104093750Y-218331250D01*
X104093750Y-218331250D02*
X100693750Y-218331250D01*
X100693750Y-218331250D02*
X100693750Y-214931250D01*
%TO.C,SW26*%
X210231250Y-138731250D02*
X213631250Y-138731250D01*
X213631250Y-138731250D02*
X213631250Y-142131250D01*
X213631250Y-142131250D02*
X210231250Y-142131250D01*
X210231250Y-142131250D02*
X210231250Y-138731250D01*
%TO.C,SW85*%
X203087500Y-214931250D02*
X206487500Y-214931250D01*
X206487500Y-214931250D02*
X206487500Y-218331250D01*
X206487500Y-218331250D02*
X203087500Y-218331250D01*
X203087500Y-218331250D02*
X203087500Y-214931250D01*
%TO.C,SW63*%
X343581250Y-176831250D02*
X346981250Y-176831250D01*
X346981250Y-176831250D02*
X346981250Y-180231250D01*
X346981250Y-180231250D02*
X343581250Y-180231250D01*
X343581250Y-180231250D02*
X343581250Y-176831250D01*
%TO.C,SW64*%
X367393750Y-176831250D02*
X370793750Y-176831250D01*
X370793750Y-176831250D02*
X370793750Y-180231250D01*
X370793750Y-180231250D02*
X367393750Y-180231250D01*
X367393750Y-180231250D02*
X367393750Y-176831250D01*
%TO.C,SW88*%
X284050000Y-214931250D02*
X287450000Y-214931250D01*
X287450000Y-214931250D02*
X287450000Y-218331250D01*
X287450000Y-218331250D02*
X284050000Y-218331250D01*
X284050000Y-218331250D02*
X284050000Y-214931250D01*
%TO.C,SW37*%
X124506250Y-157781250D02*
X127906250Y-157781250D01*
X127906250Y-157781250D02*
X127906250Y-161181250D01*
X127906250Y-161181250D02*
X124506250Y-161181250D01*
X124506250Y-161181250D02*
X124506250Y-157781250D01*
%TO.C,SW54*%
X148318750Y-176831250D02*
X151718750Y-176831250D01*
X151718750Y-176831250D02*
X151718750Y-180231250D01*
X151718750Y-180231250D02*
X148318750Y-180231250D01*
X148318750Y-180231250D02*
X148318750Y-176831250D01*
%TO.C,SW20*%
X95931250Y-138731250D02*
X99331250Y-138731250D01*
X99331250Y-138731250D02*
X99331250Y-142131250D01*
X99331250Y-142131250D02*
X95931250Y-142131250D01*
X95931250Y-142131250D02*
X95931250Y-138731250D01*
%TO.C,SW9*%
X210231250Y-114918750D02*
X213631250Y-114918750D01*
X213631250Y-114918750D02*
X213631250Y-118318750D01*
X213631250Y-118318750D02*
X210231250Y-118318750D01*
X210231250Y-118318750D02*
X210231250Y-114918750D01*
%TO.C,SW58*%
X224518750Y-176831250D02*
X227918750Y-176831250D01*
X227918750Y-176831250D02*
X227918750Y-180231250D01*
X227918750Y-180231250D02*
X224518750Y-180231250D01*
X224518750Y-180231250D02*
X224518750Y-176831250D01*
%TO.C,SW92*%
X367393750Y-214931250D02*
X370793750Y-214931250D01*
X370793750Y-214931250D02*
X370793750Y-218331250D01*
X370793750Y-218331250D02*
X367393750Y-218331250D01*
X367393750Y-218331250D02*
X367393750Y-214931250D01*
%TO.C,SW78*%
X343581250Y-195881250D02*
X346981250Y-195881250D01*
X346981250Y-195881250D02*
X346981250Y-199281250D01*
X346981250Y-199281250D02*
X343581250Y-199281250D01*
X343581250Y-199281250D02*
X343581250Y-195881250D01*
%TO.C,SW55*%
X167368750Y-176831250D02*
X170768750Y-176831250D01*
X170768750Y-176831250D02*
X170768750Y-180231250D01*
X170768750Y-180231250D02*
X167368750Y-180231250D01*
X167368750Y-180231250D02*
X167368750Y-176831250D01*
%TO.C,SW16*%
X343581250Y-114918750D02*
X346981250Y-114918750D01*
X346981250Y-114918750D02*
X346981250Y-118318750D01*
X346981250Y-118318750D02*
X343581250Y-118318750D01*
X343581250Y-118318750D02*
X343581250Y-114918750D01*
%TO.C,SW71*%
X195943750Y-195881250D02*
X199343750Y-195881250D01*
X199343750Y-195881250D02*
X199343750Y-199281250D01*
X199343750Y-199281250D02*
X195943750Y-199281250D01*
X195943750Y-199281250D02*
X195943750Y-195881250D01*
%TD*%
M02*
