M48
; DRILL file {KiCad (6.0.2)} date Tue Aug 23 14:47:57 2022
; FORMAT={-:-/ absolute / metric / decimal}
; #@! TF.CreationDate,2022-08-23T14:47:57-07:00
; #@! TF.GenerationSoftware,Kicad,Pcbnew,(6.0.2)
; #@! TF.FileFunction,NonPlated,1,2,NPTH
FMAT,2
METRIC
; #@! TA.AperFunction,NonPlated,NPTH,ComponentDrill
T1C1.750
; #@! TA.AperFunction,NonPlated,NPTH,ComponentDrill
T2C3.000
; #@! TA.AperFunction,NonPlated,NPTH,ComponentDrill
T3C3.200
; #@! TA.AperFunction,NonPlated,NPTH,ComponentDrill
T4C5.100
%
G90
G05
T1
X54.451Y-111.919
X54.451Y-135.731
X56.832Y-211.931
X59.214Y-154.781
X61.595Y-173.831
X64.611Y-111.919
X64.611Y-135.731
X66.358Y-192.881
X66.992Y-211.931
X69.374Y-154.781
X71.755Y-173.831
X73.501Y-111.919
X73.501Y-135.731
X76.517Y-192.881
X78.264Y-211.931
X83.026Y-154.781
X83.661Y-111.919
X83.661Y-135.731
X87.789Y-173.831
X88.424Y-211.931
X92.551Y-111.919
X92.551Y-135.731
X93.186Y-154.781
X97.314Y-192.881
X97.314Y-211.931
X97.949Y-173.831
X102.076Y-154.781
X102.711Y-111.919
X102.711Y-135.731
X106.839Y-173.831
X107.474Y-192.881
X107.474Y-211.931
X111.601Y-111.919
X111.601Y-135.731
X112.236Y-154.781
X116.364Y-192.881
X116.364Y-211.931
X116.999Y-173.831
X121.126Y-154.781
X121.761Y-111.919
X121.761Y-135.731
X125.889Y-173.831
X126.524Y-192.881
X126.524Y-211.931
X130.651Y-111.919
X130.651Y-135.731
X131.286Y-154.781
X135.414Y-192.881
X136.049Y-173.831
X140.176Y-154.781
X140.811Y-111.919
X140.811Y-135.731
X144.939Y-173.831
X145.574Y-192.881
X149.701Y-111.919
X149.701Y-135.731
X150.336Y-154.781
X152.082Y-211.931
X154.464Y-192.881
X155.099Y-173.831
X159.226Y-154.781
X159.861Y-111.919
X159.861Y-135.731
X162.243Y-211.931
X163.989Y-173.831
X164.624Y-192.881
X168.751Y-111.919
X168.751Y-135.731
X169.386Y-154.781
X173.514Y-192.881
X174.149Y-173.831
X178.276Y-154.781
X178.911Y-111.919
X178.911Y-135.731
X183.039Y-173.831
X183.674Y-192.881
X187.801Y-111.919
X187.801Y-135.731
X188.436Y-154.781
X192.564Y-192.881
X193.199Y-173.831
X197.326Y-154.781
X197.961Y-111.919
X197.961Y-135.731
X199.707Y-211.931
X202.089Y-173.831
X202.724Y-192.881
X206.851Y-111.919
X206.851Y-135.731
X207.486Y-154.781
X209.867Y-211.931
X211.614Y-192.881
X212.249Y-173.831
X216.376Y-154.781
X217.011Y-111.919
X217.011Y-135.731
X221.139Y-173.831
X221.774Y-192.881
X225.901Y-111.919
X225.901Y-135.731
X226.536Y-154.781
X230.664Y-192.881
X231.299Y-173.831
X233.045Y-211.931
X235.426Y-154.781
X236.061Y-111.919
X236.061Y-135.731
X240.189Y-173.831
X240.824Y-192.881
X243.205Y-211.931
X244.951Y-111.919
X244.951Y-135.731
X245.586Y-154.781
X249.714Y-192.881
X250.349Y-173.831
X254.476Y-154.781
X255.111Y-111.919
X255.111Y-135.731
X256.858Y-211.931
X259.239Y-173.831
X259.874Y-192.881
X264.001Y-111.919
X264.001Y-135.731
X264.636Y-154.781
X267.017Y-211.931
X268.764Y-192.881
X269.399Y-173.831
X273.526Y-154.781
X274.161Y-111.919
X274.161Y-135.731
X278.289Y-173.831
X278.924Y-192.881
X280.67Y-211.931
X283.051Y-111.919
X283.051Y-135.731
X283.686Y-154.781
X288.449Y-173.831
X290.83Y-211.931
X292.576Y-154.781
X293.211Y-111.919
X293.211Y-135.731
X294.957Y-192.881
X302.101Y-111.919
X302.101Y-211.931
X302.736Y-154.781
X305.118Y-192.881
X309.245Y-173.831
X311.626Y-135.731
X312.261Y-111.919
X312.261Y-211.931
X316.389Y-154.781
X319.405Y-173.831
X321.151Y-111.919
X321.151Y-192.881
X321.151Y-211.931
X321.786Y-135.731
X326.549Y-154.781
X331.311Y-111.919
X331.311Y-192.881
X331.311Y-211.931
X340.201Y-111.919
X340.201Y-135.731
X340.201Y-154.781
X340.201Y-173.831
X340.201Y-192.881
X340.201Y-211.931
X350.361Y-111.919
X350.361Y-135.731
X350.361Y-154.781
X350.361Y-173.831
X350.361Y-192.881
X350.361Y-211.931
X364.014Y-135.731
X364.014Y-154.781
X364.014Y-173.831
X364.014Y-192.881
X364.014Y-211.931
X374.174Y-135.731
X374.174Y-154.781
X374.174Y-173.831
X374.174Y-192.881
X374.174Y-211.931
T2
X55.721Y-109.379
X55.721Y-133.191
X56.931Y-106.169
X56.931Y-129.981
X58.102Y-209.391
X59.312Y-206.181
X60.484Y-152.241
X61.694Y-149.031
X62.071Y-106.839
X62.071Y-130.651
X62.865Y-171.291
X63.931Y-107.219
X63.931Y-131.031
X64.075Y-168.081
X64.453Y-206.851
X66.312Y-207.231
X66.834Y-149.701
X67.627Y-190.341
X68.694Y-150.081
X68.837Y-187.131
X69.215Y-168.751
X71.075Y-169.131
X73.977Y-187.801
X74.771Y-109.379
X74.771Y-133.191
X75.837Y-188.181
X75.981Y-106.169
X75.981Y-129.981
X79.534Y-209.391
X80.744Y-206.181
X81.121Y-106.839
X81.121Y-130.651
X82.981Y-107.219
X82.981Y-131.031
X84.296Y-152.241
X85.506Y-149.031
X85.884Y-206.851
X87.744Y-207.231
X89.059Y-171.291
X90.269Y-168.081
X90.646Y-149.701
X92.506Y-150.081
X93.821Y-109.379
X93.821Y-133.191
X95.031Y-106.169
X95.031Y-129.981
X95.409Y-168.751
X97.269Y-169.131
X98.584Y-190.341
X98.584Y-209.391
X99.794Y-187.131
X99.794Y-206.181
X100.171Y-106.839
X100.171Y-130.651
X102.031Y-107.219
X102.031Y-131.031
X103.346Y-152.241
X104.556Y-149.031
X104.934Y-187.801
X104.934Y-206.851
X106.794Y-188.181
X106.794Y-207.231
X108.109Y-171.291
X109.319Y-168.081
X109.696Y-149.701
X111.556Y-150.081
X112.871Y-109.379
X112.871Y-133.191
X114.081Y-106.169
X114.081Y-129.981
X114.459Y-168.751
X116.319Y-169.131
X117.634Y-190.341
X117.634Y-209.391
X118.844Y-187.131
X118.844Y-206.181
X119.221Y-106.839
X119.221Y-130.651
X121.081Y-107.219
X121.081Y-131.031
X122.396Y-152.241
X123.606Y-149.031
X123.984Y-187.801
X123.984Y-206.851
X125.844Y-188.181
X125.844Y-207.231
X127.159Y-171.291
X128.369Y-168.081
X128.746Y-149.701
X130.606Y-150.081
X131.921Y-109.379
X131.921Y-133.191
X133.131Y-106.169
X133.131Y-129.981
X133.509Y-168.751
X135.369Y-169.131
X136.684Y-190.341
X137.894Y-187.131
X138.271Y-106.839
X138.271Y-130.651
X140.131Y-107.219
X140.131Y-131.031
X141.446Y-152.241
X142.656Y-149.031
X143.034Y-187.801
X144.894Y-188.181
X146.209Y-171.291
X147.419Y-168.081
X147.796Y-149.701
X149.656Y-150.081
X150.971Y-109.379
X150.971Y-133.191
X152.181Y-106.169
X152.181Y-129.981
X152.559Y-168.751
X153.352Y-209.391
X154.419Y-169.131
X154.562Y-206.181
X155.734Y-190.341
X156.944Y-187.131
X157.321Y-106.839
X157.321Y-130.651
X159.181Y-107.219
X159.181Y-131.031
X159.702Y-206.851
X160.496Y-152.241
X161.562Y-207.231
X161.706Y-149.031
X162.084Y-187.801
X163.944Y-188.181
X165.259Y-171.291
X166.469Y-168.081
X166.846Y-149.701
X168.706Y-150.081
X170.021Y-109.379
X170.021Y-133.191
X171.231Y-106.169
X171.231Y-129.981
X171.609Y-168.751
X173.469Y-169.131
X174.784Y-190.341
X175.994Y-187.131
X176.371Y-106.839
X176.371Y-130.651
X178.231Y-107.219
X178.231Y-131.031
X179.546Y-152.241
X180.756Y-149.031
X181.134Y-187.801
X182.994Y-188.181
X184.309Y-171.291
X185.519Y-168.081
X185.896Y-149.701
X187.756Y-150.081
X189.071Y-109.379
X189.071Y-133.191
X190.281Y-106.169
X190.281Y-129.981
X190.659Y-168.751
X192.519Y-169.131
X193.834Y-190.341
X195.044Y-187.131
X195.421Y-106.839
X195.421Y-130.651
X197.281Y-107.219
X197.281Y-131.031
X198.596Y-152.241
X199.806Y-149.031
X200.184Y-187.801
X200.977Y-209.391
X202.044Y-188.181
X202.188Y-206.181
X203.359Y-171.291
X204.569Y-168.081
X204.946Y-149.701
X206.806Y-150.081
X207.327Y-206.851
X208.121Y-109.379
X208.121Y-133.191
X209.188Y-207.231
X209.331Y-106.169
X209.331Y-129.981
X209.709Y-168.751
X211.569Y-169.131
X212.884Y-190.341
X214.094Y-187.131
X214.471Y-106.839
X214.471Y-130.651
X216.331Y-107.219
X216.331Y-131.031
X217.646Y-152.241
X218.856Y-149.031
X219.234Y-187.801
X221.094Y-188.181
X222.409Y-171.291
X223.619Y-168.081
X223.996Y-149.701
X225.856Y-150.081
X227.171Y-109.379
X227.171Y-133.191
X228.381Y-106.169
X228.381Y-129.981
X228.759Y-168.751
X230.619Y-169.131
X231.934Y-190.341
X233.144Y-187.131
X233.521Y-106.839
X233.521Y-130.651
X234.315Y-209.391
X235.381Y-107.219
X235.381Y-131.031
X235.525Y-206.181
X236.696Y-152.241
X237.906Y-149.031
X238.284Y-187.801
X240.144Y-188.181
X240.665Y-206.851
X241.459Y-171.291
X242.525Y-207.231
X242.669Y-168.081
X243.046Y-149.701
X244.906Y-150.081
X246.221Y-109.379
X246.221Y-133.191
X247.431Y-106.169
X247.431Y-129.981
X247.809Y-168.751
X249.669Y-169.131
X250.984Y-190.341
X252.194Y-187.131
X252.571Y-106.839
X252.571Y-130.651
X254.431Y-107.219
X254.431Y-131.031
X255.746Y-152.241
X256.956Y-149.031
X257.334Y-187.801
X258.127Y-209.391
X259.194Y-188.181
X259.337Y-206.181
X260.509Y-171.291
X261.719Y-168.081
X262.096Y-149.701
X263.956Y-150.081
X264.477Y-206.851
X265.271Y-109.379
X265.271Y-133.191
X266.337Y-207.231
X266.481Y-106.169
X266.481Y-129.981
X266.859Y-168.751
X268.719Y-169.131
X270.034Y-190.341
X271.244Y-187.131
X271.621Y-106.839
X271.621Y-130.651
X273.481Y-107.219
X273.481Y-131.031
X274.796Y-152.241
X276.006Y-149.031
X276.384Y-187.801
X278.244Y-188.181
X279.559Y-171.291
X280.769Y-168.081
X281.146Y-149.701
X281.94Y-209.391
X283.006Y-150.081
X283.15Y-206.181
X284.321Y-109.379
X284.321Y-133.191
X285.531Y-106.169
X285.531Y-129.981
X285.909Y-168.751
X287.769Y-169.131
X288.29Y-206.851
X290.15Y-207.231
X290.671Y-106.839
X290.671Y-130.651
X292.531Y-107.219
X292.531Y-131.031
X293.846Y-152.241
X295.056Y-149.031
X296.227Y-190.341
X297.438Y-187.131
X300.196Y-149.701
X302.056Y-150.081
X302.577Y-187.801
X303.371Y-109.379
X303.371Y-209.391
X304.438Y-188.181
X304.581Y-106.169
X304.581Y-206.181
X309.721Y-106.839
X309.721Y-206.851
X310.515Y-171.291
X311.581Y-107.219
X311.581Y-207.231
X311.725Y-168.081
X312.896Y-133.191
X314.106Y-129.981
X316.865Y-168.751
X317.659Y-152.241
X318.725Y-169.131
X318.869Y-149.031
X319.246Y-130.651
X321.106Y-131.031
X322.421Y-109.379
X322.421Y-190.341
X322.421Y-209.391
X323.631Y-106.169
X323.631Y-187.131
X323.631Y-206.181
X324.009Y-149.701
X325.869Y-150.081
X328.771Y-106.839
X328.771Y-187.801
X328.771Y-206.851
X330.631Y-107.219
X330.631Y-188.181
X330.631Y-207.231
X341.471Y-109.379
X341.471Y-133.191
X341.471Y-152.241
X341.471Y-171.291
X341.471Y-190.341
X341.471Y-209.391
X342.681Y-106.169
X342.681Y-129.981
X342.681Y-149.031
X342.681Y-168.081
X342.681Y-187.131
X342.681Y-206.181
X347.821Y-106.839
X347.821Y-130.651
X347.821Y-149.701
X347.821Y-168.751
X347.821Y-187.801
X347.821Y-206.851
X349.681Y-107.219
X349.681Y-131.031
X349.681Y-150.081
X349.681Y-169.131
X349.681Y-188.181
X349.681Y-207.231
X365.284Y-133.191
X365.284Y-152.241
X365.284Y-171.291
X365.284Y-190.341
X365.284Y-209.391
X366.494Y-129.981
X366.494Y-149.031
X366.494Y-168.081
X366.494Y-187.131
X366.494Y-206.181
X371.634Y-130.651
X371.634Y-149.701
X371.634Y-168.751
X371.634Y-187.801
X371.634Y-206.851
X373.494Y-131.031
X373.494Y-150.081
X373.494Y-169.131
X373.494Y-188.181
X373.494Y-207.231
T3
X59.531Y-185.142
X97.631Y-123.825
X214.313Y-123.825
X223.838Y-204.788
X330.994Y-123.825
X358.081Y-204.788
T4
X59.531Y-111.919
X59.531Y-135.731
X61.912Y-211.931
X64.294Y-154.781
X66.675Y-173.831
X71.438Y-192.881
X78.581Y-111.919
X78.581Y-135.731
X83.344Y-211.931
X88.106Y-154.781
X92.869Y-173.831
X97.631Y-111.919
X97.631Y-135.731
X102.394Y-192.881
X102.394Y-211.931
X107.156Y-154.781
X111.919Y-173.831
X116.681Y-111.919
X116.681Y-135.731
X121.444Y-192.881
X121.444Y-211.931
X126.206Y-154.781
X130.969Y-173.831
X135.731Y-111.919
X135.731Y-135.731
X140.494Y-192.881
X145.256Y-154.781
X150.019Y-173.831
X154.781Y-111.919
X154.781Y-135.731
X157.162Y-211.931
X159.544Y-192.881
X164.306Y-154.781
X169.069Y-173.831
X173.831Y-111.919
X173.831Y-135.731
X178.594Y-192.881
X183.356Y-154.781
X188.119Y-173.831
X192.881Y-111.919
X192.881Y-135.731
X197.644Y-192.881
X202.406Y-154.781
X204.787Y-211.931
X207.169Y-173.831
X211.931Y-111.919
X211.931Y-135.731
X216.694Y-192.881
X221.456Y-154.781
X226.219Y-173.831
X230.981Y-111.919
X230.981Y-135.731
X235.744Y-192.881
X238.125Y-211.931
X240.506Y-154.781
X245.269Y-173.831
X250.031Y-111.919
X250.031Y-135.731
X254.794Y-192.881
X259.556Y-154.781
X261.938Y-211.931
X264.319Y-173.831
X269.081Y-111.919
X269.081Y-135.731
X273.844Y-192.881
X278.606Y-154.781
X283.369Y-173.831
X285.75Y-211.931
X288.131Y-111.919
X288.131Y-135.731
X297.656Y-154.781
X300.037Y-192.881
X307.181Y-111.919
X307.181Y-211.931
X314.325Y-173.831
X316.706Y-135.731
X321.469Y-154.781
X326.231Y-111.919
X326.231Y-192.881
X326.231Y-211.931
X345.281Y-111.919
X345.281Y-135.731
X345.281Y-154.781
X345.281Y-173.831
X345.281Y-192.881
X345.281Y-211.931
X369.094Y-135.731
X369.094Y-154.781
X369.094Y-173.831
X369.094Y-192.881
X369.094Y-211.931
T0
M30
