%TF.GenerationSoftware,KiCad,Pcbnew,(6.0.2)*%
%TF.CreationDate,2022-08-29T12:15:15-07:00*%
%TF.ProjectId,tklc_v1_rgb,746b6c63-5f76-4315-9f72-67622e6b6963,rev?*%
%TF.SameCoordinates,Original*%
%TF.FileFunction,Paste,Bot*%
%TF.FilePolarity,Positive*%
%FSLAX46Y46*%
G04 Gerber Fmt 4.6, Leading zero omitted, Abs format (unit mm)*
G04 Created by KiCad (PCBNEW (6.0.2)) date 2022-08-29 12:15:15*
%MOMM*%
%LPD*%
G01*
G04 APERTURE LIST*
G04 Aperture macros list*
%AMOutline5P*
0 Free polygon, 5 corners , with rotation*
0 The origin of the aperture is its center*
0 number of corners: always 5*
0 $1 to $10 corner X, Y*
0 $11 Rotation angle, in degrees counterclockwise*
0 create outline with 5 corners*
4,1,5,$1,$2,$3,$4,$5,$6,$7,$8,$9,$10,$1,$2,$11*%
%AMOutline6P*
0 Free polygon, 6 corners , with rotation*
0 The origin of the aperture is its center*
0 number of corners: always 6*
0 $1 to $12 corner X, Y*
0 $13 Rotation angle, in degrees counterclockwise*
0 create outline with 6 corners*
4,1,6,$1,$2,$3,$4,$5,$6,$7,$8,$9,$10,$11,$12,$1,$2,$13*%
%AMOutline7P*
0 Free polygon, 7 corners , with rotation*
0 The origin of the aperture is its center*
0 number of corners: always 7*
0 $1 to $14 corner X, Y*
0 $15 Rotation angle, in degrees counterclockwise*
0 create outline with 7 corners*
4,1,7,$1,$2,$3,$4,$5,$6,$7,$8,$9,$10,$11,$12,$13,$14,$1,$2,$15*%
%AMOutline8P*
0 Free polygon, 8 corners , with rotation*
0 The origin of the aperture is its center*
0 number of corners: always 8*
0 $1 to $16 corner X, Y*
0 $17 Rotation angle, in degrees counterclockwise*
0 create outline with 8 corners*
4,1,8,$1,$2,$3,$4,$5,$6,$7,$8,$9,$10,$11,$12,$13,$14,$15,$16,$1,$2,$17*%
%AMFreePoly0*
4,1,63,1.190063,1.245106,1.205902,1.245106,1.218716,1.235796,1.233779,1.230902,1.243089,1.218089,1.255902,1.208779,1.260796,1.193716,1.270106,1.180902,1.270106,1.165063,1.275000,1.150000,1.275000,-1.150000,1.270106,-1.165063,1.270106,-1.180902,1.260796,-1.193716,1.255902,-1.208779,1.243089,-1.218089,1.233779,-1.230902,1.218716,-1.235796,1.205902,-1.245106,1.190063,-1.245106,
1.175000,-1.250000,0.000000,-1.250000,-0.009494,-1.246915,-0.020217,-1.248887,-0.055689,-1.231906,-0.058779,-1.230902,-0.059308,-1.230173,-0.075962,-1.222201,-0.105376,-1.167846,-0.097221,-1.106582,-0.090264,-1.099272,-0.009972,-0.897825,0.044937,-0.678104,0.069912,-0.453008,0.064502,-0.226594,0.028804,-0.002947,-0.036538,0.213900,-0.130345,0.420037,-0.250925,0.611747,-0.396105,0.785572,
-0.563266,0.938378,-0.741486,1.061927,-0.751326,1.064177,-0.754372,1.067666,-0.758779,1.069098,-0.774445,1.090661,-0.791970,1.110736,-0.792383,1.115351,-0.795106,1.119098,-0.795106,1.145746,-0.797484,1.172293,-0.795106,1.176269,-0.795106,1.180902,-0.779439,1.202466,-0.765762,1.225335,-0.761502,1.227154,-0.758779,1.230902,-0.733435,1.239137,-0.708922,1.249602,-0.704405,1.248569,
-0.700000,1.250000,1.175000,1.250000,1.190063,1.245106,1.190063,1.245106,$1*%
%AMFreePoly1*
4,1,63,1.190063,1.245106,1.205902,1.245106,1.218716,1.235796,1.233779,1.230902,1.243089,1.218089,1.255902,1.208779,1.260796,1.193716,1.270106,1.180902,1.270106,1.165063,1.275000,1.150000,1.275000,-1.150000,1.270106,-1.165063,1.270106,-1.180902,1.260796,-1.193716,1.255902,-1.208779,1.243089,-1.218089,1.233779,-1.230902,1.218716,-1.235796,1.205902,-1.245106,1.190063,-1.245106,
1.175000,-1.250000,0.000000,-1.250000,-0.058779,-1.230902,-0.066885,-1.219746,-0.073034,-1.216828,-0.085190,-1.194550,-0.095106,-1.180902,-0.095106,-1.176378,-0.102637,-1.162576,-0.094697,-1.101284,-0.087758,-1.093942,-0.008337,-0.892734,0.045782,-0.673367,0.070093,-0.448734,0.064158,-0.222867,0.028084,0.000179,-0.037481,0.216402,-0.131360,0.421920,-0.251869,0.613044,-0.396844,0.786345,
-0.563684,0.938711,-0.741480,1.061925,-0.751326,1.064177,-0.754372,1.067666,-0.758779,1.069098,-0.774445,1.090661,-0.791970,1.110736,-0.792383,1.115351,-0.795106,1.119098,-0.795106,1.145746,-0.797484,1.172293,-0.795106,1.176269,-0.795106,1.180902,-0.779439,1.202466,-0.765762,1.225335,-0.761502,1.227154,-0.758779,1.230902,-0.733435,1.239137,-0.708922,1.249602,-0.704405,1.248569,
-0.700000,1.250000,1.175000,1.250000,1.190063,1.245106,1.190063,1.245106,$1*%
%AMFreePoly2*
4,1,63,1.190063,1.245106,1.205902,1.245106,1.218716,1.235796,1.233779,1.230902,1.243089,1.218089,1.255902,1.208779,1.260796,1.193716,1.270106,1.180902,1.270106,1.165063,1.275000,1.150000,1.275000,-1.150000,1.270106,-1.165063,1.270106,-1.180902,1.260796,-1.193716,1.255902,-1.208779,1.243089,-1.218089,1.233779,-1.230902,1.218716,-1.235796,1.205902,-1.245106,1.190063,-1.245106,
1.175000,-1.250000,0.000000,-1.250000,-0.014432,-1.245311,-0.018704,-1.246104,-0.033086,-1.239250,-0.058779,-1.230902,-0.063110,-1.224941,-0.074496,-1.219515,-0.104004,-1.165211,-0.095957,-1.103934,-0.089008,-1.096606,-0.009153,-0.895280,0.045361,-0.675735,0.070003,-0.450870,0.064330,-0.224730,0.028444,-0.001384,-0.037009,0.215151,-0.130853,0.420979,-0.251397,0.612396,-0.396475,0.785958,
-0.563475,0.938544,-0.741484,1.061926,-0.751326,1.064177,-0.754372,1.067666,-0.758779,1.069098,-0.774445,1.090661,-0.791970,1.110736,-0.792383,1.115351,-0.795106,1.119098,-0.795106,1.145746,-0.797484,1.172293,-0.795106,1.176269,-0.795106,1.180902,-0.779439,1.202466,-0.765762,1.225335,-0.761502,1.227154,-0.758779,1.230902,-0.733435,1.239137,-0.708922,1.249602,-0.704405,1.248569,
-0.700000,1.250000,1.175000,1.250000,1.190063,1.245106,1.190063,1.245106,$1*%
G04 Aperture macros list end*
%ADD10R,2.550000X2.550000*%
%ADD11FreePoly0,0.000000*%
%ADD12R,2.550000X2.500000*%
%ADD13R,1.700000X0.820000*%
%ADD14Outline5P,-0.850000X0.246000X-0.686000X0.410000X0.850000X0.410000X0.850000X-0.410000X-0.850000X-0.410000X0.000000*%
%ADD15FreePoly1,0.000000*%
%ADD16FreePoly2,0.000000*%
G04 APERTURE END LIST*
D10*
%TO.C,SW46*%
X305931250Y-150081250D03*
D11*
X303671250Y-149701250D03*
D12*
X290246250Y-152241250D03*
D10*
X291181250Y-149031250D03*
D13*
X300256250Y-160231250D03*
X295056250Y-160231250D03*
X300256250Y-158731250D03*
D14*
X295056250Y-158731250D03*
%TD*%
D10*
%TO.C,SW6*%
X163056250Y-107218750D03*
D11*
X160796250Y-106838750D03*
D10*
X148306250Y-106168750D03*
D12*
X147371250Y-109378750D03*
D13*
X157381250Y-117368750D03*
X152181250Y-117368750D03*
X157381250Y-115868750D03*
D14*
X152181250Y-115868750D03*
%TD*%
D11*
%TO.C,SW49*%
X375108750Y-149701250D03*
D10*
X377318750Y-150081250D03*
X362618750Y-149031250D03*
D12*
X361683750Y-152241250D03*
D13*
X371693750Y-160231250D03*
X366493750Y-160231250D03*
X371693750Y-158731250D03*
D14*
X366493750Y-158731250D03*
%TD*%
D11*
%TO.C,SW59*%
X251283750Y-168751250D03*
D10*
X253543750Y-169131250D03*
D12*
X237858750Y-171291250D03*
D10*
X238793750Y-168081250D03*
D13*
X247868750Y-179281250D03*
X242668750Y-179281250D03*
X247868750Y-177781250D03*
D14*
X242668750Y-177781250D03*
%TD*%
D10*
%TO.C,SW42*%
X229731250Y-150081250D03*
D11*
X227471250Y-149701250D03*
D12*
X214046250Y-152241250D03*
D10*
X214981250Y-149031250D03*
D13*
X224056250Y-160231250D03*
X218856250Y-160231250D03*
X224056250Y-158731250D03*
D14*
X218856250Y-158731250D03*
%TD*%
D11*
%TO.C,SW1*%
X65546250Y-106838750D03*
D10*
X67806250Y-107218750D03*
X53056250Y-106168750D03*
D12*
X52121250Y-109378750D03*
D13*
X62131250Y-117368750D03*
X56931250Y-117368750D03*
X62131250Y-115868750D03*
D14*
X56931250Y-115868750D03*
%TD*%
D10*
%TO.C,SW66*%
X110668750Y-188181250D03*
D11*
X108408750Y-187801250D03*
D12*
X94983750Y-190341250D03*
D10*
X95918750Y-187131250D03*
D13*
X104993750Y-198331250D03*
X99793750Y-198331250D03*
X104993750Y-196831250D03*
D14*
X99793750Y-196831250D03*
%TD*%
D10*
%TO.C,SW14*%
X315456250Y-107218750D03*
D11*
X313196250Y-106838750D03*
D10*
X300706250Y-106168750D03*
D12*
X299771250Y-109378750D03*
D13*
X309781250Y-117368750D03*
X304581250Y-117368750D03*
X309781250Y-115868750D03*
D14*
X304581250Y-115868750D03*
%TD*%
D11*
%TO.C,SW21*%
X122696250Y-130651250D03*
D10*
X124956250Y-131031250D03*
D12*
X109271250Y-133191250D03*
D10*
X110206250Y-129981250D03*
D13*
X119281250Y-141181250D03*
X114081250Y-141181250D03*
X119281250Y-139681250D03*
D14*
X114081250Y-139681250D03*
%TD*%
D10*
%TO.C,SW27*%
X239256250Y-131031250D03*
D11*
X236996250Y-130651250D03*
D10*
X224506250Y-129981250D03*
D12*
X223571250Y-133191250D03*
D13*
X233581250Y-141181250D03*
X228381250Y-141181250D03*
X233581250Y-139681250D03*
D14*
X228381250Y-139681250D03*
%TD*%
D11*
%TO.C,SW28*%
X256046250Y-130651250D03*
D10*
X258306250Y-131031250D03*
X243556250Y-129981250D03*
D12*
X242621250Y-133191250D03*
D13*
X252631250Y-141181250D03*
X247431250Y-141181250D03*
X252631250Y-139681250D03*
D14*
X247431250Y-139681250D03*
%TD*%
D10*
%TO.C,SW7*%
X182106250Y-107218750D03*
D11*
X179846250Y-106838750D03*
D10*
X167356250Y-106168750D03*
D12*
X166421250Y-109378750D03*
D13*
X176431250Y-117368750D03*
X171231250Y-117368750D03*
X176431250Y-115868750D03*
D14*
X171231250Y-115868750D03*
%TD*%
D10*
%TO.C,SW2*%
X86856250Y-107218750D03*
D11*
X84596250Y-106838750D03*
D10*
X72106250Y-106168750D03*
D12*
X71171250Y-109378750D03*
D13*
X81181250Y-117368750D03*
X75981250Y-117368750D03*
X81181250Y-115868750D03*
D14*
X75981250Y-115868750D03*
%TD*%
D10*
%TO.C,SW45*%
X286881250Y-150081250D03*
D11*
X284621250Y-149701250D03*
D12*
X271196250Y-152241250D03*
D10*
X272131250Y-149031250D03*
D13*
X281206250Y-160231250D03*
X276006250Y-160231250D03*
X281206250Y-158731250D03*
D14*
X276006250Y-158731250D03*
%TD*%
D10*
%TO.C,SW91*%
X353556250Y-207231250D03*
D11*
X351296250Y-206851250D03*
D12*
X337871250Y-209391250D03*
D10*
X338806250Y-206181250D03*
D13*
X347881250Y-217381250D03*
X342681250Y-217381250D03*
X347881250Y-215881250D03*
D14*
X342681250Y-215881250D03*
%TD*%
D10*
%TO.C,SW5*%
X144006250Y-107218750D03*
D11*
X141746250Y-106838750D03*
D12*
X128321250Y-109378750D03*
D10*
X129256250Y-106168750D03*
D13*
X138331250Y-117368750D03*
X133131250Y-117368750D03*
X138331250Y-115868750D03*
D14*
X133131250Y-115868750D03*
%TD*%
D11*
%TO.C,SW11*%
X256046250Y-106838750D03*
D10*
X258306250Y-107218750D03*
X243556250Y-106168750D03*
D12*
X242621250Y-109378750D03*
D13*
X252631250Y-117368750D03*
X247431250Y-117368750D03*
X252631250Y-115868750D03*
D14*
X247431250Y-115868750D03*
%TD*%
D11*
%TO.C,SW41*%
X208421250Y-149701250D03*
D10*
X210681250Y-150081250D03*
D12*
X194996250Y-152241250D03*
D10*
X195931250Y-149031250D03*
D13*
X205006250Y-160231250D03*
X199806250Y-160231250D03*
X205006250Y-158731250D03*
D14*
X199806250Y-158731250D03*
%TD*%
D10*
%TO.C,SW22*%
X144006250Y-131031250D03*
D11*
X141746250Y-130651250D03*
D10*
X129256250Y-129981250D03*
D12*
X128321250Y-133191250D03*
D13*
X138331250Y-141181250D03*
X133131250Y-141181250D03*
X138331250Y-139681250D03*
D14*
X133131250Y-139681250D03*
%TD*%
D10*
%TO.C,SW52*%
X120193750Y-169131250D03*
D11*
X117933750Y-168751250D03*
D12*
X104508750Y-171291250D03*
D10*
X105443750Y-168081250D03*
D13*
X114518750Y-179281250D03*
X109318750Y-179281250D03*
X114518750Y-177781250D03*
D14*
X109318750Y-177781250D03*
%TD*%
D15*
%TO.C,SW50*%
X72690000Y-168751250D03*
D10*
X74950000Y-169131250D03*
X60200000Y-168081250D03*
D12*
X59265000Y-171291250D03*
D13*
X69275000Y-179281250D03*
X64075000Y-179281250D03*
X69275000Y-177781250D03*
D14*
X64075000Y-177781250D03*
%TD*%
D10*
%TO.C,SW90*%
X334506250Y-207231250D03*
D11*
X332246250Y-206851250D03*
D10*
X319756250Y-206181250D03*
D12*
X318821250Y-209391250D03*
D13*
X328831250Y-217381250D03*
X323631250Y-217381250D03*
X328831250Y-215881250D03*
D14*
X323631250Y-215881250D03*
%TD*%
D11*
%TO.C,SW19*%
X84596250Y-130651250D03*
D10*
X86856250Y-131031250D03*
X72106250Y-129981250D03*
D12*
X71171250Y-133191250D03*
D13*
X81181250Y-141181250D03*
X75981250Y-141181250D03*
X81181250Y-139681250D03*
D14*
X75981250Y-139681250D03*
%TD*%
D10*
%TO.C,SW68*%
X148768750Y-188181250D03*
D11*
X146508750Y-187801250D03*
D10*
X134018750Y-187131250D03*
D12*
X133083750Y-190341250D03*
D13*
X143093750Y-198331250D03*
X137893750Y-198331250D03*
X143093750Y-196831250D03*
D14*
X137893750Y-196831250D03*
%TD*%
D11*
%TO.C,SW8*%
X198896250Y-106838750D03*
D10*
X201156250Y-107218750D03*
X186406250Y-106168750D03*
D12*
X185471250Y-109378750D03*
D13*
X195481250Y-117368750D03*
X190281250Y-117368750D03*
X195481250Y-115868750D03*
D14*
X190281250Y-115868750D03*
%TD*%
D10*
%TO.C,SW25*%
X201156250Y-131031250D03*
D11*
X198896250Y-130651250D03*
D12*
X185471250Y-133191250D03*
D10*
X186406250Y-129981250D03*
D13*
X195481250Y-141181250D03*
X190281250Y-141181250D03*
X195481250Y-139681250D03*
D14*
X190281250Y-139681250D03*
%TD*%
D11*
%TO.C,SW53*%
X136983750Y-168751250D03*
D10*
X139243750Y-169131250D03*
D12*
X123558750Y-171291250D03*
D10*
X124493750Y-168081250D03*
D13*
X133568750Y-179281250D03*
X128368750Y-179281250D03*
X133568750Y-177781250D03*
D14*
X128368750Y-177781250D03*
%TD*%
D10*
%TO.C,SW39*%
X172581250Y-150081250D03*
D11*
X170321250Y-149701250D03*
D10*
X157831250Y-149031250D03*
D12*
X156896250Y-152241250D03*
D13*
X166906250Y-160231250D03*
X161706250Y-160231250D03*
X166906250Y-158731250D03*
D14*
X161706250Y-158731250D03*
%TD*%
D11*
%TO.C,SW83*%
X127458750Y-206851250D03*
D10*
X129718750Y-207231250D03*
X114968750Y-206181250D03*
D12*
X114033750Y-209391250D03*
D13*
X124043750Y-217381250D03*
X118843750Y-217381250D03*
X124043750Y-215881250D03*
D14*
X118843750Y-215881250D03*
%TD*%
D11*
%TO.C,SW74*%
X260808750Y-187801250D03*
D10*
X263068750Y-188181250D03*
D12*
X247383750Y-190341250D03*
D10*
X248318750Y-187131250D03*
D13*
X257393750Y-198331250D03*
X252193750Y-198331250D03*
X257393750Y-196831250D03*
D14*
X252193750Y-196831250D03*
%TD*%
D10*
%TO.C,SW36*%
X115431250Y-150081250D03*
D11*
X113171250Y-149701250D03*
D12*
X99746250Y-152241250D03*
D10*
X100681250Y-149031250D03*
D13*
X109756250Y-160231250D03*
X104556250Y-160231250D03*
X109756250Y-158731250D03*
D14*
X104556250Y-158731250D03*
%TD*%
D10*
%TO.C,SW86*%
X246400000Y-207231250D03*
D16*
X244140000Y-206851250D03*
D12*
X230715000Y-209391250D03*
D10*
X231650000Y-206181250D03*
D13*
X240725000Y-217381250D03*
X235525000Y-217381250D03*
X240725000Y-215881250D03*
D14*
X235525000Y-215881250D03*
%TD*%
D11*
%TO.C,SW32*%
X351296250Y-130651250D03*
D10*
X353556250Y-131031250D03*
D12*
X337871250Y-133191250D03*
D10*
X338806250Y-129981250D03*
D13*
X347881250Y-141181250D03*
X342681250Y-141181250D03*
X347881250Y-139681250D03*
D14*
X342681250Y-139681250D03*
%TD*%
D11*
%TO.C,SW77*%
X332246250Y-187801250D03*
D10*
X334506250Y-188181250D03*
D12*
X318821250Y-190341250D03*
D10*
X319756250Y-187131250D03*
D13*
X328831250Y-198331250D03*
X323631250Y-198331250D03*
X328831250Y-196831250D03*
D14*
X323631250Y-196831250D03*
%TD*%
D10*
%TO.C,SW76*%
X308312500Y-188181250D03*
D15*
X306052500Y-187801250D03*
D10*
X293562500Y-187131250D03*
D12*
X292627500Y-190341250D03*
D13*
X302637500Y-198331250D03*
X297437500Y-198331250D03*
X302637500Y-196831250D03*
D14*
X297437500Y-196831250D03*
%TD*%
D10*
%TO.C,SW3*%
X105906250Y-107218750D03*
D11*
X103646250Y-106838750D03*
D10*
X91156250Y-106168750D03*
D12*
X90221250Y-109378750D03*
D13*
X100231250Y-117368750D03*
X95031250Y-117368750D03*
X100231250Y-115868750D03*
D14*
X95031250Y-115868750D03*
%TD*%
D15*
%TO.C,SW34*%
X70308750Y-149701250D03*
D10*
X72568750Y-150081250D03*
X57818750Y-149031250D03*
D12*
X56883750Y-152241250D03*
D13*
X66893750Y-160231250D03*
X61693750Y-160231250D03*
X66893750Y-158731250D03*
D14*
X61693750Y-158731250D03*
%TD*%
D11*
%TO.C,SW70*%
X184608750Y-187801250D03*
D10*
X186868750Y-188181250D03*
D12*
X171183750Y-190341250D03*
D10*
X172118750Y-187131250D03*
D13*
X181193750Y-198331250D03*
X175993750Y-198331250D03*
X181193750Y-196831250D03*
D14*
X175993750Y-196831250D03*
%TD*%
D10*
%TO.C,SW56*%
X196393750Y-169131250D03*
D11*
X194133750Y-168751250D03*
D10*
X181643750Y-168081250D03*
D12*
X180708750Y-171291250D03*
D13*
X190718750Y-179281250D03*
X185518750Y-179281250D03*
X190718750Y-177781250D03*
D14*
X185518750Y-177781250D03*
%TD*%
D10*
%TO.C,SW84*%
X165437500Y-207231250D03*
D16*
X163177500Y-206851250D03*
D12*
X149752500Y-209391250D03*
D10*
X150687500Y-206181250D03*
D13*
X159762500Y-217381250D03*
X154562500Y-217381250D03*
X159762500Y-215881250D03*
D14*
X154562500Y-215881250D03*
%TD*%
D16*
%TO.C,SW65*%
X77452500Y-187801250D03*
D10*
X79712500Y-188181250D03*
X64962500Y-187131250D03*
D12*
X64027500Y-190341250D03*
D13*
X74037500Y-198331250D03*
X68837500Y-198331250D03*
X74037500Y-196831250D03*
D14*
X68837500Y-196831250D03*
%TD*%
D11*
%TO.C,SW35*%
X94121250Y-149701250D03*
D10*
X96381250Y-150081250D03*
D12*
X80696250Y-152241250D03*
D10*
X81631250Y-149031250D03*
D13*
X90706250Y-160231250D03*
X85506250Y-160231250D03*
X90706250Y-158731250D03*
D14*
X85506250Y-158731250D03*
%TD*%
D11*
%TO.C,SW75*%
X279858750Y-187801250D03*
D10*
X282118750Y-188181250D03*
X267368750Y-187131250D03*
D12*
X266433750Y-190341250D03*
D13*
X276443750Y-198331250D03*
X271243750Y-198331250D03*
X276443750Y-196831250D03*
D14*
X271243750Y-196831250D03*
%TD*%
D11*
%TO.C,SW23*%
X160796250Y-130651250D03*
D10*
X163056250Y-131031250D03*
X148306250Y-129981250D03*
D12*
X147371250Y-133191250D03*
D13*
X157381250Y-141181250D03*
X152181250Y-141181250D03*
X157381250Y-139681250D03*
D14*
X152181250Y-139681250D03*
%TD*%
D15*
%TO.C,SW47*%
X327483750Y-149701250D03*
D10*
X329743750Y-150081250D03*
D12*
X314058750Y-152241250D03*
D10*
X314993750Y-149031250D03*
D13*
X324068750Y-160231250D03*
X318868750Y-160231250D03*
X324068750Y-158731250D03*
D14*
X318868750Y-158731250D03*
%TD*%
D11*
%TO.C,SW72*%
X222708750Y-187801250D03*
D10*
X224968750Y-188181250D03*
X210218750Y-187131250D03*
D12*
X209283750Y-190341250D03*
D13*
X219293750Y-198331250D03*
X214093750Y-198331250D03*
X219293750Y-196831250D03*
D14*
X214093750Y-196831250D03*
%TD*%
D10*
%TO.C,SW60*%
X272593750Y-169131250D03*
D11*
X270333750Y-168751250D03*
D12*
X256908750Y-171291250D03*
D10*
X257843750Y-168081250D03*
D13*
X266918750Y-179281250D03*
X261718750Y-179281250D03*
X266918750Y-177781250D03*
D14*
X261718750Y-177781250D03*
%TD*%
D10*
%TO.C,SW51*%
X101143750Y-169131250D03*
D11*
X98883750Y-168751250D03*
D10*
X86393750Y-168081250D03*
D12*
X85458750Y-171291250D03*
D13*
X95468750Y-179281250D03*
X90268750Y-179281250D03*
X95468750Y-177781250D03*
D14*
X90268750Y-177781250D03*
%TD*%
D11*
%TO.C,SW57*%
X213183750Y-168751250D03*
D10*
X215443750Y-169131250D03*
X200693750Y-168081250D03*
D12*
X199758750Y-171291250D03*
D13*
X209768750Y-179281250D03*
X204568750Y-179281250D03*
X209768750Y-177781250D03*
D14*
X204568750Y-177781250D03*
%TD*%
D10*
%TO.C,SW43*%
X248781250Y-150081250D03*
D11*
X246521250Y-149701250D03*
D12*
X233096250Y-152241250D03*
D10*
X234031250Y-149031250D03*
D13*
X243106250Y-160231250D03*
X237906250Y-160231250D03*
X243106250Y-158731250D03*
D14*
X237906250Y-158731250D03*
%TD*%
D10*
%TO.C,SW24*%
X182106250Y-131031250D03*
D11*
X179846250Y-130651250D03*
D12*
X166421250Y-133191250D03*
D10*
X167356250Y-129981250D03*
D13*
X176431250Y-141181250D03*
X171231250Y-141181250D03*
X176431250Y-139681250D03*
D14*
X171231250Y-139681250D03*
%TD*%
D10*
%TO.C,SW44*%
X267831250Y-150081250D03*
D11*
X265571250Y-149701250D03*
D12*
X252146250Y-152241250D03*
D10*
X253081250Y-149031250D03*
D13*
X262156250Y-160231250D03*
X256956250Y-160231250D03*
X262156250Y-158731250D03*
D14*
X256956250Y-158731250D03*
%TD*%
D11*
%TO.C,SW38*%
X151271250Y-149701250D03*
D10*
X153531250Y-150081250D03*
D12*
X137846250Y-152241250D03*
D10*
X138781250Y-149031250D03*
D13*
X147856250Y-160231250D03*
X142656250Y-160231250D03*
X147856250Y-158731250D03*
D14*
X142656250Y-158731250D03*
%TD*%
D10*
%TO.C,SW33*%
X377318750Y-131031250D03*
D11*
X375108750Y-130651250D03*
D12*
X361683750Y-133191250D03*
D10*
X362618750Y-129981250D03*
D13*
X371693750Y-141181250D03*
X366493750Y-141181250D03*
X371693750Y-139681250D03*
D14*
X366493750Y-139681250D03*
%TD*%
D10*
%TO.C,SW73*%
X244018750Y-188181250D03*
D11*
X241758750Y-187801250D03*
D12*
X228333750Y-190341250D03*
D10*
X229268750Y-187131250D03*
D13*
X238343750Y-198331250D03*
X233143750Y-198331250D03*
X238343750Y-196831250D03*
D14*
X233143750Y-196831250D03*
%TD*%
D10*
%TO.C,SW30*%
X296406250Y-131031250D03*
D11*
X294146250Y-130651250D03*
D12*
X280721250Y-133191250D03*
D10*
X281656250Y-129981250D03*
D13*
X290731250Y-141181250D03*
X285531250Y-141181250D03*
X290731250Y-139681250D03*
D14*
X285531250Y-139681250D03*
%TD*%
D11*
%TO.C,SW89*%
X313196250Y-206851250D03*
D10*
X315456250Y-207231250D03*
D12*
X299771250Y-209391250D03*
D10*
X300706250Y-206181250D03*
D13*
X309781250Y-217381250D03*
X304581250Y-217381250D03*
X309781250Y-215881250D03*
D14*
X304581250Y-215881250D03*
%TD*%
D11*
%TO.C,SW61*%
X289383750Y-168751250D03*
D10*
X291643750Y-169131250D03*
X276893750Y-168081250D03*
D12*
X275958750Y-171291250D03*
D13*
X285968750Y-179281250D03*
X280768750Y-179281250D03*
X285968750Y-177781250D03*
D14*
X280768750Y-177781250D03*
%TD*%
D16*
%TO.C,SW87*%
X267952500Y-206851250D03*
D10*
X270212500Y-207231250D03*
D12*
X254527500Y-209391250D03*
D10*
X255462500Y-206181250D03*
D13*
X264537500Y-217381250D03*
X259337500Y-217381250D03*
X264537500Y-215881250D03*
D14*
X259337500Y-215881250D03*
%TD*%
D16*
%TO.C,SW31*%
X322721250Y-130651250D03*
D10*
X324981250Y-131031250D03*
D12*
X309296250Y-133191250D03*
D10*
X310231250Y-129981250D03*
D13*
X319306250Y-141181250D03*
X314106250Y-141181250D03*
X319306250Y-139681250D03*
D14*
X314106250Y-139681250D03*
%TD*%
D10*
%TO.C,SW10*%
X239256250Y-107218750D03*
D11*
X236996250Y-106838750D03*
D12*
X223571250Y-109378750D03*
D10*
X224506250Y-106168750D03*
D13*
X233581250Y-117368750D03*
X228381250Y-117368750D03*
X233581250Y-115868750D03*
D14*
X228381250Y-115868750D03*
%TD*%
D10*
%TO.C,SW15*%
X334506250Y-107218750D03*
D11*
X332246250Y-106838750D03*
D10*
X319756250Y-106168750D03*
D12*
X318821250Y-109378750D03*
D13*
X328831250Y-117368750D03*
X323631250Y-117368750D03*
X328831250Y-115868750D03*
D14*
X323631250Y-115868750D03*
%TD*%
D11*
%TO.C,SW48*%
X351296250Y-149701250D03*
D10*
X353556250Y-150081250D03*
X338806250Y-149031250D03*
D12*
X337871250Y-152241250D03*
D13*
X347881250Y-160231250D03*
X342681250Y-160231250D03*
X347881250Y-158731250D03*
D14*
X342681250Y-158731250D03*
%TD*%
D11*
%TO.C,SW12*%
X275096250Y-106838750D03*
D10*
X277356250Y-107218750D03*
X262606250Y-106168750D03*
D12*
X261671250Y-109378750D03*
D13*
X271681250Y-117368750D03*
X266481250Y-117368750D03*
X271681250Y-115868750D03*
D14*
X266481250Y-115868750D03*
%TD*%
D10*
%TO.C,SW40*%
X191631250Y-150081250D03*
D11*
X189371250Y-149701250D03*
D12*
X175946250Y-152241250D03*
D10*
X176881250Y-149031250D03*
D13*
X185956250Y-160231250D03*
X180756250Y-160231250D03*
X185956250Y-158731250D03*
D14*
X180756250Y-158731250D03*
%TD*%
D16*
%TO.C,SW80*%
X67927500Y-206851250D03*
D10*
X70187500Y-207231250D03*
X55437500Y-206181250D03*
D12*
X54502500Y-209391250D03*
D13*
X64512500Y-217381250D03*
X59312500Y-217381250D03*
X64512500Y-215881250D03*
D14*
X59312500Y-215881250D03*
%TD*%
D10*
%TO.C,SW69*%
X167818750Y-188181250D03*
D11*
X165558750Y-187801250D03*
D12*
X152133750Y-190341250D03*
D10*
X153068750Y-187131250D03*
D13*
X162143750Y-198331250D03*
X156943750Y-198331250D03*
X162143750Y-196831250D03*
D14*
X156943750Y-196831250D03*
%TD*%
D11*
%TO.C,SW29*%
X275096250Y-130651250D03*
D10*
X277356250Y-131031250D03*
X262606250Y-129981250D03*
D12*
X261671250Y-133191250D03*
D13*
X271681250Y-141181250D03*
X266481250Y-141181250D03*
X271681250Y-139681250D03*
D14*
X266481250Y-139681250D03*
%TD*%
D11*
%TO.C,SW67*%
X127458750Y-187801250D03*
D10*
X129718750Y-188181250D03*
D12*
X114033750Y-190341250D03*
D10*
X114968750Y-187131250D03*
D13*
X124043750Y-198331250D03*
X118843750Y-198331250D03*
X124043750Y-196831250D03*
D14*
X118843750Y-196831250D03*
%TD*%
D10*
%TO.C,SW13*%
X296406250Y-107218750D03*
D11*
X294146250Y-106838750D03*
D10*
X281656250Y-106168750D03*
D12*
X280721250Y-109378750D03*
D13*
X290731250Y-117368750D03*
X285531250Y-117368750D03*
X290731250Y-115868750D03*
D14*
X285531250Y-115868750D03*
%TD*%
D11*
%TO.C,SW18*%
X65546250Y-130651250D03*
D10*
X67806250Y-131031250D03*
D12*
X52121250Y-133191250D03*
D10*
X53056250Y-129981250D03*
D13*
X62131250Y-141181250D03*
X56931250Y-141181250D03*
X62131250Y-139681250D03*
D14*
X56931250Y-139681250D03*
%TD*%
D10*
%TO.C,SW4*%
X124956250Y-107218750D03*
D11*
X122696250Y-106838750D03*
D12*
X109271250Y-109378750D03*
D10*
X110206250Y-106168750D03*
D13*
X119281250Y-117368750D03*
X114081250Y-117368750D03*
X119281250Y-115868750D03*
D14*
X114081250Y-115868750D03*
%TD*%
D10*
%TO.C,SW62*%
X322600000Y-169131250D03*
D16*
X320340000Y-168751250D03*
D12*
X306915000Y-171291250D03*
D10*
X307850000Y-168081250D03*
D13*
X316925000Y-179281250D03*
X311725000Y-179281250D03*
X316925000Y-177781250D03*
D14*
X311725000Y-177781250D03*
%TD*%
D11*
%TO.C,SW81*%
X89358750Y-206851250D03*
D10*
X91618750Y-207231250D03*
X76868750Y-206181250D03*
D12*
X75933750Y-209391250D03*
D13*
X85943750Y-217381250D03*
X80743750Y-217381250D03*
X85943750Y-215881250D03*
D14*
X80743750Y-215881250D03*
%TD*%
D11*
%TO.C,SW79*%
X375108750Y-187801250D03*
D10*
X377318750Y-188181250D03*
D12*
X361683750Y-190341250D03*
D10*
X362618750Y-187131250D03*
D13*
X371693750Y-198331250D03*
X366493750Y-198331250D03*
X371693750Y-196831250D03*
D14*
X366493750Y-196831250D03*
%TD*%
D10*
%TO.C,SW82*%
X110668750Y-207231250D03*
D11*
X108408750Y-206851250D03*
D12*
X94983750Y-209391250D03*
D10*
X95918750Y-206181250D03*
D13*
X104993750Y-217381250D03*
X99793750Y-217381250D03*
X104993750Y-215881250D03*
D14*
X99793750Y-215881250D03*
%TD*%
D11*
%TO.C,SW26*%
X217946250Y-130651250D03*
D10*
X220206250Y-131031250D03*
X205456250Y-129981250D03*
D12*
X204521250Y-133191250D03*
D13*
X214531250Y-141181250D03*
X209331250Y-141181250D03*
X214531250Y-139681250D03*
D14*
X209331250Y-139681250D03*
%TD*%
D16*
%TO.C,SW85*%
X210802500Y-206851250D03*
D10*
X213062500Y-207231250D03*
D12*
X197377500Y-209391250D03*
D10*
X198312500Y-206181250D03*
D13*
X207387500Y-217381250D03*
X202187500Y-217381250D03*
X207387500Y-215881250D03*
D14*
X202187500Y-215881250D03*
%TD*%
D10*
%TO.C,SW63*%
X353556250Y-169131250D03*
D11*
X351296250Y-168751250D03*
D10*
X338806250Y-168081250D03*
D12*
X337871250Y-171291250D03*
D13*
X347881250Y-179281250D03*
X342681250Y-179281250D03*
X347881250Y-177781250D03*
D14*
X342681250Y-177781250D03*
%TD*%
D10*
%TO.C,SW64*%
X377318750Y-169131250D03*
D11*
X375108750Y-168751250D03*
D12*
X361683750Y-171291250D03*
D10*
X362618750Y-168081250D03*
D13*
X371693750Y-179281250D03*
X366493750Y-179281250D03*
X371693750Y-177781250D03*
D14*
X366493750Y-177781250D03*
%TD*%
D10*
%TO.C,SW88*%
X294025000Y-207231250D03*
D16*
X291765000Y-206851250D03*
D12*
X278340000Y-209391250D03*
D10*
X279275000Y-206181250D03*
D13*
X288350000Y-217381250D03*
X283150000Y-217381250D03*
X288350000Y-215881250D03*
D14*
X283150000Y-215881250D03*
%TD*%
D11*
%TO.C,SW37*%
X132221250Y-149701250D03*
D10*
X134481250Y-150081250D03*
D12*
X118796250Y-152241250D03*
D10*
X119731250Y-149031250D03*
D13*
X128806250Y-160231250D03*
X123606250Y-160231250D03*
X128806250Y-158731250D03*
D14*
X123606250Y-158731250D03*
%TD*%
D11*
%TO.C,SW54*%
X156033750Y-168751250D03*
D10*
X158293750Y-169131250D03*
X143543750Y-168081250D03*
D12*
X142608750Y-171291250D03*
D13*
X152618750Y-179281250D03*
X147418750Y-179281250D03*
X152618750Y-177781250D03*
D14*
X147418750Y-177781250D03*
%TD*%
D10*
%TO.C,SW20*%
X105906250Y-131031250D03*
D11*
X103646250Y-130651250D03*
D10*
X91156250Y-129981250D03*
D12*
X90221250Y-133191250D03*
D13*
X100231250Y-141181250D03*
X95031250Y-141181250D03*
X100231250Y-139681250D03*
D14*
X95031250Y-139681250D03*
%TD*%
D10*
%TO.C,SW9*%
X220206250Y-107218750D03*
D11*
X217946250Y-106838750D03*
D10*
X205456250Y-106168750D03*
D12*
X204521250Y-109378750D03*
D13*
X214531250Y-117368750D03*
X209331250Y-117368750D03*
X214531250Y-115868750D03*
D14*
X209331250Y-115868750D03*
%TD*%
D11*
%TO.C,SW58*%
X232233750Y-168751250D03*
D10*
X234493750Y-169131250D03*
D12*
X218808750Y-171291250D03*
D10*
X219743750Y-168081250D03*
D13*
X228818750Y-179281250D03*
X223618750Y-179281250D03*
X228818750Y-177781250D03*
D14*
X223618750Y-177781250D03*
%TD*%
D10*
%TO.C,SW92*%
X377318750Y-207231250D03*
D11*
X375108750Y-206851250D03*
D12*
X361683750Y-209391250D03*
D10*
X362618750Y-206181250D03*
D13*
X371693750Y-217381250D03*
X366493750Y-217381250D03*
X371693750Y-215881250D03*
D14*
X366493750Y-215881250D03*
%TD*%
D10*
%TO.C,SW78*%
X353556250Y-188181250D03*
D11*
X351296250Y-187801250D03*
D10*
X338806250Y-187131250D03*
D12*
X337871250Y-190341250D03*
D13*
X347881250Y-198331250D03*
X342681250Y-198331250D03*
X347881250Y-196831250D03*
D14*
X342681250Y-196831250D03*
%TD*%
D11*
%TO.C,SW55*%
X175083750Y-168751250D03*
D10*
X177343750Y-169131250D03*
D12*
X161658750Y-171291250D03*
D10*
X162593750Y-168081250D03*
D13*
X171668750Y-179281250D03*
X166468750Y-179281250D03*
X171668750Y-177781250D03*
D14*
X166468750Y-177781250D03*
%TD*%
D10*
%TO.C,SW16*%
X353556250Y-107218750D03*
D11*
X351296250Y-106838750D03*
D10*
X338806250Y-106168750D03*
D12*
X337871250Y-109378750D03*
D13*
X347881250Y-117368750D03*
X342681250Y-117368750D03*
X347881250Y-115868750D03*
D14*
X342681250Y-115868750D03*
%TD*%
D10*
%TO.C,SW71*%
X205918750Y-188181250D03*
D11*
X203658750Y-187801250D03*
D10*
X191168750Y-187131250D03*
D12*
X190233750Y-190341250D03*
D13*
X200243750Y-198331250D03*
X195043750Y-198331250D03*
X200243750Y-196831250D03*
D14*
X195043750Y-196831250D03*
%TD*%
M02*
