M48
; DRILL file {KiCad (6.0.2)} date Sun Aug 21 18:03:39 2022
; FORMAT={-:-/ absolute / inch / decimal}
; #@! TF.CreationDate,2022-08-21T18:03:39-07:00
; #@! TF.GenerationSoftware,Kicad,Pcbnew,(6.0.2)
; #@! TF.FileFunction,MixedPlating,1,2
FMAT,2
INCH
; #@! TA.AperFunction,Plated,PTH,ViaDrill
T1C0.0157
; #@! TA.AperFunction,Plated,PTH,ComponentDrill
T2C0.0394
; #@! TA.AperFunction,Plated,PTH,ComponentDrill
T3C0.0433
; #@! TA.AperFunction,Plated,PTH,ComponentDrill
T4C0.0591
; #@! TA.AperFunction,NonPlated,NPTH,ComponentDrill
T5C0.0689
; #@! TA.AperFunction,NonPlated,NPTH,ComponentDrill
T6C0.1181
; #@! TA.AperFunction,NonPlated,NPTH,ComponentDrill
T7C0.1260
; #@! TA.AperFunction,NonPlated,NPTH,ComponentDrill
T8C0.2008
%
G90
G05
T1
X2.0391Y-3.3047
X2.0625Y-8.625
X2.1328Y-4.6172
X2.1328Y-4.6875
X2.1328Y-5.5547
X2.1328Y-5.625
X2.1328Y-5.8828
X2.1328Y-6.4453
X2.1328Y-7.1953
X2.1328Y-7.9219
X2.1563Y-4.5469
X2.1563Y-5.4844
X2.2266Y-8.5547
X2.2266Y-8.625
X2.2734Y-5.6953
X2.3203Y-6.3047
X2.3203Y-6.375
X2.3438Y-4.1484
X2.3438Y-6.2344
X2.3672Y-6.4453
X2.4141Y-7.0547
X2.4141Y-7.125
X2.4375Y-3.5625
X2.4375Y-6.9844
X2.4375Y-8.0625
X2.5313Y-5.8125
X2.5547Y-7.1953
X2.6016Y-7.8047
X2.6016Y-7.875
X2.625Y-7.7344
X2.6484Y-3.3047
X2.7891Y-4.6641
X2.7891Y-4.8516
X2.7891Y-5.6016
X2.7891Y-5.7891
X2.8359Y-4.5
X2.8359Y-4.6641
X2.8359Y-5.4375
X2.8359Y-5.6016
X2.9063Y-4.5469
X2.9063Y-5.4844
X2.9766Y-4.9688
X3.0Y-6.0234
X3.0586Y-3.5625
X3.0703Y-6.7734
X3.1641Y-6.3516
X3.1641Y-6.5391
X3.2109Y-6.1875
X3.2109Y-6.3516
X3.2344Y-4.6641
X3.2344Y-4.8516
X3.2344Y-5.6016
X3.2344Y-5.7891
X3.2813Y-4.6641
X3.2813Y-4.8516
X3.2813Y-5.6016
X3.2813Y-5.7891
X3.2813Y-6.9375
X3.2813Y-8.0859
X3.3047Y-7.3125
X3.3281Y-4.6641
X3.3281Y-4.8516
X3.3281Y-5.6016
X3.3281Y-5.7605
X3.375Y-4.6641
X3.375Y-4.8516
X3.375Y-5.6016
X3.3984Y-6.9375
X3.3984Y-7.1016
X3.4219Y-3.5625
X3.4453Y-7.3125
X3.4453Y-7.8516
X3.4688Y-4.9688
X3.4922Y-4.125
X3.5391Y-7.8984
X3.5625Y-3.3332
X3.5859Y-4.5
X3.5859Y-4.6641
X3.5859Y-5.4375
X3.5859Y-5.6016
X3.5859Y-7.3125
X3.6094Y-6.3516
X3.6094Y-6.5391
X3.6563Y-6.3516
X3.6563Y-6.5391
X3.7734Y-7.6875
X3.7734Y-7.8516
X3.7969Y-7.1016
X3.7969Y-7.2632
X3.8426Y-7.2632
X3.8438Y-4.125
X3.8438Y-5.0625
X3.8438Y-7.1016
X3.9609Y-6.1875
X3.9609Y-6.3516
X4.0078Y-6.5625
X4.0313Y-6.2344
X4.0313Y-8.0859
X4.0781Y-3.3281
X4.1484Y-6.9375
X4.1484Y-7.1016
X4.1719Y-7.8516
X4.1719Y-8.0391
X4.2188Y-5.8125
X4.3359Y-4.5
X4.3359Y-4.6641
X4.3359Y-5.4375
X4.3359Y-5.6016
X4.3828Y-7.2891
X4.4063Y-6.5625
X4.5234Y-7.6875
X4.5234Y-7.8516
X4.5938Y-4.125
X4.5938Y-5.0625
X4.5938Y-7.7344
X4.7109Y-6.1875
X4.7109Y-6.3516
X4.7813Y-7.3125
X4.7813Y-8.0625
X4.8984Y-6.9375
X4.8984Y-7.1016
X4.9688Y-5.8125
X5.0859Y-4.5
X5.0859Y-4.6641
X5.0859Y-5.4375
X5.0859Y-5.6016
X5.1563Y-6.5625
X5.3438Y-4.125
X5.3438Y-5.0625
X5.4609Y-6.1875
X5.4609Y-6.3516
X5.5313Y-7.3125
X5.6484Y-7.1016
X5.6484Y-6.9375
X5.7188Y-5.8125
X5.8359Y-5.4375
X5.8359Y-4.5
X5.8359Y-4.6641
X5.8359Y-5.6016
X5.9063Y-6.5625
X6.0234Y-7.6875
X6.0234Y-7.8516
X6.0938Y-4.125
X6.0938Y-5.0625
X6.1875Y-8.0625
X6.2109Y-6.1875
X6.2109Y-6.3516
X6.2813Y-7.3125
X6.3984Y-7.1016
X6.3984Y-6.9375
X6.4688Y-5.8125
X6.5859Y-4.6641
X6.5859Y-4.5
X6.5859Y-5.4375
X6.5859Y-5.6016
X6.6563Y-6.5625
X6.8438Y-4.125
X6.8438Y-5.0625
X6.9609Y-6.1875
X6.9609Y-6.3516
X7.0313Y-7.3125
X7.1484Y-7.1016
X7.1484Y-6.9375
X7.2188Y-5.8125
X7.3359Y-5.4375
X7.3359Y-4.5
X7.3359Y-4.6641
X7.3359Y-5.6016
X7.4063Y-6.5625
X7.5234Y-7.6875
X7.5234Y-7.8516
X7.5938Y-4.125
X7.5938Y-5.0625
X7.7109Y-6.1875
X7.7109Y-6.3516
X7.7813Y-7.3125
X7.8984Y-7.1016
X7.8984Y-6.9375
X7.9688Y-5.8125
X8.0625Y-8.0625
X8.0859Y-4.5
X8.0859Y-4.6641
X8.0859Y-5.4375
X8.0859Y-5.6016
X8.1563Y-6.5625
X8.3438Y-4.125
X8.3438Y-5.0625
X8.4609Y-6.1875
X8.4609Y-6.3516
X8.5313Y-7.3125
X8.6484Y-7.1016
X8.6484Y-6.9375
X8.7188Y-5.8125
X8.8359Y-5.4375
X8.8359Y-4.5
X8.8359Y-4.6641
X8.8359Y-5.6016
X8.9063Y-6.5625
X9.0234Y-7.6875
X9.0234Y-7.8516
X9.0938Y-4.125
X9.0938Y-5.0625
X9.2109Y-6.1875
X9.2109Y-6.3516
X9.2813Y-7.3125
X9.375Y-8.0625
X9.3984Y-7.1016
X9.3984Y-6.9375
X9.4688Y-5.8125
X9.5859Y-4.5
X9.5859Y-5.4375
X9.5859Y-4.6641
X9.5859Y-5.6016
X9.6563Y-6.5625
X9.7734Y-7.6875
X9.7734Y-7.8516
X9.8438Y-4.125
X9.8438Y-5.0625
X9.9609Y-6.1875
X9.9609Y-6.3516
X10.0313Y-7.3125
X10.1484Y-7.1016
X10.1484Y-6.9375
X10.2188Y-5.8125
X10.3125Y-8.0625
X10.3359Y-5.4375
X10.3359Y-4.5
X10.3359Y-4.6641
X10.3359Y-5.6016
X10.4063Y-6.5625
X10.5938Y-4.125
X10.5938Y-5.0625
X10.7109Y-6.1875
X10.7109Y-6.3516
X10.7813Y-7.3125
X10.8984Y-7.1016
X10.8984Y-6.9375
X10.9688Y-5.8125
X11.0859Y-4.5
X11.0859Y-4.6641
X11.0859Y-5.4375
X11.0859Y-5.6016
X11.1563Y-6.5625
X11.25Y-8.0625
X11.3438Y-4.125
X11.3438Y-5.0625
X11.4141Y-6.5625
X11.4141Y-7.1016
X11.4141Y-7.6875
X11.4141Y-7.8516
X11.4609Y-6.1875
X11.4609Y-6.3516
X11.5547Y-7.6875
X11.5547Y-7.8516
X11.6719Y-5.7656
X11.8125Y-7.3125
X11.8359Y-4.5
X11.8359Y-4.6641
X11.8359Y-5.4375
X11.8359Y-5.6016
X12.0Y-5.0625
X12.0234Y-5.7891
X12.0234Y-6.3516
X12.0703Y-6.9375
X12.0703Y-7.1016
X12.0938Y-4.125
X12.0938Y-8.0625
X12.1875Y-6.5156
X12.2109Y-5.4375
X12.2109Y-5.6016
X12.375Y-6.1875
X12.375Y-6.3516
X12.4688Y-5.0625
X12.5859Y-4.5
X12.5859Y-4.6641
X12.5859Y-7.6875
X12.5859Y-7.8516
X12.6328Y-6.5391
X12.6328Y-7.1016
X12.7031Y-5.8125
X12.8438Y-4.125
X12.8438Y-7.3125
X12.8438Y-8.0625
X12.9141Y-6.5625
X13.3359Y-4.5
X13.3359Y-4.6641
X13.3359Y-5.4375
X13.3359Y-5.6016
X13.3359Y-6.1875
X13.3359Y-6.3516
X13.3359Y-6.9375
X13.3359Y-7.1016
X13.3359Y-7.6875
X13.3359Y-7.8516
X13.5938Y-4.125
X13.5938Y-5.0625
X13.5938Y-5.8125
X13.5938Y-6.5625
X13.5938Y-7.3125
X13.5938Y-8.0625
X13.6406Y-4.7813
X14.0625Y-5.7188
X14.0625Y-6.4688
X14.0625Y-7.2188
X14.0625Y-7.9688
X14.2734Y-5.4375
X14.2734Y-5.7707
X14.2734Y-6.1875
X14.2734Y-6.5207
X14.2734Y-6.9375
X14.2734Y-7.2656
X14.2734Y-7.6875
X14.2734Y-8.0156
X14.4375Y-4.9922
X14.5313Y-5.0625
X14.5313Y-5.8125
X14.5313Y-6.5625
X14.5313Y-7.3125
X14.7656Y-8.5781
T2
X2.1085Y-3.2171
X2.1085Y-3.9086
X2.2085Y-3.2171
X2.2085Y-3.9086
X2.3085Y-3.2171
X2.3085Y-3.9086
X2.4085Y-3.2171
X2.4085Y-3.9086
X2.5085Y-3.2171
X2.5085Y-3.9086
X2.6085Y-3.2171
X2.6085Y-3.9086
X2.7085Y-3.2171
X2.7085Y-3.9086
X2.7188Y-4.4875
X2.7188Y-4.6875
X2.7188Y-5.425
X2.7188Y-5.625
X2.8085Y-3.2171
X2.8085Y-3.9086
X2.9062Y-6.175
X2.9062Y-6.375
X2.9062Y-8.425
X2.9062Y-8.625
X2.9085Y-3.2171
X2.9085Y-3.9086
X3.0Y-6.925
X3.0Y-7.125
X3.0085Y-3.2171
X3.0085Y-3.9086
X3.1085Y-3.2171
X3.1085Y-3.9086
X3.2085Y-3.2171
X3.2085Y-3.9086
X3.3085Y-3.2171
X3.3085Y-3.9086
X3.4085Y-3.2171
X3.4085Y-3.9086
X3.4688Y-4.4875
X3.4688Y-4.6875
X3.4688Y-5.425
X3.4688Y-5.625
X3.5085Y-3.2171
X3.5085Y-3.9086
X3.6085Y-3.2171
X3.6085Y-3.9086
X3.6562Y-7.675
X3.6562Y-7.875
X3.6562Y-8.425
X3.6562Y-8.625
X3.7085Y-3.2171
X3.7085Y-3.9086
X3.8085Y-3.2171
X3.8085Y-3.9086
X3.8438Y-6.175
X3.8438Y-6.375
X3.9085Y-3.2171
X3.9085Y-3.9086
X4.0085Y-3.2171
X4.0085Y-3.9086
X4.0312Y-6.925
X4.0312Y-7.125
X4.2188Y-4.4875
X4.2188Y-4.6875
X4.2188Y-5.425
X4.2188Y-5.625
X4.3303Y-3.5472
X4.4062Y-7.675
X4.4062Y-7.875
X4.4062Y-8.425
X4.4062Y-8.625
X4.4303Y-3.5472
X4.5303Y-3.5472
X4.5938Y-6.175
X4.5938Y-6.375
X4.7812Y-6.925
X4.7812Y-7.125
X4.9688Y-4.4875
X4.9688Y-4.6875
X4.9688Y-5.425
X4.9688Y-5.625
X5.1562Y-7.675
X5.1562Y-7.875
X5.1562Y-8.425
X5.1562Y-8.625
X5.3438Y-6.175
X5.3438Y-6.375
X5.5312Y-6.925
X5.5312Y-7.125
X5.7188Y-4.4875
X5.7188Y-4.6875
X5.7188Y-5.425
X5.7188Y-5.625
X5.9062Y-7.675
X5.9062Y-7.875
X6.0938Y-6.175
X6.0938Y-6.375
X6.2812Y-6.925
X6.2812Y-7.125
X6.4688Y-4.4875
X6.4688Y-4.6875
X6.4688Y-5.425
X6.4688Y-5.625
X6.6562Y-7.675
X6.6562Y-7.875
X6.8438Y-6.175
X6.8438Y-6.375
X7.0312Y-6.925
X7.0312Y-7.125
X7.2188Y-4.4875
X7.2188Y-4.6875
X7.2188Y-5.425
X7.2188Y-5.625
X7.2188Y-8.425
X7.2188Y-8.625
X7.4062Y-7.675
X7.4062Y-7.875
X7.5938Y-6.175
X7.5938Y-6.375
X7.7812Y-6.925
X7.7812Y-7.125
X7.9688Y-4.4875
X7.9688Y-4.6875
X7.9688Y-5.425
X7.9688Y-5.625
X8.1562Y-7.675
X8.1562Y-7.875
X8.3438Y-6.175
X8.3438Y-6.375
X8.5312Y-6.925
X8.5312Y-7.125
X8.7188Y-4.4875
X8.7188Y-4.6875
X8.7188Y-5.425
X8.7188Y-5.625
X8.9062Y-7.675
X8.9062Y-7.875
X8.9062Y-8.425
X8.9062Y-8.625
X9.0938Y-6.175
X9.0938Y-6.375
X9.2812Y-6.925
X9.2812Y-7.125
X9.4688Y-4.4875
X9.4688Y-4.6875
X9.4688Y-5.425
X9.4688Y-5.625
X9.6562Y-7.675
X9.6562Y-7.875
X9.75Y-8.425
X9.75Y-8.625
X9.8438Y-6.175
X9.8438Y-6.375
X10.0312Y-6.925
X10.0312Y-7.125
X10.2188Y-4.4875
X10.2188Y-4.6875
X10.2188Y-5.425
X10.2188Y-5.625
X10.4062Y-7.675
X10.4062Y-7.875
X10.5938Y-6.175
X10.5938Y-6.375
X10.6875Y-8.425
X10.6875Y-8.625
X10.7812Y-6.925
X10.7812Y-7.125
X10.9688Y-4.4875
X10.9688Y-4.6875
X10.9688Y-5.425
X10.9688Y-5.625
X11.1562Y-7.675
X11.1562Y-7.875
X11.3438Y-6.175
X11.3438Y-6.375
X11.5312Y-6.925
X11.5312Y-7.125
X11.625Y-8.425
X11.625Y-8.625
X11.7188Y-4.4875
X11.7188Y-4.6875
X11.7188Y-5.425
X11.7188Y-5.625
X12.1875Y-6.175
X12.1875Y-6.375
X12.4688Y-4.4875
X12.4688Y-4.6875
X12.4688Y-7.675
X12.4688Y-7.875
X12.4688Y-8.425
X12.4688Y-8.625
X13.2188Y-4.4875
X13.2188Y-4.6875
X13.2188Y-5.425
X13.2188Y-5.625
X13.2188Y-6.175
X13.2188Y-6.375
X13.2188Y-6.925
X13.2188Y-7.125
X13.2188Y-7.675
X13.2188Y-7.875
X13.2188Y-8.425
X13.2188Y-8.625
X13.9688Y-4.4875
X13.9688Y-4.6875
X13.9688Y-5.425
X13.9688Y-5.625
X13.9688Y-6.175
X13.9688Y-6.375
X13.9688Y-6.925
X13.9688Y-7.125
X13.9688Y-7.675
X13.9688Y-7.875
X13.9688Y-8.425
X13.9688Y-8.625
X14.1562Y-5.425
X14.1562Y-5.625
X14.1562Y-6.175
X14.1562Y-6.375
X14.1562Y-6.925
X14.1562Y-7.125
X14.1562Y-7.675
X14.1562Y-7.875
X14.1562Y-8.425
X14.1562Y-8.625
X14.1563Y-4.4875
X14.1563Y-4.6875
X14.4328Y-4.111
X14.4328Y-4.6818
X14.5312Y-4.111
X14.6297Y-4.111
X14.6297Y-4.6818
T3
X14.4427Y-4.2783
X14.4427Y-4.5342
X14.6198Y-4.2783
X14.6198Y-4.5342
T5
X2.1437Y-4.4062
X2.1437Y-5.3438
X2.2375Y-8.3441
X2.3312Y-6.0941
X2.425Y-6.8441
X2.5437Y-4.4062
X2.5437Y-5.3438
X2.6125Y-7.5941
X2.6375Y-8.3441
X2.7312Y-6.0941
X2.825Y-6.8441
X2.8937Y-4.4062
X2.8937Y-5.3438
X3.0125Y-7.5941
X3.0812Y-8.3438
X3.2687Y-6.0938
X3.2937Y-4.4062
X3.2937Y-5.3438
X3.4562Y-6.8438
X3.4812Y-8.3438
X3.6437Y-4.4062
X3.6437Y-5.3438
X3.6687Y-6.0938
X3.8312Y-7.5938
X3.8312Y-8.3438
X3.8562Y-6.8438
X4.0187Y-6.0938
X4.0438Y-4.4062
X4.0438Y-5.3438
X4.2062Y-6.8438
X4.2313Y-7.5938
X4.2313Y-8.3438
X4.3937Y-4.4062
X4.3937Y-5.3438
X4.4188Y-6.0938
X4.5812Y-7.5938
X4.5812Y-8.3438
X4.6063Y-6.8438
X4.7687Y-6.0938
X4.7938Y-4.4062
X4.7938Y-5.3438
X4.9562Y-6.8438
X4.9813Y-7.5938
X4.9813Y-8.3438
X5.1437Y-4.4062
X5.1437Y-5.3438
X5.1688Y-6.0938
X5.3312Y-7.5938
X5.3563Y-6.8438
X5.5187Y-6.0938
X5.5438Y-4.4062
X5.5438Y-5.3438
X5.7062Y-6.8438
X5.7313Y-7.5938
X5.8937Y-4.4062
X5.8937Y-5.3438
X5.9188Y-6.0938
X5.9875Y-8.3441
X6.0812Y-7.5938
X6.1063Y-6.8438
X6.2687Y-6.0938
X6.2938Y-4.4062
X6.2938Y-5.3438
X6.3875Y-8.3441
X6.4562Y-6.8438
X6.4813Y-7.5938
X6.6437Y-4.4062
X6.6437Y-5.3438
X6.6688Y-6.0938
X6.8312Y-7.5938
X6.8563Y-6.8438
X7.0187Y-6.0938
X7.0438Y-4.4062
X7.0438Y-5.3438
X7.2062Y-6.8438
X7.2313Y-7.5938
X7.3937Y-4.4062
X7.3937Y-5.3438
X7.4188Y-6.0938
X7.5812Y-7.5938
X7.6063Y-6.8438
X7.7687Y-6.0938
X7.7938Y-4.4062
X7.7938Y-5.3438
X7.8625Y-8.3441
X7.9562Y-6.8438
X7.9813Y-7.5938
X8.1437Y-4.4062
X8.1437Y-5.3438
X8.1687Y-6.0938
X8.2625Y-8.3441
X8.3312Y-7.5938
X8.3562Y-6.8438
X8.5187Y-6.0938
X8.5437Y-4.4062
X8.5437Y-5.3438
X8.7062Y-6.8438
X8.7312Y-7.5938
X8.8937Y-4.4062
X8.8937Y-5.3438
X8.9187Y-6.0938
X9.0812Y-7.5938
X9.1062Y-6.8438
X9.175Y-8.3441
X9.2687Y-6.0938
X9.2937Y-4.4062
X9.2937Y-5.3438
X9.4562Y-6.8438
X9.4812Y-7.5938
X9.575Y-8.3441
X9.6437Y-4.4062
X9.6437Y-5.3438
X9.6687Y-6.0938
X9.8312Y-7.5938
X9.8562Y-6.8438
X10.0187Y-6.0938
X10.0437Y-4.4062
X10.0437Y-5.3438
X10.1125Y-8.3441
X10.2062Y-6.8438
X10.2312Y-7.5938
X10.3937Y-4.4062
X10.3937Y-5.3438
X10.4187Y-6.0938
X10.5125Y-8.3441
X10.5812Y-7.5938
X10.6062Y-6.8438
X10.7687Y-6.0938
X10.7937Y-4.4062
X10.7937Y-5.3438
X10.9562Y-6.8438
X10.9812Y-7.5938
X11.05Y-8.3441
X11.1437Y-4.4062
X11.1437Y-5.3438
X11.1687Y-6.0938
X11.3562Y-6.8438
X11.45Y-8.3441
X11.5187Y-6.0938
X11.5437Y-4.4062
X11.5437Y-5.3438
X11.6125Y-7.5941
X11.8937Y-4.4062
X11.8937Y-8.3438
X11.9187Y-6.0938
X12.0125Y-7.5941
X12.175Y-6.8441
X12.2687Y-5.3441
X12.2937Y-4.4062
X12.2937Y-8.3438
X12.4562Y-6.0941
X12.575Y-6.8441
X12.6437Y-4.4062
X12.6437Y-7.5938
X12.6437Y-8.3438
X12.6687Y-5.3441
X12.8562Y-6.0941
X13.0437Y-4.4062
X13.0437Y-7.5938
X13.0437Y-8.3438
X13.3937Y-4.4062
X13.3937Y-5.3438
X13.3937Y-6.0938
X13.3937Y-6.8438
X13.3937Y-7.5938
X13.3937Y-8.3438
X13.7937Y-4.4062
X13.7937Y-5.3438
X13.7937Y-6.0938
X13.7937Y-6.8438
X13.7937Y-7.5938
X13.7937Y-8.3438
X14.3312Y-5.3438
X14.3312Y-6.0938
X14.3312Y-6.8438
X14.3312Y-7.5938
X14.3312Y-8.3438
X14.7312Y-5.3438
X14.7312Y-6.0938
X14.7312Y-6.8438
X14.7312Y-7.5938
X14.7312Y-8.3438
T6
X2.1938Y-4.3062
X2.1938Y-5.2437
X2.2414Y-4.1799
X2.2414Y-5.1174
X2.2875Y-8.2441
X2.3351Y-8.1174
X2.3813Y-5.9941
X2.4289Y-5.8674
X2.4438Y-4.2062
X2.4438Y-5.1437
X2.475Y-6.7441
X2.517Y-4.2212
X2.517Y-5.1587
X2.5226Y-6.6174
X2.5375Y-8.1441
X2.6107Y-8.1587
X2.6313Y-5.8941
X2.6625Y-7.4941
X2.7045Y-5.9087
X2.7101Y-7.3674
X2.725Y-6.6441
X2.7982Y-6.6587
X2.9125Y-7.3941
X2.9438Y-4.3062
X2.9438Y-5.2437
X2.9857Y-7.4087
X2.9914Y-4.1799
X2.9914Y-5.1174
X3.1313Y-8.2438
X3.1789Y-8.1174
X3.1938Y-4.2062
X3.1938Y-5.1437
X3.267Y-4.2212
X3.267Y-5.1587
X3.3188Y-5.9937
X3.3664Y-5.8674
X3.3813Y-8.1437
X3.4545Y-8.1587
X3.5063Y-6.7437
X3.5539Y-6.6174
X3.5688Y-5.8937
X3.642Y-5.9087
X3.6938Y-4.3062
X3.6938Y-5.2437
X3.7414Y-4.1799
X3.7414Y-5.1174
X3.7563Y-6.6437
X3.8295Y-6.6587
X3.8813Y-7.4937
X3.8813Y-8.2438
X3.9289Y-7.3674
X3.9289Y-8.1174
X3.9438Y-4.2062
X3.9438Y-5.1437
X4.017Y-4.2212
X4.017Y-5.1587
X4.0687Y-5.9937
X4.1164Y-5.8674
X4.1312Y-7.3937
X4.1312Y-8.1437
X4.2045Y-7.4087
X4.2045Y-8.1587
X4.2562Y-6.7437
X4.3039Y-6.6174
X4.3187Y-5.8937
X4.392Y-5.9087
X4.4437Y-4.3062
X4.4437Y-5.2437
X4.4914Y-4.1799
X4.4914Y-5.1174
X4.5062Y-6.6437
X4.5795Y-6.6587
X4.6312Y-7.4937
X4.6312Y-8.2438
X4.6789Y-7.3674
X4.6789Y-8.1174
X4.6937Y-4.2062
X4.6937Y-5.1437
X4.767Y-4.2212
X4.767Y-5.1587
X4.8187Y-5.9937
X4.8664Y-5.8674
X4.8812Y-7.3937
X4.8812Y-8.1437
X4.9545Y-7.4087
X4.9545Y-8.1587
X5.0062Y-6.7437
X5.0539Y-6.6174
X5.0687Y-5.8937
X5.142Y-5.9087
X5.1937Y-4.3062
X5.1937Y-5.2437
X5.2414Y-4.1799
X5.2414Y-5.1174
X5.2562Y-6.6437
X5.3295Y-6.6587
X5.3812Y-7.4937
X5.4289Y-7.3674
X5.4437Y-4.2062
X5.4437Y-5.1437
X5.517Y-4.2212
X5.517Y-5.1587
X5.5687Y-5.9937
X5.6164Y-5.8674
X5.6312Y-7.3937
X5.7045Y-7.4087
X5.7562Y-6.7437
X5.8039Y-6.6174
X5.8187Y-5.8937
X5.892Y-5.9087
X5.9437Y-4.3062
X5.9437Y-5.2437
X5.9914Y-4.1799
X5.9914Y-5.1174
X6.0062Y-6.6437
X6.0375Y-8.2441
X6.0795Y-6.6587
X6.0851Y-8.1174
X6.1312Y-7.4937
X6.1789Y-7.3674
X6.1937Y-4.2062
X6.1937Y-5.1437
X6.267Y-4.2212
X6.267Y-5.1587
X6.2875Y-8.1441
X6.3187Y-5.9937
X6.3607Y-8.1587
X6.3664Y-5.8674
X6.3812Y-7.3937
X6.4545Y-7.4087
X6.5062Y-6.7437
X6.5539Y-6.6174
X6.5687Y-5.8937
X6.642Y-5.9087
X6.6937Y-4.3062
X6.6937Y-5.2437
X6.7414Y-4.1799
X6.7414Y-5.1174
X6.7562Y-6.6437
X6.8295Y-6.6587
X6.8812Y-7.4937
X6.9289Y-7.3674
X6.9437Y-4.2062
X6.9437Y-5.1437
X7.017Y-4.2212
X7.017Y-5.1587
X7.0687Y-5.9937
X7.1164Y-5.8674
X7.1312Y-7.3937
X7.2045Y-7.4087
X7.2562Y-6.7437
X7.3039Y-6.6174
X7.3187Y-5.8937
X7.392Y-5.9087
X7.4437Y-4.3062
X7.4437Y-5.2437
X7.4914Y-4.1799
X7.4914Y-5.1174
X7.5062Y-6.6437
X7.5795Y-6.6587
X7.6312Y-7.4937
X7.6789Y-7.3674
X7.6937Y-4.2062
X7.6937Y-5.1437
X7.767Y-4.2212
X7.767Y-5.1587
X7.8187Y-5.9937
X7.8664Y-5.8674
X7.8812Y-7.3937
X7.9125Y-8.2441
X7.9545Y-7.4087
X7.9601Y-8.1174
X8.0062Y-6.7437
X8.0539Y-6.6174
X8.0687Y-5.8937
X8.142Y-5.9087
X8.1625Y-8.1441
X8.1937Y-4.3062
X8.1937Y-5.2437
X8.2357Y-8.1587
X8.2414Y-4.1799
X8.2414Y-5.1174
X8.2562Y-6.6437
X8.3295Y-6.6587
X8.3812Y-7.4937
X8.4289Y-7.3674
X8.4437Y-4.2062
X8.4437Y-5.1437
X8.517Y-4.2212
X8.517Y-5.1587
X8.5687Y-5.9937
X8.6164Y-5.8674
X8.6312Y-7.3937
X8.7045Y-7.4087
X8.7562Y-6.7437
X8.8039Y-6.6174
X8.8187Y-5.8937
X8.892Y-5.9087
X8.9437Y-4.3062
X8.9437Y-5.2437
X8.9914Y-4.1799
X8.9914Y-5.1174
X9.0062Y-6.6437
X9.0795Y-6.6587
X9.1312Y-7.4937
X9.1789Y-7.3674
X9.1937Y-4.2062
X9.1937Y-5.1437
X9.225Y-8.2441
X9.267Y-4.2212
X9.267Y-5.1587
X9.2726Y-8.1174
X9.3187Y-5.9937
X9.3664Y-5.8674
X9.3812Y-7.3937
X9.4545Y-7.4087
X9.475Y-8.1441
X9.5062Y-6.7437
X9.5482Y-8.1587
X9.5539Y-6.6174
X9.5687Y-5.8937
X9.642Y-5.9087
X9.6937Y-4.3062
X9.6937Y-5.2437
X9.7414Y-4.1799
X9.7414Y-5.1174
X9.7562Y-6.6437
X9.8295Y-6.6587
X9.8812Y-7.4937
X9.9289Y-7.3674
X9.9437Y-4.2062
X9.9437Y-5.1437
X10.017Y-4.2212
X10.017Y-5.1587
X10.0687Y-5.9937
X10.1164Y-5.8674
X10.1312Y-7.3937
X10.1625Y-8.2441
X10.2045Y-7.4087
X10.2101Y-8.1174
X10.2562Y-6.7437
X10.3039Y-6.6174
X10.3187Y-5.8937
X10.392Y-5.9087
X10.4125Y-8.1441
X10.4437Y-4.3062
X10.4437Y-5.2437
X10.4857Y-8.1587
X10.4914Y-4.1799
X10.4914Y-5.1174
X10.5062Y-6.6437
X10.5795Y-6.6587
X10.6312Y-7.4937
X10.6789Y-7.3674
X10.6937Y-4.2062
X10.6937Y-5.1437
X10.767Y-4.2212
X10.767Y-5.1587
X10.8187Y-5.9937
X10.8664Y-5.8674
X10.8812Y-7.3937
X10.9545Y-7.4087
X11.0062Y-6.7437
X11.0539Y-6.6174
X11.0687Y-5.8937
X11.1Y-8.2441
X11.142Y-5.9087
X11.1476Y-8.1174
X11.1937Y-4.3062
X11.1937Y-5.2437
X11.2414Y-4.1799
X11.2414Y-5.1174
X11.2562Y-6.6437
X11.3295Y-6.6587
X11.35Y-8.1441
X11.4232Y-8.1587
X11.4437Y-4.2062
X11.4437Y-5.1437
X11.517Y-4.2212
X11.517Y-5.1587
X11.5687Y-5.9937
X11.6164Y-5.8674
X11.6625Y-7.4941
X11.7101Y-7.3674
X11.8187Y-5.8937
X11.892Y-5.9087
X11.9125Y-7.3941
X11.9437Y-4.3062
X11.9437Y-8.2438
X11.9857Y-7.4087
X11.9914Y-4.1799
X11.9914Y-8.1174
X12.1937Y-4.2062
X12.1937Y-8.1437
X12.225Y-6.7441
X12.267Y-4.2212
X12.267Y-8.1587
X12.2726Y-6.6174
X12.3187Y-5.2441
X12.3664Y-5.1174
X12.475Y-6.6441
X12.5062Y-5.9941
X12.5482Y-6.6587
X12.5539Y-5.8674
X12.5687Y-5.1441
X12.642Y-5.1587
X12.6937Y-4.3062
X12.6937Y-7.4937
X12.6937Y-8.2438
X12.7414Y-4.1799
X12.7414Y-7.3674
X12.7414Y-8.1174
X12.7562Y-5.8941
X12.8295Y-5.9087
X12.9437Y-4.2062
X12.9437Y-7.3937
X12.9437Y-8.1437
X13.017Y-4.2212
X13.017Y-7.4087
X13.017Y-8.1587
X13.4437Y-4.3062
X13.4437Y-5.2437
X13.4437Y-5.9937
X13.4437Y-6.7437
X13.4437Y-7.4937
X13.4437Y-8.2438
X13.4914Y-4.1799
X13.4914Y-5.1174
X13.4914Y-5.8674
X13.4914Y-6.6174
X13.4914Y-7.3674
X13.4914Y-8.1174
X13.6937Y-4.2062
X13.6937Y-5.1437
X13.6937Y-5.8937
X13.6937Y-6.6437
X13.6937Y-7.3937
X13.6937Y-8.1437
X13.767Y-4.2212
X13.767Y-5.1587
X13.767Y-5.9087
X13.767Y-6.6587
X13.767Y-7.4087
X13.767Y-8.1587
X14.3812Y-5.2437
X14.3812Y-5.9937
X14.3812Y-6.7437
X14.3812Y-7.4937
X14.3812Y-8.2438
X14.4289Y-5.1174
X14.4289Y-5.8674
X14.4289Y-6.6174
X14.4289Y-7.3674
X14.4289Y-8.1174
X14.6312Y-5.1437
X14.6312Y-5.8937
X14.6312Y-6.6437
X14.6312Y-7.3937
X14.6312Y-8.1437
X14.7045Y-5.1587
X14.7045Y-5.9087
X14.7045Y-6.6587
X14.7045Y-7.4087
X14.7045Y-8.1587
T7
X2.3438Y-7.2891
X3.8438Y-4.875
X8.4375Y-4.875
X8.8125Y-8.0625
X13.0313Y-4.875
X14.0977Y-8.0625
T8
X2.3438Y-4.4062
X2.3438Y-5.3438
X2.4375Y-8.3438
X2.5312Y-6.0938
X2.625Y-6.8438
X2.8125Y-7.5938
X3.0938Y-4.4062
X3.0938Y-5.3438
X3.2812Y-8.3438
X3.4688Y-6.0938
X3.6562Y-6.8438
X3.8438Y-4.4062
X3.8438Y-5.3438
X4.0312Y-7.5938
X4.0312Y-8.3438
X4.2188Y-6.0938
X4.4062Y-6.8438
X4.5938Y-4.4062
X4.5938Y-5.3438
X4.7812Y-7.5938
X4.7812Y-8.3438
X4.9688Y-6.0938
X5.1562Y-6.8438
X5.3438Y-4.4062
X5.3438Y-5.3438
X5.5312Y-7.5938
X5.7188Y-6.0938
X5.9062Y-6.8438
X6.0938Y-4.4062
X6.0938Y-5.3438
X6.1875Y-8.3438
X6.2812Y-7.5938
X6.4688Y-6.0938
X6.6562Y-6.8438
X6.8438Y-4.4062
X6.8438Y-5.3438
X7.0312Y-7.5938
X7.2188Y-6.0938
X7.4062Y-6.8438
X7.5938Y-4.4062
X7.5938Y-5.3438
X7.7812Y-7.5938
X7.9688Y-6.0938
X8.0625Y-8.3438
X8.1562Y-6.8438
X8.3438Y-4.4062
X8.3438Y-5.3438
X8.5312Y-7.5938
X8.7188Y-6.0938
X8.9062Y-6.8438
X9.0938Y-4.4062
X9.0938Y-5.3438
X9.2812Y-7.5938
X9.375Y-8.3438
X9.4688Y-6.0938
X9.6562Y-6.8438
X9.8438Y-4.4062
X9.8438Y-5.3438
X10.0312Y-7.5938
X10.2188Y-6.0938
X10.3125Y-8.3438
X10.4062Y-6.8438
X10.5938Y-4.4062
X10.5938Y-5.3438
X10.7812Y-7.5938
X10.9688Y-6.0938
X11.1562Y-6.8438
X11.25Y-8.3438
X11.3438Y-4.4062
X11.3438Y-5.3438
X11.7188Y-6.0938
X11.8125Y-7.5938
X12.0938Y-4.4062
X12.0938Y-8.3438
X12.375Y-6.8438
X12.4688Y-5.3438
X12.6562Y-6.0938
X12.8438Y-4.4062
X12.8438Y-7.5938
X12.8438Y-8.3438
X13.5938Y-4.4062
X13.5938Y-5.3438
X13.5938Y-6.0938
X13.5938Y-6.8438
X13.5938Y-7.5938
X13.5938Y-8.3438
X14.5312Y-5.3438
X14.5312Y-6.0938
X14.5312Y-6.8438
X14.5312Y-7.5938
X14.5312Y-8.3438
T4
G00X14.3108Y-4.3807
M15
G01X14.3108Y-4.4318
M16
G05
G00X14.7517Y-4.3807
M15
G01X14.7517Y-4.4318
M16
G05
T0
M30
