M48
; DRILL file {KiCad (6.0.2)} date Tue Aug 23 14:47:57 2022
; FORMAT={-:-/ absolute / metric / decimal}
; #@! TF.CreationDate,2022-08-23T14:47:57-07:00
; #@! TF.GenerationSoftware,Kicad,Pcbnew,(6.0.2)
; #@! TF.FileFunction,Plated,1,2,PTH
FMAT,2
METRIC
; #@! TA.AperFunction,Plated,PTH,ViaDrill
T1C0.400
; #@! TA.AperFunction,Plated,PTH,ComponentDrill
T2C0.700
; #@! TA.AperFunction,Plated,PTH,ComponentDrill
T3C0.762
; #@! TA.AperFunction,Plated,PTH,ComponentDrill
T4C1.000
; #@! TA.AperFunction,Plated,PTH,ComponentDrill
T5C1.100
; #@! TA.AperFunction,Plated,PTH,ComponentDrill
T6C1.500
%
G90
G05
T1
X52.388Y-219.075
X53.578Y-83.939
X54.173Y-117.277
X54.173Y-119.063
X54.173Y-141.089
X54.173Y-142.875
X54.173Y-149.424
X54.173Y-163.711
X54.173Y-182.761
X54.173Y-201.216
X54.769Y-115.491
X54.769Y-139.303
X56.555Y-217.289
X56.555Y-219.075
X57.745Y-144.661
X58.936Y-160.139
X58.936Y-161.925
X59.531Y-105.37
X59.531Y-158.353
X60.127Y-163.711
X61.317Y-179.189
X61.317Y-180.975
X61.913Y-177.403
X61.913Y-204.788
X64.294Y-90.488
X64.294Y-147.638
X64.889Y-182.761
X66.08Y-198.239
X66.08Y-200.025
X66.675Y-196.453
X70.842Y-118.467
X70.842Y-123.23
X70.842Y-142.28
X70.842Y-147.042
X72.033Y-114.3
X72.033Y-118.467
X72.033Y-138.113
X72.033Y-142.28
X73.819Y-115.491
X73.819Y-139.303
X75.605Y-126.206
X76.2Y-152.995
X77.688Y-90.488
X77.986Y-172.045
X80.367Y-161.33
X80.367Y-166.092
X81.558Y-157.163
X81.558Y-161.33
X82.153Y-118.467
X82.153Y-123.23
X82.153Y-142.28
X82.153Y-147.042
X83.344Y-118.467
X83.344Y-123.23
X83.344Y-142.28
X83.344Y-147.042
X83.344Y-176.213
X83.344Y-205.383
X83.939Y-185.738
X84.534Y-118.467
X84.534Y-123.23
X84.534Y-142.28
X84.534Y-146.318
X85.725Y-118.467
X85.725Y-123.23
X85.725Y-142.28
X86.32Y-176.213
X86.32Y-180.38
X86.916Y-90.488
X87.511Y-185.738
X87.511Y-199.43
X88.106Y-126.206
X88.702Y-104.775
X89.892Y-200.62
X90.488Y-84.664
X91.083Y-114.3
X91.083Y-118.467
X91.083Y-138.113
X91.083Y-142.28
X91.083Y-185.738
X91.678Y-161.33
X91.678Y-166.092
X92.869Y-161.33
X92.869Y-166.092
X95.845Y-195.263
X95.845Y-199.43
X96.441Y-180.38
X96.441Y-184.485
X97.603Y-184.485
X97.631Y-104.775
X97.631Y-128.588
X97.631Y-180.38
X100.608Y-157.163
X100.608Y-161.33
X101.799Y-166.688
X102.394Y-158.353
X102.394Y-205.383
X103.584Y-84.534
X105.37Y-176.213
X105.37Y-180.38
X105.966Y-199.43
X105.966Y-204.192
X107.156Y-147.638
X110.133Y-114.3
X110.133Y-118.467
X110.133Y-138.113
X110.133Y-142.28
X111.324Y-185.142
X111.919Y-166.688
X114.895Y-195.263
X114.895Y-199.43
X116.681Y-104.775
X116.681Y-128.588
X116.681Y-196.453
X119.658Y-157.163
X119.658Y-161.33
X121.444Y-185.738
X121.444Y-204.788
X124.42Y-176.213
X124.42Y-180.38
X126.206Y-147.638
X129.183Y-114.3
X129.183Y-118.467
X129.183Y-138.113
X129.183Y-142.28
X130.969Y-166.688
X135.731Y-104.775
X135.731Y-128.588
X138.708Y-157.163
X138.708Y-161.33
X140.494Y-185.738
X143.47Y-180.38
X143.47Y-176.213
X145.256Y-147.638
X148.233Y-138.113
X148.233Y-114.3
X148.233Y-118.467
X148.233Y-142.28
X150.019Y-166.688
X152.995Y-195.263
X152.995Y-199.43
X154.781Y-104.775
X154.781Y-128.588
X157.163Y-204.788
X157.758Y-157.163
X157.758Y-161.33
X159.544Y-185.738
X162.52Y-180.38
X162.52Y-176.213
X164.306Y-147.638
X167.283Y-118.467
X167.283Y-114.3
X167.283Y-138.113
X167.283Y-142.28
X169.069Y-166.688
X173.831Y-104.775
X173.831Y-128.588
X176.808Y-157.163
X176.808Y-161.33
X178.594Y-185.738
X181.57Y-180.38
X181.57Y-176.213
X183.356Y-147.638
X186.333Y-138.113
X186.333Y-114.3
X186.333Y-118.467
X186.333Y-142.28
X188.119Y-166.688
X191.095Y-195.263
X191.095Y-199.43
X192.881Y-104.775
X192.881Y-128.588
X195.858Y-157.163
X195.858Y-161.33
X197.644Y-185.738
X200.62Y-180.38
X200.62Y-176.213
X202.406Y-147.638
X204.788Y-204.788
X205.383Y-114.3
X205.383Y-118.467
X205.383Y-138.113
X205.383Y-142.28
X207.169Y-166.688
X211.931Y-104.775
X211.931Y-128.588
X214.908Y-157.163
X214.908Y-161.33
X216.694Y-185.738
X219.67Y-180.38
X219.67Y-176.213
X221.456Y-147.638
X224.433Y-138.113
X224.433Y-114.3
X224.433Y-118.467
X224.433Y-142.28
X226.219Y-166.688
X229.196Y-195.263
X229.196Y-199.43
X230.981Y-104.775
X230.981Y-128.588
X233.958Y-157.163
X233.958Y-161.33
X235.744Y-185.738
X238.125Y-204.788
X238.72Y-180.38
X238.721Y-176.213
X240.506Y-147.638
X243.483Y-114.3
X243.483Y-138.113
X243.483Y-118.467
X243.483Y-142.28
X245.269Y-166.688
X248.246Y-195.263
X248.246Y-199.43
X250.031Y-104.775
X250.031Y-128.588
X253.008Y-157.163
X253.008Y-161.33
X254.794Y-185.738
X257.77Y-180.38
X257.771Y-176.213
X259.556Y-147.638
X261.938Y-204.788
X262.533Y-138.113
X262.533Y-114.3
X262.533Y-118.467
X262.533Y-142.28
X264.319Y-166.688
X269.081Y-104.775
X269.081Y-128.588
X272.058Y-157.163
X272.058Y-161.33
X273.844Y-185.738
X276.82Y-180.38
X276.821Y-176.213
X278.606Y-147.638
X281.583Y-114.3
X281.583Y-118.467
X281.583Y-138.113
X281.583Y-142.28
X283.369Y-166.688
X285.75Y-204.788
X288.131Y-104.775
X288.131Y-128.588
X289.917Y-166.688
X289.917Y-180.38
X289.917Y-195.263
X289.917Y-199.43
X291.108Y-157.163
X291.108Y-161.33
X293.489Y-195.263
X293.489Y-199.43
X296.466Y-146.447
X300.038Y-185.738
X300.633Y-114.3
X300.633Y-118.467
X300.633Y-138.113
X300.633Y-142.28
X304.8Y-128.588
X305.396Y-147.042
X305.396Y-161.33
X306.586Y-176.213
X306.586Y-180.38
X307.182Y-104.775
X307.182Y-204.788
X309.563Y-165.497
X310.158Y-138.113
X310.158Y-142.28
X314.325Y-157.163
X314.325Y-161.33
X316.707Y-128.588
X319.683Y-114.3
X319.683Y-118.467
X319.683Y-195.263
X319.683Y-199.43
X320.874Y-166.092
X320.874Y-180.38
X322.66Y-147.638
X326.232Y-104.775
X326.232Y-185.738
X326.232Y-204.788
X328.017Y-166.688
X338.733Y-114.3
X338.733Y-118.467
X338.733Y-138.113
X338.733Y-142.28
X338.733Y-157.163
X338.733Y-161.33
X338.733Y-176.213
X338.733Y-180.38
X338.733Y-195.263
X338.733Y-199.43
X345.282Y-104.775
X345.282Y-128.588
X345.282Y-147.638
X345.282Y-166.688
X345.282Y-185.738
X345.282Y-204.788
X346.472Y-121.444
X357.188Y-145.256
X357.188Y-164.306
X357.188Y-183.356
X357.188Y-202.406
X362.546Y-138.113
X362.546Y-146.576
X362.546Y-157.163
X362.546Y-165.626
X362.546Y-176.213
X362.546Y-184.547
X362.546Y-195.263
X362.546Y-203.597
X366.713Y-126.802
X369.094Y-128.588
X369.094Y-147.638
X369.094Y-166.688
X369.094Y-185.738
X369.094Y-204.788
T2
X64.294Y-86.678
X64.294Y-94.298
T3
X52.866Y-86.241
X52.866Y-88.781
X52.866Y-92.194
X52.866Y-94.734
T4
X53.555Y-81.714
X53.555Y-99.278
X56.095Y-81.714
X56.095Y-99.278
X58.635Y-81.714
X58.635Y-99.278
X61.175Y-81.714
X61.175Y-99.278
X63.715Y-81.714
X63.715Y-99.278
X66.255Y-81.714
X66.255Y-99.278
X68.795Y-81.714
X68.795Y-99.278
X69.056Y-113.983
X69.056Y-119.062
X69.056Y-137.795
X69.056Y-142.875
X71.335Y-81.714
X71.335Y-99.278
X73.819Y-156.845
X73.819Y-161.925
X73.819Y-213.995
X73.819Y-219.075
X73.875Y-81.714
X73.875Y-99.278
X76.2Y-175.895
X76.2Y-180.975
X76.415Y-81.714
X76.415Y-99.278
X78.955Y-81.714
X78.955Y-99.278
X81.495Y-81.714
X81.495Y-99.278
X84.035Y-81.714
X84.035Y-99.278
X86.575Y-81.714
X86.575Y-99.278
X88.106Y-113.983
X88.106Y-119.062
X88.106Y-137.795
X88.106Y-142.875
X89.115Y-81.714
X89.115Y-99.278
X91.655Y-81.714
X91.655Y-99.278
X92.869Y-194.945
X92.869Y-200.025
X92.869Y-213.995
X92.869Y-219.075
X94.195Y-81.714
X94.195Y-99.278
X96.735Y-81.714
X96.735Y-99.278
X97.631Y-156.845
X97.631Y-161.925
X99.275Y-81.714
X99.275Y-99.278
X101.815Y-81.714
X101.815Y-99.278
X102.394Y-175.895
X102.394Y-180.975
X107.156Y-113.983
X107.156Y-119.062
X107.156Y-137.795
X107.156Y-142.875
X109.989Y-90.1
X111.919Y-194.945
X111.919Y-200.025
X111.919Y-213.995
X111.919Y-219.075
X112.529Y-90.1
X115.069Y-90.1
X116.681Y-156.845
X116.681Y-161.925
X121.444Y-175.895
X121.444Y-180.975
X126.206Y-113.983
X126.206Y-119.062
X126.206Y-137.795
X126.206Y-142.875
X130.969Y-194.945
X130.969Y-200.025
X130.969Y-213.995
X130.969Y-219.075
X135.731Y-156.845
X135.731Y-161.925
X140.494Y-175.895
X140.494Y-180.975
X145.256Y-113.983
X145.256Y-119.062
X145.256Y-137.795
X145.256Y-142.875
X150.019Y-194.945
X150.019Y-200.025
X154.781Y-156.845
X154.781Y-161.925
X159.544Y-175.895
X159.544Y-180.975
X164.306Y-113.983
X164.306Y-119.062
X164.306Y-137.795
X164.306Y-142.875
X169.069Y-194.945
X169.069Y-200.025
X173.831Y-156.845
X173.831Y-161.925
X178.594Y-175.895
X178.594Y-180.975
X183.356Y-113.983
X183.356Y-119.062
X183.356Y-137.795
X183.356Y-142.875
X183.356Y-213.995
X183.356Y-219.075
X188.119Y-194.945
X188.119Y-200.025
X192.881Y-156.845
X192.881Y-161.925
X197.644Y-175.895
X197.644Y-180.975
X202.406Y-113.983
X202.406Y-119.062
X202.406Y-137.795
X202.406Y-142.875
X207.169Y-194.945
X207.169Y-200.025
X211.931Y-156.845
X211.931Y-161.925
X216.694Y-175.895
X216.694Y-180.975
X221.456Y-113.983
X221.456Y-119.062
X221.456Y-137.795
X221.456Y-142.875
X226.219Y-194.945
X226.219Y-200.025
X226.219Y-213.995
X226.219Y-219.075
X230.981Y-156.845
X230.981Y-161.925
X235.744Y-175.895
X235.744Y-180.975
X240.506Y-113.983
X240.506Y-119.062
X240.506Y-137.795
X240.506Y-142.875
X245.269Y-194.945
X245.269Y-200.025
X247.65Y-213.995
X247.65Y-219.075
X250.031Y-156.845
X250.031Y-161.925
X254.794Y-175.895
X254.794Y-180.975
X259.556Y-113.983
X259.556Y-119.062
X259.556Y-137.795
X259.556Y-142.875
X264.319Y-194.945
X264.319Y-200.025
X269.081Y-156.845
X269.081Y-161.925
X271.462Y-213.995
X271.462Y-219.075
X273.844Y-175.895
X273.844Y-180.975
X278.606Y-113.983
X278.606Y-119.062
X278.606Y-137.795
X278.606Y-142.875
X283.369Y-194.945
X283.369Y-200.025
X288.131Y-156.845
X288.131Y-161.925
X292.894Y-175.895
X292.894Y-180.975
X295.275Y-213.995
X295.275Y-219.075
X297.656Y-113.983
X297.656Y-119.062
X297.656Y-137.795
X297.656Y-142.875
X309.562Y-156.845
X309.562Y-161.925
X316.706Y-113.983
X316.706Y-119.062
X316.706Y-194.945
X316.706Y-200.025
X316.706Y-213.995
X316.706Y-219.075
X335.756Y-113.983
X335.756Y-119.062
X335.756Y-137.795
X335.756Y-142.875
X335.756Y-156.845
X335.756Y-161.925
X335.756Y-175.895
X335.756Y-180.975
X335.756Y-194.945
X335.756Y-200.025
X335.756Y-213.995
X335.756Y-219.075
X354.806Y-113.983
X354.806Y-119.062
X354.806Y-137.795
X354.806Y-142.875
X354.806Y-156.845
X354.806Y-161.925
X354.806Y-175.895
X354.806Y-180.975
X354.806Y-194.945
X354.806Y-200.025
X354.806Y-213.995
X354.806Y-219.075
X359.569Y-137.795
X359.569Y-142.875
X359.569Y-156.845
X359.569Y-161.925
X359.569Y-175.895
X359.569Y-180.975
X359.569Y-194.945
X359.569Y-200.025
X359.569Y-213.995
X359.569Y-219.075
X359.57Y-113.983
X359.57Y-119.063
X366.594Y-104.419
X366.594Y-118.919
X369.094Y-104.419
X371.594Y-104.419
X371.594Y-118.919
T5
X366.844Y-108.669
X366.844Y-115.169
X371.344Y-108.669
X371.344Y-115.169
T6
X363.494Y-111.269G85X363.494Y-112.569
G05
X374.694Y-111.269G85X374.694Y-112.569
G05
T0
M30
