%FSLAX45Y45*%
G04 Gerber Fmt 4.5, Leading zero omitted, Abs format (unit mm)*
G04 Created by KiCad (PCBNEW (6.0.2)) date 2022-08-23 14:47:59*
%MOMM*%
%LPD*%
G01*
G04 APERTURE LIST*
%TA.AperFunction,Profile*%
%ADD10C,0.100000*%
%TD*%
%ADD11C,0.200000*%
%ADD12C,0.040000*%
%ADD13C,0.070000*%
%ADD14C,0.076200*%
%ADD15C,0.100000*%
%ADD16C,0.110000*%
%ADD17C,0.150000*%
G04 APERTURE END LIST*
D10*
X5000625Y-21945625D02*
X5000625Y-8058125D01*
X37661875Y-22145625D02*
G75*
G03*
X37861875Y-21945625I0J200000D01*
G01*
X5200625Y-7858125D02*
X37661875Y-7858125D01*
X5000625Y-21945625D02*
G75*
G03*
X5200625Y-22145625I200000J0D01*
G01*
X37861875Y-8058125D02*
G75*
G03*
X37661875Y-7858125I-200000J0D01*
G01*
X37861875Y-21945625D02*
X37861875Y-8058125D01*
X37661875Y-22145625D02*
X5200625Y-22145625D01*
X5200625Y-7858125D02*
G75*
G03*
X5000625Y-8058125I-2J-199998D01*
G01*
D11*
D12*
X5218754Y-21887518D02*
X5258754Y-21927518D01*
X5258754Y-21887518D02*
X5218754Y-21927518D01*
X5337817Y-8373913D02*
X5377817Y-8413913D01*
X5377817Y-8373913D02*
X5337817Y-8413913D01*
X5397348Y-11707666D02*
X5437348Y-11747666D01*
X5437348Y-11707666D02*
X5397348Y-11747666D01*
X5397348Y-11886260D02*
X5437348Y-11926260D01*
X5437348Y-11886260D02*
X5397348Y-11926260D01*
X5397348Y-14088918D02*
X5437348Y-14128918D01*
X5437348Y-14088918D02*
X5397348Y-14128918D01*
X5397348Y-14267512D02*
X5437348Y-14307512D01*
X5437348Y-14267512D02*
X5397348Y-14307512D01*
X5397348Y-14922356D02*
X5437348Y-14962356D01*
X5437348Y-14922356D02*
X5397348Y-14962356D01*
X5397348Y-16351107D02*
X5437348Y-16391107D01*
X5437348Y-16351107D02*
X5397348Y-16391107D01*
X5397348Y-18256109D02*
X5437348Y-18296109D01*
X5437348Y-18256109D02*
X5397348Y-18296109D01*
X5397348Y-20101579D02*
X5437348Y-20141579D01*
X5437348Y-20101579D02*
X5397348Y-20141579D01*
X5456880Y-11529072D02*
X5496880Y-11569072D01*
X5496880Y-11529072D02*
X5456880Y-11569072D01*
X5456880Y-13910324D02*
X5496880Y-13950324D01*
X5496880Y-13910324D02*
X5456880Y-13950324D01*
X5635473Y-21708925D02*
X5675473Y-21748925D01*
X5675473Y-21708925D02*
X5635473Y-21748925D01*
X5635473Y-21887518D02*
X5675473Y-21927518D01*
X5675473Y-21887518D02*
X5635473Y-21927518D01*
X5754536Y-14446106D02*
X5794536Y-14486106D01*
X5794536Y-14446106D02*
X5754536Y-14486106D01*
X5873599Y-15993920D02*
X5913599Y-16033920D01*
X5913599Y-15993920D02*
X5873599Y-16033920D01*
X5873599Y-16172514D02*
X5913599Y-16212514D01*
X5913599Y-16172514D02*
X5873599Y-16212514D01*
X5933130Y-10517040D02*
X5973130Y-10557040D01*
X5973130Y-10517040D02*
X5933130Y-10557040D01*
X5933130Y-15815326D02*
X5973130Y-15855326D01*
X5973130Y-15815326D02*
X5933130Y-15855326D01*
X5992661Y-16351107D02*
X6032661Y-16391107D01*
X6032661Y-16351107D02*
X5992661Y-16391107D01*
X6111724Y-17898921D02*
X6151724Y-17938921D01*
X6151724Y-17898921D02*
X6111724Y-17938921D01*
X6111724Y-18077515D02*
X6151724Y-18117515D01*
X6151724Y-18077515D02*
X6111724Y-18117515D01*
X6171255Y-17720327D02*
X6211255Y-17760327D01*
X6211255Y-17720327D02*
X6171255Y-17760327D01*
X6171255Y-20458767D02*
X6211255Y-20498767D01*
X6211255Y-20458767D02*
X6171255Y-20498767D01*
X6409380Y-9028758D02*
X6449380Y-9068758D01*
X6449380Y-9028758D02*
X6409380Y-9068758D01*
X6409380Y-14743762D02*
X6449380Y-14783762D01*
X6449380Y-14743762D02*
X6409380Y-14783762D01*
X6468912Y-18256109D02*
X6508912Y-18296109D01*
X6508912Y-18256109D02*
X6468912Y-18296109D01*
X6587974Y-19803923D02*
X6627974Y-19843923D01*
X6627974Y-19803923D02*
X6587974Y-19843923D01*
X6587974Y-19982517D02*
X6627974Y-20022517D01*
X6627974Y-19982517D02*
X6587974Y-20022517D01*
X6647506Y-19625329D02*
X6687506Y-19665329D01*
X6687506Y-19625329D02*
X6647506Y-19665329D01*
X7064225Y-11826729D02*
X7104225Y-11866729D01*
X7104225Y-11826729D02*
X7064225Y-11866729D01*
X7064225Y-12302979D02*
X7104225Y-12342979D01*
X7104225Y-12302979D02*
X7064225Y-12342979D01*
X7064225Y-14207981D02*
X7104225Y-14247981D01*
X7104225Y-14207981D02*
X7064225Y-14247981D01*
X7064225Y-14684231D02*
X7104225Y-14724231D01*
X7104225Y-14684231D02*
X7064225Y-14724231D01*
X7183287Y-11410010D02*
X7223287Y-11450010D01*
X7223287Y-11410010D02*
X7183287Y-11450010D01*
X7183287Y-11826729D02*
X7223287Y-11866729D01*
X7223287Y-11826729D02*
X7183287Y-11866729D01*
X7183287Y-13791262D02*
X7223287Y-13831262D01*
X7223287Y-13791262D02*
X7183287Y-13831262D01*
X7183287Y-14207981D02*
X7223287Y-14247981D01*
X7223287Y-14207981D02*
X7183287Y-14247981D01*
X7361881Y-11529072D02*
X7401881Y-11569072D01*
X7401881Y-11529072D02*
X7361881Y-11569072D01*
X7361881Y-13910324D02*
X7401881Y-13950324D01*
X7401881Y-13910324D02*
X7361881Y-13950324D01*
X7540475Y-12600636D02*
X7580475Y-12640636D01*
X7580475Y-12600636D02*
X7540475Y-12640636D01*
X7600006Y-15279544D02*
X7640006Y-15319544D01*
X7640006Y-15279544D02*
X7600006Y-15319544D01*
X7748835Y-9028758D02*
X7788835Y-9068758D01*
X7788835Y-9028758D02*
X7748835Y-9068758D01*
X7778600Y-17184546D02*
X7818600Y-17224546D01*
X7818600Y-17184546D02*
X7778600Y-17224546D01*
X8016725Y-16112982D02*
X8056725Y-16152982D01*
X8056725Y-16112982D02*
X8016725Y-16152982D01*
X8016725Y-16589233D02*
X8056725Y-16629233D01*
X8056725Y-16589233D02*
X8016725Y-16629233D01*
X8135788Y-15696263D02*
X8175788Y-15736263D01*
X8175788Y-15696263D02*
X8135788Y-15736263D01*
X8135788Y-16112982D02*
X8175788Y-16152982D01*
X8175788Y-16112982D02*
X8135788Y-16152982D01*
X8195319Y-11826729D02*
X8235319Y-11866729D01*
X8235319Y-11826729D02*
X8195319Y-11866729D01*
X8195319Y-12302979D02*
X8235319Y-12342979D01*
X8235319Y-12302979D02*
X8195319Y-12342979D01*
X8195319Y-14207981D02*
X8235319Y-14247981D01*
X8235319Y-14207981D02*
X8195319Y-14247981D01*
X8195319Y-14684231D02*
X8235319Y-14724231D01*
X8235319Y-14684231D02*
X8195319Y-14724231D01*
X8314382Y-11826729D02*
X8354382Y-11866729D01*
X8354382Y-11826729D02*
X8314382Y-11866729D01*
X8314382Y-12302979D02*
X8354382Y-12342979D01*
X8354382Y-12302979D02*
X8314382Y-12342979D01*
X8314382Y-14207981D02*
X8354382Y-14247981D01*
X8354382Y-14207981D02*
X8314382Y-14247981D01*
X8314382Y-14684231D02*
X8354382Y-14724231D01*
X8354382Y-14684231D02*
X8314382Y-14724231D01*
X8314382Y-17601265D02*
X8354382Y-17641265D01*
X8354382Y-17601265D02*
X8314382Y-17641265D01*
X8314382Y-20518299D02*
X8354382Y-20558299D01*
X8354382Y-20518299D02*
X8314382Y-20558299D01*
X8373913Y-18553766D02*
X8413913Y-18593766D01*
X8413913Y-18553766D02*
X8373913Y-18593766D01*
X8433445Y-11826729D02*
X8473445Y-11866729D01*
X8473445Y-11826729D02*
X8433445Y-11866729D01*
X8433445Y-12302979D02*
X8473445Y-12342979D01*
X8473445Y-12302979D02*
X8433445Y-12342979D01*
X8433445Y-14207981D02*
X8473445Y-14247981D01*
X8473445Y-14207981D02*
X8433445Y-14247981D01*
X8433445Y-14611781D02*
X8473445Y-14651781D01*
X8473445Y-14611781D02*
X8433445Y-14651781D01*
X8552507Y-11826729D02*
X8592507Y-11866729D01*
X8592507Y-11826729D02*
X8552507Y-11866729D01*
X8552507Y-12302979D02*
X8592507Y-12342979D01*
X8592507Y-12302979D02*
X8552507Y-12342979D01*
X8552507Y-14207981D02*
X8592507Y-14247981D01*
X8592507Y-14207981D02*
X8552507Y-14247981D01*
X8612039Y-17601265D02*
X8652039Y-17641265D01*
X8652039Y-17601265D02*
X8612039Y-17641265D01*
X8612039Y-18017984D02*
X8652039Y-18057984D01*
X8652039Y-18017984D02*
X8612039Y-18057984D01*
X8671570Y-9028758D02*
X8711570Y-9068758D01*
X8711570Y-9028758D02*
X8671570Y-9068758D01*
X8731101Y-18553766D02*
X8771101Y-18593766D01*
X8771101Y-18553766D02*
X8731101Y-18593766D01*
X8731101Y-19922986D02*
X8771101Y-19962986D01*
X8771101Y-19922986D02*
X8731101Y-19962986D01*
X8790632Y-12600636D02*
X8830632Y-12640636D01*
X8830632Y-12600636D02*
X8790632Y-12640636D01*
X8850164Y-10457509D02*
X8890164Y-10497509D01*
X8890164Y-10457509D02*
X8850164Y-10497509D01*
X8969226Y-20042048D02*
X9009226Y-20082048D01*
X9009226Y-20042048D02*
X8969226Y-20082048D01*
X9028758Y-8446363D02*
X9068758Y-8486363D01*
X9068758Y-8446363D02*
X9028758Y-8486363D01*
X9088289Y-11410010D02*
X9128289Y-11450010D01*
X9128289Y-11410010D02*
X9088289Y-11450010D01*
X9088289Y-11826729D02*
X9128289Y-11866729D01*
X9128289Y-11826729D02*
X9088289Y-11866729D01*
X9088289Y-13791262D02*
X9128289Y-13831262D01*
X9128289Y-13791262D02*
X9088289Y-13831262D01*
X9088289Y-14207981D02*
X9128289Y-14247981D01*
X9128289Y-14207981D02*
X9088289Y-14247981D01*
X9088289Y-18553766D02*
X9128289Y-18593766D01*
X9128289Y-18553766D02*
X9088289Y-18593766D01*
X9147820Y-16112982D02*
X9187820Y-16152982D01*
X9187820Y-16112982D02*
X9147820Y-16152982D01*
X9147820Y-16589233D02*
X9187820Y-16629233D01*
X9187820Y-16589233D02*
X9147820Y-16629233D01*
X9266883Y-16112982D02*
X9306883Y-16152982D01*
X9306883Y-16112982D02*
X9266883Y-16152982D01*
X9266883Y-16589233D02*
X9306883Y-16629233D01*
X9306883Y-16589233D02*
X9266883Y-16629233D01*
X9564539Y-19506266D02*
X9604539Y-19546266D01*
X9604539Y-19506266D02*
X9564539Y-19546266D01*
X9564539Y-19922986D02*
X9604539Y-19962986D01*
X9604539Y-19922986D02*
X9564539Y-19962986D01*
X9624071Y-18017984D02*
X9664071Y-18057984D01*
X9664071Y-18017984D02*
X9624071Y-18057984D01*
X9624071Y-18428519D02*
X9664071Y-18468519D01*
X9664071Y-18428519D02*
X9624071Y-18468519D01*
X9740263Y-18428519D02*
X9780263Y-18468519D01*
X9780263Y-18428519D02*
X9740263Y-18468519D01*
X9743133Y-10457509D02*
X9783133Y-10497509D01*
X9783133Y-10457509D02*
X9743133Y-10497509D01*
X9743133Y-12838761D02*
X9783133Y-12878761D01*
X9783133Y-12838761D02*
X9743133Y-12878761D01*
X9743133Y-18017984D02*
X9783133Y-18057984D01*
X9783133Y-18017984D02*
X9743133Y-18057984D01*
X10040790Y-15696263D02*
X10080790Y-15736263D01*
X10080790Y-15696263D02*
X10040790Y-15736263D01*
X10040790Y-16112982D02*
X10080790Y-16152982D01*
X10080790Y-16112982D02*
X10040790Y-16152982D01*
X10159852Y-16648764D02*
X10199852Y-16688764D01*
X10199852Y-16648764D02*
X10159852Y-16688764D01*
X10219384Y-15815326D02*
X10259384Y-15855326D01*
X10259384Y-15815326D02*
X10219384Y-15855326D01*
X10219384Y-20518299D02*
X10259384Y-20558299D01*
X10259384Y-20518299D02*
X10219384Y-20558299D01*
X10338446Y-8433445D02*
X10378446Y-8473445D01*
X10378446Y-8433445D02*
X10338446Y-8473445D01*
X10517040Y-17601265D02*
X10557040Y-17641265D01*
X10557040Y-17601265D02*
X10517040Y-17641265D01*
X10517040Y-18017984D02*
X10557040Y-18057984D01*
X10557040Y-18017984D02*
X10517040Y-18057984D01*
X10576571Y-19922986D02*
X10616571Y-19962986D01*
X10616571Y-19922986D02*
X10576571Y-19962986D01*
X10576571Y-20399236D02*
X10616571Y-20439236D01*
X10616571Y-20399236D02*
X10576571Y-20439236D01*
X10695634Y-14743762D02*
X10735634Y-14783762D01*
X10735634Y-14743762D02*
X10695634Y-14783762D01*
X10993291Y-11410010D02*
X11033291Y-11450010D01*
X11033291Y-11410010D02*
X10993291Y-11450010D01*
X10993291Y-11826729D02*
X11033291Y-11866729D01*
X11033291Y-11826729D02*
X10993291Y-11866729D01*
X10993291Y-13791262D02*
X11033291Y-13831262D01*
X11033291Y-13791262D02*
X10993291Y-13831262D01*
X10993291Y-14207981D02*
X11033291Y-14247981D01*
X11033291Y-14207981D02*
X10993291Y-14247981D01*
X11112353Y-18494234D02*
X11152353Y-18534234D01*
X11152353Y-18494234D02*
X11112353Y-18534234D01*
X11171884Y-16648764D02*
X11211884Y-16688764D01*
X11211884Y-16648764D02*
X11171884Y-16688764D01*
X11469541Y-19506266D02*
X11509541Y-19546266D01*
X11509541Y-19506266D02*
X11469541Y-19546266D01*
X11469541Y-19922986D02*
X11509541Y-19962986D01*
X11509541Y-19922986D02*
X11469541Y-19962986D01*
X11648135Y-10457509D02*
X11688135Y-10497509D01*
X11688135Y-10457509D02*
X11648135Y-10497509D01*
X11648135Y-12838761D02*
X11688135Y-12878761D01*
X11688135Y-12838761D02*
X11648135Y-12878761D01*
X11648135Y-19625329D02*
X11688135Y-19665329D01*
X11688135Y-19625329D02*
X11648135Y-19665329D01*
X11945791Y-15696263D02*
X11985791Y-15736263D01*
X11985791Y-15696263D02*
X11945791Y-15736263D01*
X11945791Y-16112982D02*
X11985791Y-16152982D01*
X11985791Y-16112982D02*
X11945791Y-16152982D01*
X12124385Y-18553766D02*
X12164385Y-18593766D01*
X12164385Y-18553766D02*
X12124385Y-18593766D01*
X12124385Y-20458767D02*
X12164385Y-20498767D01*
X12164385Y-20458767D02*
X12124385Y-20498767D01*
X12422042Y-17601265D02*
X12462042Y-17641265D01*
X12462042Y-17601265D02*
X12422042Y-17641265D01*
X12422042Y-18017984D02*
X12462042Y-18057984D01*
X12462042Y-18017984D02*
X12422042Y-18057984D01*
X12600636Y-14743762D02*
X12640636Y-14783762D01*
X12640636Y-14743762D02*
X12600636Y-14783762D01*
X12898292Y-11410010D02*
X12938292Y-11450010D01*
X12938292Y-11410010D02*
X12898292Y-11450010D01*
X12898292Y-11826729D02*
X12938292Y-11866729D01*
X12938292Y-11826729D02*
X12898292Y-11866729D01*
X12898292Y-13791262D02*
X12938292Y-13831262D01*
X12938292Y-13791262D02*
X12898292Y-13831262D01*
X12898292Y-14207981D02*
X12938292Y-14247981D01*
X12938292Y-14207981D02*
X12898292Y-14247981D01*
X13076886Y-16648764D02*
X13116886Y-16688764D01*
X13116886Y-16648764D02*
X13076886Y-16688764D01*
X13553136Y-10457509D02*
X13593136Y-10497509D01*
X13593136Y-10457509D02*
X13553136Y-10497509D01*
X13553136Y-12838761D02*
X13593136Y-12878761D01*
X13593136Y-12838761D02*
X13553136Y-12878761D01*
X13850793Y-15696263D02*
X13890793Y-15736263D01*
X13890793Y-15696263D02*
X13850793Y-15736263D01*
X13850793Y-16112982D02*
X13890793Y-16152982D01*
X13890793Y-16112982D02*
X13850793Y-16152982D01*
X14029387Y-18553766D02*
X14069387Y-18593766D01*
X14069387Y-18553766D02*
X14029387Y-18593766D01*
X14327042Y-18017984D02*
X14367042Y-18057984D01*
X14367042Y-18017984D02*
X14327042Y-18057984D01*
X14327043Y-17601265D02*
X14367043Y-17641265D01*
X14367043Y-17601265D02*
X14327043Y-17641265D01*
X14505637Y-14743762D02*
X14545637Y-14783762D01*
X14545637Y-14743762D02*
X14505637Y-14783762D01*
X14803290Y-13791262D02*
X14843290Y-13831262D01*
X14843290Y-13791262D02*
X14803290Y-13831262D01*
X14803294Y-11410010D02*
X14843294Y-11450010D01*
X14843294Y-11410010D02*
X14803294Y-11450010D01*
X14803294Y-11826729D02*
X14843294Y-11866729D01*
X14843294Y-11826729D02*
X14803294Y-11866729D01*
X14803294Y-14207981D02*
X14843294Y-14247981D01*
X14843294Y-14207981D02*
X14803294Y-14247981D01*
X14981888Y-16648764D02*
X15021888Y-16688764D01*
X15021888Y-16648764D02*
X14981888Y-16688764D01*
X15279544Y-19506266D02*
X15319544Y-19546266D01*
X15319544Y-19506266D02*
X15279544Y-19546266D01*
X15279544Y-19922986D02*
X15319544Y-19962986D01*
X15319544Y-19922986D02*
X15279544Y-19962986D01*
X15458138Y-10457509D02*
X15498138Y-10497509D01*
X15498138Y-10457509D02*
X15458138Y-10497509D01*
X15458138Y-12838761D02*
X15498138Y-12878761D01*
X15498138Y-12838761D02*
X15458138Y-12878761D01*
X15696263Y-20458767D02*
X15736263Y-20498767D01*
X15736263Y-20458767D02*
X15696263Y-20498767D01*
X15755794Y-15696263D02*
X15795794Y-15736263D01*
X15795794Y-15696263D02*
X15755794Y-15736263D01*
X15755794Y-16112982D02*
X15795794Y-16152982D01*
X15795794Y-16112982D02*
X15755794Y-16152982D01*
X15934388Y-18553766D02*
X15974388Y-18593766D01*
X15974388Y-18553766D02*
X15934388Y-18593766D01*
X16232042Y-18017984D02*
X16272042Y-18057984D01*
X16272042Y-18017984D02*
X16232042Y-18057984D01*
X16232045Y-17601265D02*
X16272045Y-17641265D01*
X16272045Y-17601265D02*
X16232045Y-17641265D01*
X16410639Y-14743762D02*
X16450639Y-14783762D01*
X16450639Y-14743762D02*
X16410639Y-14783762D01*
X16708290Y-11826729D02*
X16748290Y-11866729D01*
X16748290Y-11826729D02*
X16708290Y-11866729D01*
X16708295Y-11410010D02*
X16748295Y-11450010D01*
X16748295Y-11410010D02*
X16708295Y-11450010D01*
X16708295Y-13791262D02*
X16748295Y-13831262D01*
X16748295Y-13791262D02*
X16708295Y-13831262D01*
X16708295Y-14207981D02*
X16748295Y-14247981D01*
X16748295Y-14207981D02*
X16708295Y-14247981D01*
X16886889Y-16648764D02*
X16926889Y-16688764D01*
X16926889Y-16648764D02*
X16886889Y-16688764D01*
X17363140Y-10457509D02*
X17403140Y-10497509D01*
X17403140Y-10457509D02*
X17363140Y-10497509D01*
X17363140Y-12838761D02*
X17403140Y-12878761D01*
X17403140Y-12838761D02*
X17363140Y-12878761D01*
X17660791Y-15696263D02*
X17700791Y-15736263D01*
X17700791Y-15696263D02*
X17660791Y-15736263D01*
X17660796Y-16112982D02*
X17700796Y-16152982D01*
X17700796Y-16112982D02*
X17660796Y-16152982D01*
X17839390Y-18553766D02*
X17879390Y-18593766D01*
X17879390Y-18553766D02*
X17839390Y-18593766D01*
X18137042Y-18017984D02*
X18177042Y-18057984D01*
X18177042Y-18017984D02*
X18137042Y-18057984D01*
X18137047Y-17601265D02*
X18177047Y-17641265D01*
X18177047Y-17601265D02*
X18137047Y-17641265D01*
X18315640Y-14743762D02*
X18355640Y-14783762D01*
X18355640Y-14743762D02*
X18315640Y-14783762D01*
X18613291Y-13791262D02*
X18653291Y-13831262D01*
X18653291Y-13791262D02*
X18613291Y-13831262D01*
X18613297Y-11410010D02*
X18653297Y-11450010D01*
X18653297Y-11410010D02*
X18613297Y-11450010D01*
X18613297Y-11826729D02*
X18653297Y-11866729D01*
X18653297Y-11826729D02*
X18613297Y-11866729D01*
X18613297Y-14207981D02*
X18653297Y-14247981D01*
X18653297Y-14207981D02*
X18613297Y-14247981D01*
X18791891Y-16648764D02*
X18831891Y-16688764D01*
X18831891Y-16648764D02*
X18791891Y-16688764D01*
X19089547Y-19506266D02*
X19129547Y-19546266D01*
X19129547Y-19506266D02*
X19089547Y-19546266D01*
X19089547Y-19922986D02*
X19129547Y-19962986D01*
X19129547Y-19922986D02*
X19089547Y-19962986D01*
X19268141Y-10457509D02*
X19308141Y-10497509D01*
X19308141Y-10457509D02*
X19268141Y-10497509D01*
X19268141Y-12838761D02*
X19308141Y-12878761D01*
X19308141Y-12838761D02*
X19268141Y-12878761D01*
X19565791Y-15696263D02*
X19605791Y-15736263D01*
X19605791Y-15696263D02*
X19565791Y-15736263D01*
X19565798Y-16112982D02*
X19605798Y-16152982D01*
X19605798Y-16112982D02*
X19565798Y-16152982D01*
X19744392Y-18553766D02*
X19784392Y-18593766D01*
X19784392Y-18553766D02*
X19744392Y-18593766D01*
X20042042Y-18017984D02*
X20082042Y-18057984D01*
X20082042Y-18017984D02*
X20042042Y-18057984D01*
X20042048Y-17601265D02*
X20082048Y-17641265D01*
X20082048Y-17601265D02*
X20042048Y-17641265D01*
X20220642Y-14743762D02*
X20260642Y-14783762D01*
X20260642Y-14743762D02*
X20220642Y-14783762D01*
X20458767Y-20458767D02*
X20498767Y-20498767D01*
X20498767Y-20458767D02*
X20458767Y-20498767D01*
X20518291Y-11410010D02*
X20558291Y-11450010D01*
X20558291Y-11410010D02*
X20518291Y-11450010D01*
X20518291Y-11826729D02*
X20558291Y-11866729D01*
X20558291Y-11826729D02*
X20518291Y-11866729D01*
X20518299Y-13791262D02*
X20558299Y-13831262D01*
X20558299Y-13791262D02*
X20518299Y-13831262D01*
X20518299Y-14207981D02*
X20558299Y-14247981D01*
X20558299Y-14207981D02*
X20518299Y-14247981D01*
X20696892Y-16648764D02*
X20736892Y-16688764D01*
X20736892Y-16648764D02*
X20696892Y-16688764D01*
X21173143Y-10457509D02*
X21213143Y-10497509D01*
X21213143Y-10457509D02*
X21173143Y-10497509D01*
X21173143Y-12838761D02*
X21213143Y-12878761D01*
X21213143Y-12838761D02*
X21173143Y-12878761D01*
X21470799Y-15696263D02*
X21510799Y-15736263D01*
X21510799Y-15696263D02*
X21470799Y-15736263D01*
X21470799Y-16112982D02*
X21510799Y-16152982D01*
X21510799Y-16112982D02*
X21470799Y-16152982D01*
X21649393Y-18553766D02*
X21689393Y-18593766D01*
X21689393Y-18553766D02*
X21649393Y-18593766D01*
X21947042Y-18017984D02*
X21987042Y-18057984D01*
X21987042Y-18017984D02*
X21947042Y-18057984D01*
X21947050Y-17601265D02*
X21987050Y-17641265D01*
X21987050Y-17601265D02*
X21947050Y-17641265D01*
X22125644Y-14743762D02*
X22165644Y-14783762D01*
X22165644Y-14743762D02*
X22125644Y-14783762D01*
X22423290Y-13791262D02*
X22463290Y-13831262D01*
X22463290Y-13791262D02*
X22423290Y-13831262D01*
X22423300Y-11410010D02*
X22463300Y-11450010D01*
X22463300Y-11410010D02*
X22423300Y-11450010D01*
X22423300Y-11826729D02*
X22463300Y-11866729D01*
X22463300Y-11826729D02*
X22423300Y-11866729D01*
X22423300Y-14207981D02*
X22463300Y-14247981D01*
X22463300Y-14207981D02*
X22423300Y-14247981D01*
X22601894Y-16648764D02*
X22641894Y-16688764D01*
X22641894Y-16648764D02*
X22601894Y-16688764D01*
X22899550Y-19506266D02*
X22939550Y-19546266D01*
X22939550Y-19506266D02*
X22899550Y-19546266D01*
X22899550Y-19922986D02*
X22939550Y-19962986D01*
X22939550Y-19922986D02*
X22899550Y-19962986D01*
X23078144Y-10457509D02*
X23118144Y-10497509D01*
X23118144Y-10457509D02*
X23078144Y-10497509D01*
X23078144Y-12838761D02*
X23118144Y-12878761D01*
X23118144Y-12838761D02*
X23078144Y-12878761D01*
X23375791Y-15696263D02*
X23415791Y-15736263D01*
X23415791Y-15696263D02*
X23375791Y-15736263D01*
X23375801Y-16112982D02*
X23415801Y-16152982D01*
X23415801Y-16112982D02*
X23375801Y-16152982D01*
X23554395Y-18553766D02*
X23594395Y-18593766D01*
X23594395Y-18553766D02*
X23554395Y-18593766D01*
X23792520Y-20458767D02*
X23832520Y-20498767D01*
X23832520Y-20458767D02*
X23792520Y-20498767D01*
X23852042Y-18017984D02*
X23892042Y-18057984D01*
X23892042Y-18017984D02*
X23852042Y-18057984D01*
X23852051Y-17601265D02*
X23892051Y-17641265D01*
X23892051Y-17601265D02*
X23852051Y-17641265D01*
X24030645Y-14743762D02*
X24070645Y-14783762D01*
X24070645Y-14743762D02*
X24030645Y-14783762D01*
X24328290Y-11410010D02*
X24368290Y-11450010D01*
X24368290Y-11410010D02*
X24328290Y-11450010D01*
X24328290Y-13791262D02*
X24368290Y-13831262D01*
X24368290Y-13791262D02*
X24328290Y-13831262D01*
X24328302Y-11826729D02*
X24368302Y-11866729D01*
X24368302Y-11826729D02*
X24328302Y-11866729D01*
X24328302Y-14207981D02*
X24368302Y-14247981D01*
X24368302Y-14207981D02*
X24328302Y-14247981D01*
X24506896Y-16648764D02*
X24546896Y-16688764D01*
X24546896Y-16648764D02*
X24506896Y-16688764D01*
X24804552Y-19506266D02*
X24844552Y-19546266D01*
X24844552Y-19506266D02*
X24804552Y-19546266D01*
X24804552Y-19922986D02*
X24844552Y-19962986D01*
X24844552Y-19922986D02*
X24804552Y-19962986D01*
X24983146Y-10457509D02*
X25023146Y-10497509D01*
X25023146Y-10457509D02*
X24983146Y-10497509D01*
X24983146Y-12838761D02*
X25023146Y-12878761D01*
X25023146Y-12838761D02*
X24983146Y-12878761D01*
X25280791Y-15696263D02*
X25320791Y-15736263D01*
X25320791Y-15696263D02*
X25280791Y-15736263D01*
X25280802Y-16112982D02*
X25320802Y-16152982D01*
X25320802Y-16112982D02*
X25280802Y-16152982D01*
X25459396Y-18553766D02*
X25499396Y-18593766D01*
X25499396Y-18553766D02*
X25459396Y-18593766D01*
X25757042Y-18017984D02*
X25797042Y-18057984D01*
X25797042Y-18017984D02*
X25757042Y-18057984D01*
X25757053Y-17601265D02*
X25797053Y-17641265D01*
X25797053Y-17601265D02*
X25757053Y-17641265D01*
X25935647Y-14743762D02*
X25975647Y-14783762D01*
X25975647Y-14743762D02*
X25935647Y-14783762D01*
X26173772Y-20458767D02*
X26213772Y-20498767D01*
X26213772Y-20458767D02*
X26173772Y-20498767D01*
X26233290Y-13791262D02*
X26273290Y-13831262D01*
X26273290Y-13791262D02*
X26233290Y-13831262D01*
X26233303Y-11410010D02*
X26273303Y-11450010D01*
X26273303Y-11410010D02*
X26233303Y-11450010D01*
X26233303Y-11826729D02*
X26273303Y-11866729D01*
X26273303Y-11826729D02*
X26233303Y-11866729D01*
X26233303Y-14207981D02*
X26273303Y-14247981D01*
X26273303Y-14207981D02*
X26233303Y-14247981D01*
X26411897Y-16648764D02*
X26451897Y-16688764D01*
X26451897Y-16648764D02*
X26411897Y-16688764D01*
X26888148Y-10457509D02*
X26928148Y-10497509D01*
X26928148Y-10457509D02*
X26888148Y-10497509D01*
X26888148Y-12838761D02*
X26928148Y-12878761D01*
X26928148Y-12838761D02*
X26888148Y-12878761D01*
X27185791Y-15696263D02*
X27225791Y-15736263D01*
X27225791Y-15696263D02*
X27185791Y-15736263D01*
X27185804Y-16112982D02*
X27225804Y-16152982D01*
X27225804Y-16112982D02*
X27185804Y-16152982D01*
X27364398Y-18553766D02*
X27404398Y-18593766D01*
X27404398Y-18553766D02*
X27364398Y-18593766D01*
X27662042Y-18017984D02*
X27702042Y-18057984D01*
X27702042Y-18017984D02*
X27662042Y-18057984D01*
X27662054Y-17601265D02*
X27702054Y-17641265D01*
X27702054Y-17601265D02*
X27662054Y-17641265D01*
X27840648Y-14743762D02*
X27880648Y-14783762D01*
X27880648Y-14743762D02*
X27840648Y-14783762D01*
X28138290Y-11410010D02*
X28178290Y-11450010D01*
X28178290Y-11410010D02*
X28138290Y-11450010D01*
X28138290Y-11826729D02*
X28178290Y-11866729D01*
X28178290Y-11826729D02*
X28138290Y-11866729D01*
X28138305Y-13791262D02*
X28178305Y-13831262D01*
X28178305Y-13791262D02*
X28138305Y-13831262D01*
X28138305Y-14207981D02*
X28178305Y-14247981D01*
X28178305Y-14207981D02*
X28138305Y-14247981D01*
X28316899Y-16648764D02*
X28356899Y-16688764D01*
X28356899Y-16648764D02*
X28316899Y-16688764D01*
X28555024Y-20458767D02*
X28595024Y-20498767D01*
X28595024Y-20458767D02*
X28555024Y-20498767D01*
X28793149Y-10457509D02*
X28833149Y-10497509D01*
X28833149Y-10457509D02*
X28793149Y-10497509D01*
X28793149Y-12838761D02*
X28833149Y-12878761D01*
X28833149Y-12838761D02*
X28793149Y-12878761D01*
X28971743Y-16648764D02*
X29011743Y-16688764D01*
X29011743Y-16648764D02*
X28971743Y-16688764D01*
X28971743Y-18017984D02*
X29011743Y-18057984D01*
X29011743Y-18017984D02*
X28971743Y-18057984D01*
X28971743Y-19506266D02*
X29011743Y-19546266D01*
X29011743Y-19506266D02*
X28971743Y-19546266D01*
X28971743Y-19922986D02*
X29011743Y-19962986D01*
X29011743Y-19922986D02*
X28971743Y-19962986D01*
X29090791Y-15696263D02*
X29130791Y-15736263D01*
X29130791Y-15696263D02*
X29090791Y-15736263D01*
X29090791Y-16112997D02*
X29130791Y-16152997D01*
X29130791Y-16112997D02*
X29090791Y-16152997D01*
X29328931Y-19506266D02*
X29368931Y-19546266D01*
X29368931Y-19506266D02*
X29328931Y-19546266D01*
X29328931Y-19922986D02*
X29368931Y-19962986D01*
X29368931Y-19922986D02*
X29328931Y-19962986D01*
X29626587Y-14624700D02*
X29666587Y-14664700D01*
X29666587Y-14624700D02*
X29626587Y-14664700D01*
X29983775Y-18553766D02*
X30023775Y-18593766D01*
X30023775Y-18553766D02*
X29983775Y-18593766D01*
X30043306Y-11410010D02*
X30083306Y-11450010D01*
X30083306Y-11410010D02*
X30043306Y-11450010D01*
X30043306Y-11826729D02*
X30083306Y-11866729D01*
X30083306Y-11826729D02*
X30043306Y-11866729D01*
X30043306Y-13791262D02*
X30083306Y-13831262D01*
X30083306Y-13791262D02*
X30043306Y-13831262D01*
X30043306Y-14207981D02*
X30083306Y-14247981D01*
X30083306Y-14207981D02*
X30043306Y-14247981D01*
X30460026Y-12838761D02*
X30500026Y-12878761D01*
X30500026Y-12838761D02*
X30460026Y-12878761D01*
X30519557Y-14684231D02*
X30559557Y-14724231D01*
X30559557Y-14684231D02*
X30519557Y-14724231D01*
X30519557Y-16112982D02*
X30559557Y-16152982D01*
X30559557Y-16112982D02*
X30519557Y-16152982D01*
X30638619Y-17601265D02*
X30678619Y-17641265D01*
X30678619Y-17601265D02*
X30638619Y-17641265D01*
X30638619Y-18017984D02*
X30678619Y-18057984D01*
X30678619Y-18017984D02*
X30638619Y-18057984D01*
X30698151Y-10457509D02*
X30738151Y-10497509D01*
X30738151Y-10457509D02*
X30698151Y-10497509D01*
X30698151Y-20458767D02*
X30738151Y-20498767D01*
X30738151Y-20458767D02*
X30698151Y-20498767D01*
X30936276Y-16529701D02*
X30976276Y-16569701D01*
X30976276Y-16529701D02*
X30936276Y-16569701D01*
X30995807Y-13791262D02*
X31035807Y-13831262D01*
X31035807Y-13791262D02*
X30995807Y-13831262D01*
X30995807Y-14207981D02*
X31035807Y-14247981D01*
X31035807Y-14207981D02*
X30995807Y-14247981D01*
X31412526Y-15696263D02*
X31452526Y-15736263D01*
X31452526Y-15696263D02*
X31412526Y-15736263D01*
X31412526Y-16112982D02*
X31452526Y-16152982D01*
X31452526Y-16112982D02*
X31412526Y-16152982D01*
X31650652Y-12838761D02*
X31690652Y-12878761D01*
X31690652Y-12838761D02*
X31650652Y-12878761D01*
X31948308Y-11410010D02*
X31988308Y-11450010D01*
X31988308Y-11410010D02*
X31948308Y-11450010D01*
X31948308Y-11826729D02*
X31988308Y-11866729D01*
X31988308Y-11826729D02*
X31948308Y-11866729D01*
X31948308Y-19506266D02*
X31988308Y-19546266D01*
X31988308Y-19506266D02*
X31948308Y-19546266D01*
X31948308Y-19922986D02*
X31988308Y-19962986D01*
X31988308Y-19922986D02*
X31948308Y-19962986D01*
X32067371Y-16589233D02*
X32107371Y-16629233D01*
X32107371Y-16589233D02*
X32067371Y-16629233D01*
X32067371Y-18017984D02*
X32107371Y-18057984D01*
X32107371Y-18017984D02*
X32067371Y-18057984D01*
X32245965Y-14743762D02*
X32285965Y-14783762D01*
X32285965Y-14743762D02*
X32245965Y-14783762D01*
X32603152Y-10457509D02*
X32643152Y-10497509D01*
X32643152Y-10457509D02*
X32603152Y-10497509D01*
X32603152Y-18553766D02*
X32643152Y-18593766D01*
X32643152Y-18553766D02*
X32603152Y-18593766D01*
X32603152Y-20458767D02*
X32643152Y-20498767D01*
X32643152Y-20458767D02*
X32603152Y-20498767D01*
X32781746Y-16648764D02*
X32821746Y-16688764D01*
X32821746Y-16648764D02*
X32781746Y-16688764D01*
X33853310Y-11410010D02*
X33893310Y-11450010D01*
X33893310Y-11410010D02*
X33853310Y-11450010D01*
X33853310Y-11826729D02*
X33893310Y-11866729D01*
X33893310Y-11826729D02*
X33853310Y-11866729D01*
X33853310Y-13791262D02*
X33893310Y-13831262D01*
X33893310Y-13791262D02*
X33853310Y-13831262D01*
X33853310Y-14207981D02*
X33893310Y-14247981D01*
X33893310Y-14207981D02*
X33853310Y-14247981D01*
X33853310Y-15696263D02*
X33893310Y-15736263D01*
X33893310Y-15696263D02*
X33853310Y-15736263D01*
X33853310Y-16112982D02*
X33893310Y-16152982D01*
X33893310Y-16112982D02*
X33853310Y-16152982D01*
X33853310Y-17601265D02*
X33893310Y-17641265D01*
X33893310Y-17601265D02*
X33853310Y-17641265D01*
X33853310Y-18017984D02*
X33893310Y-18057984D01*
X33893310Y-18017984D02*
X33853310Y-18057984D01*
X33853310Y-19506266D02*
X33893310Y-19546266D01*
X33893310Y-19506266D02*
X33853310Y-19546266D01*
X33853310Y-19922986D02*
X33893310Y-19962986D01*
X33893310Y-19922986D02*
X33853310Y-19962986D01*
X34508154Y-10457509D02*
X34548154Y-10497509D01*
X34548154Y-10457509D02*
X34508154Y-10497509D01*
X34508154Y-12838761D02*
X34548154Y-12878761D01*
X34548154Y-12838761D02*
X34508154Y-12878761D01*
X34508154Y-14743762D02*
X34548154Y-14783762D01*
X34548154Y-14743762D02*
X34508154Y-14783762D01*
X34508154Y-16648761D02*
X34548154Y-16688761D01*
X34548154Y-16648761D02*
X34508154Y-16688761D01*
X34508154Y-18553766D02*
X34548154Y-18593766D01*
X34548154Y-18553766D02*
X34508154Y-18593766D01*
X34508154Y-20458761D02*
X34548154Y-20498761D01*
X34548154Y-20458761D02*
X34508154Y-20498761D01*
X34627217Y-12124385D02*
X34667217Y-12164385D01*
X34667217Y-12124385D02*
X34627217Y-12164385D01*
X35698780Y-14505637D02*
X35738780Y-14545637D01*
X35738780Y-14505637D02*
X35698780Y-14545637D01*
X35698780Y-16410639D02*
X35738780Y-16450639D01*
X35738780Y-16410639D02*
X35698780Y-16450639D01*
X35698780Y-18315640D02*
X35738780Y-18355640D01*
X35738780Y-18315640D02*
X35698780Y-18355640D01*
X35698780Y-20220642D02*
X35738780Y-20260642D01*
X35738780Y-20220642D02*
X35698780Y-20260642D01*
X36234562Y-13791262D02*
X36274562Y-13831262D01*
X36274562Y-13791262D02*
X36234562Y-13831262D01*
X36234562Y-14637618D02*
X36274562Y-14677618D01*
X36274562Y-14637618D02*
X36234562Y-14677618D01*
X36234562Y-15696263D02*
X36274562Y-15736263D01*
X36274562Y-15696263D02*
X36234562Y-15736263D01*
X36234562Y-16542620D02*
X36274562Y-16582620D01*
X36274562Y-16542620D02*
X36234562Y-16582620D01*
X36234562Y-17601265D02*
X36274562Y-17641265D01*
X36274562Y-17601265D02*
X36234562Y-17641265D01*
X36234562Y-18434703D02*
X36274562Y-18474703D01*
X36274562Y-18434703D02*
X36234562Y-18474703D01*
X36234562Y-19506266D02*
X36274562Y-19546266D01*
X36274562Y-19506266D02*
X36234562Y-19546266D01*
X36234562Y-20339705D02*
X36274562Y-20379705D01*
X36274562Y-20339705D02*
X36234562Y-20379705D01*
X36651281Y-12660167D02*
X36691281Y-12700167D01*
X36691281Y-12660167D02*
X36651281Y-12700167D01*
X36889406Y-12838761D02*
X36929406Y-12878761D01*
X36929406Y-12838761D02*
X36889406Y-12878761D01*
X36889406Y-14743762D02*
X36929406Y-14783762D01*
X36929406Y-14743762D02*
X36889406Y-14783762D01*
X36889406Y-16648764D02*
X36929406Y-16688764D01*
X36929406Y-16648764D02*
X36889406Y-16688764D01*
X36889406Y-18553761D02*
X36929406Y-18593761D01*
X36929406Y-18553761D02*
X36889406Y-18593761D01*
X36889406Y-20458767D02*
X36929406Y-20498767D01*
X36929406Y-20458767D02*
X36889406Y-20498767D01*
D13*
X6464380Y-8667758D02*
G75*
G03*
X6464380Y-8667758I-35000J0D01*
G01*
X6464380Y-9429758D02*
G75*
G03*
X6464380Y-9429758I-35000J0D01*
G01*
D14*
X5286605Y-8586001D02*
X5286605Y-8662201D01*
X5248505Y-8624101D02*
X5324705Y-8624101D01*
X5286605Y-8840001D02*
X5286605Y-8916201D01*
X5248505Y-8878101D02*
X5324705Y-8878101D01*
X5286605Y-9181314D02*
X5286605Y-9257514D01*
X5248505Y-9219414D02*
X5324705Y-9219414D01*
X5286605Y-9435314D02*
X5286605Y-9511514D01*
X5248505Y-9473414D02*
X5324705Y-9473414D01*
D15*
X5390846Y-8206713D02*
X5390846Y-8136002D01*
X5320134Y-8136002D01*
X5320134Y-8206713D01*
X5390846Y-8206713D01*
X5390846Y-9963113D02*
X5390846Y-9892402D01*
X5320134Y-9892402D01*
X5320134Y-9963113D01*
X5390846Y-9963113D01*
X5644846Y-8206713D02*
X5644846Y-8136002D01*
X5574134Y-8136002D01*
X5574134Y-8206713D01*
X5644846Y-8206713D01*
X5644846Y-9963113D02*
X5644846Y-9892402D01*
X5574134Y-9892402D01*
X5574134Y-9963113D01*
X5644846Y-9963113D01*
X5898846Y-8206713D02*
X5898846Y-8136002D01*
X5828134Y-8136002D01*
X5828134Y-8206713D01*
X5898846Y-8206713D01*
X5898846Y-9963113D02*
X5898846Y-9892402D01*
X5828134Y-9892402D01*
X5828134Y-9963113D01*
X5898846Y-9963113D01*
X6152846Y-8206713D02*
X6152846Y-8136002D01*
X6082134Y-8136002D01*
X6082134Y-8206713D01*
X6152846Y-8206713D01*
X6152846Y-9963113D02*
X6152846Y-9892402D01*
X6082134Y-9892402D01*
X6082134Y-9963113D01*
X6152846Y-9963113D01*
X6406846Y-8206713D02*
X6406846Y-8136002D01*
X6336134Y-8136002D01*
X6336134Y-8206713D01*
X6406846Y-8206713D01*
X6406846Y-9963113D02*
X6406846Y-9892402D01*
X6336134Y-9892402D01*
X6336134Y-9963113D01*
X6406846Y-9963113D01*
X6660846Y-8206713D02*
X6660846Y-8136002D01*
X6590134Y-8136002D01*
X6590134Y-8206713D01*
X6660846Y-8206713D01*
X6660846Y-9963113D02*
X6660846Y-9892402D01*
X6590134Y-9892402D01*
X6590134Y-9963113D01*
X6660846Y-9963113D01*
X6914846Y-8206713D02*
X6914846Y-8136002D01*
X6844134Y-8136002D01*
X6844134Y-8206713D01*
X6914846Y-8206713D01*
X6914846Y-9963113D02*
X6914846Y-9892402D01*
X6844134Y-9892402D01*
X6844134Y-9963113D01*
X6914846Y-9963113D01*
X6940981Y-11433606D02*
X6940981Y-11362894D01*
X6870269Y-11362894D01*
X6870269Y-11433606D01*
X6940981Y-11433606D01*
X6940981Y-11941606D02*
X6940981Y-11870894D01*
X6870269Y-11870894D01*
X6870269Y-11941606D01*
X6940981Y-11941606D01*
X6940981Y-13814856D02*
X6940981Y-13744144D01*
X6870269Y-13744144D01*
X6870269Y-13814856D01*
X6940981Y-13814856D01*
X6940981Y-14322856D02*
X6940981Y-14252144D01*
X6870269Y-14252144D01*
X6870269Y-14322856D01*
X6940981Y-14322856D01*
X7168846Y-8206713D02*
X7168846Y-8136002D01*
X7098134Y-8136002D01*
X7098134Y-8206713D01*
X7168846Y-8206713D01*
X7168846Y-9963113D02*
X7168846Y-9892402D01*
X7098134Y-9892402D01*
X7098134Y-9963113D01*
X7168846Y-9963113D01*
X7417231Y-15719856D02*
X7417231Y-15649144D01*
X7346519Y-15649144D01*
X7346519Y-15719856D01*
X7417231Y-15719856D01*
X7417231Y-16227856D02*
X7417231Y-16157144D01*
X7346519Y-16157144D01*
X7346519Y-16227856D01*
X7417231Y-16227856D01*
X7417231Y-21434856D02*
X7417231Y-21364144D01*
X7346519Y-21364144D01*
X7346519Y-21434856D01*
X7417231Y-21434856D01*
X7417231Y-21942856D02*
X7417231Y-21872144D01*
X7346519Y-21872144D01*
X7346519Y-21942856D01*
X7417231Y-21942856D01*
X7422846Y-8206713D02*
X7422846Y-8136002D01*
X7352134Y-8136002D01*
X7352134Y-8206713D01*
X7422846Y-8206713D01*
X7422846Y-9963113D02*
X7422846Y-9892402D01*
X7352134Y-9892402D01*
X7352134Y-9963113D01*
X7422846Y-9963113D01*
X7655356Y-17624856D02*
X7655356Y-17554144D01*
X7584644Y-17554144D01*
X7584644Y-17624856D01*
X7655356Y-17624856D01*
X7655356Y-18132856D02*
X7655356Y-18062144D01*
X7584644Y-18062144D01*
X7584644Y-18132856D01*
X7655356Y-18132856D01*
X7676846Y-8206713D02*
X7676846Y-8136002D01*
X7606134Y-8136002D01*
X7606134Y-8206713D01*
X7676846Y-8206713D01*
X7676846Y-9963113D02*
X7676846Y-9892402D01*
X7606134Y-9892402D01*
X7606134Y-9963113D01*
X7676846Y-9963113D01*
X7930846Y-8206713D02*
X7930846Y-8136002D01*
X7860134Y-8136002D01*
X7860134Y-8206713D01*
X7930846Y-8206713D01*
X7930846Y-9963113D02*
X7930846Y-9892402D01*
X7860134Y-9892402D01*
X7860134Y-9963113D01*
X7930846Y-9963113D01*
X8184846Y-8206713D02*
X8184846Y-8136002D01*
X8114134Y-8136002D01*
X8114134Y-8206713D01*
X8184846Y-8206713D01*
X8184846Y-9963113D02*
X8184846Y-9892402D01*
X8114134Y-9892402D01*
X8114134Y-9963113D01*
X8184846Y-9963113D01*
X8438846Y-8206713D02*
X8438846Y-8136002D01*
X8368134Y-8136002D01*
X8368134Y-8206713D01*
X8438846Y-8206713D01*
X8438846Y-9963113D02*
X8438846Y-9892402D01*
X8368134Y-9892402D01*
X8368134Y-9963113D01*
X8438846Y-9963113D01*
X8692846Y-8206713D02*
X8692846Y-8136002D01*
X8622134Y-8136002D01*
X8622134Y-8206713D01*
X8692846Y-8206713D01*
X8692846Y-9963113D02*
X8692846Y-9892402D01*
X8622134Y-9892402D01*
X8622134Y-9963113D01*
X8692846Y-9963113D01*
X8845981Y-11433606D02*
X8845981Y-11362894D01*
X8775269Y-11362894D01*
X8775269Y-11433606D01*
X8845981Y-11433606D01*
X8845981Y-11941606D02*
X8845981Y-11870894D01*
X8775269Y-11870894D01*
X8775269Y-11941606D01*
X8845981Y-11941606D01*
X8845981Y-13814856D02*
X8845981Y-13744144D01*
X8775269Y-13744144D01*
X8775269Y-13814856D01*
X8845981Y-13814856D01*
X8845981Y-14322856D02*
X8845981Y-14252144D01*
X8775269Y-14252144D01*
X8775269Y-14322856D01*
X8845981Y-14322856D01*
X8946846Y-8206713D02*
X8946846Y-8136002D01*
X8876134Y-8136002D01*
X8876134Y-8206713D01*
X8946846Y-8206713D01*
X8946846Y-9963113D02*
X8946846Y-9892402D01*
X8876134Y-9892402D01*
X8876134Y-9963113D01*
X8946846Y-9963113D01*
X9200846Y-8206713D02*
X9200846Y-8136002D01*
X9130134Y-8136002D01*
X9130134Y-8206713D01*
X9200846Y-8206713D01*
X9200846Y-9963113D02*
X9200846Y-9892402D01*
X9130134Y-9892402D01*
X9130134Y-9963113D01*
X9200846Y-9963113D01*
X9322231Y-19529856D02*
X9322231Y-19459144D01*
X9251519Y-19459144D01*
X9251519Y-19529856D01*
X9322231Y-19529856D01*
X9322231Y-20037856D02*
X9322231Y-19967144D01*
X9251519Y-19967144D01*
X9251519Y-20037856D01*
X9322231Y-20037856D01*
X9322231Y-21434856D02*
X9322231Y-21364144D01*
X9251519Y-21364144D01*
X9251519Y-21434856D01*
X9322231Y-21434856D01*
X9322231Y-21942856D02*
X9322231Y-21872144D01*
X9251519Y-21872144D01*
X9251519Y-21942856D01*
X9322231Y-21942856D01*
X9454846Y-8206713D02*
X9454846Y-8136002D01*
X9384134Y-8136002D01*
X9384134Y-8206713D01*
X9454846Y-8206713D01*
X9454846Y-9963113D02*
X9454846Y-9892402D01*
X9384134Y-9892402D01*
X9384134Y-9963113D01*
X9454846Y-9963113D01*
X9708846Y-8206713D02*
X9708846Y-8136002D01*
X9638134Y-8136002D01*
X9638134Y-8206713D01*
X9708846Y-8206713D01*
X9708846Y-9963113D02*
X9708846Y-9892402D01*
X9638134Y-9892402D01*
X9638134Y-9963113D01*
X9708846Y-9963113D01*
X9798481Y-15719856D02*
X9798481Y-15649144D01*
X9727769Y-15649144D01*
X9727769Y-15719856D01*
X9798481Y-15719856D01*
X9798481Y-16227856D02*
X9798481Y-16157144D01*
X9727769Y-16157144D01*
X9727769Y-16227856D01*
X9798481Y-16227856D01*
X9962846Y-8206713D02*
X9962846Y-8136002D01*
X9892134Y-8136002D01*
X9892134Y-8206713D01*
X9962846Y-8206713D01*
X9962846Y-9963113D02*
X9962846Y-9892402D01*
X9892134Y-9892402D01*
X9892134Y-9963113D01*
X9962846Y-9963113D01*
X10216846Y-8206713D02*
X10216846Y-8136002D01*
X10146134Y-8136002D01*
X10146134Y-8206713D01*
X10216846Y-8206713D01*
X10216846Y-9963113D02*
X10216846Y-9892402D01*
X10146134Y-9892402D01*
X10146134Y-9963113D01*
X10216846Y-9963113D01*
X10274731Y-17624856D02*
X10274731Y-17554144D01*
X10204019Y-17554144D01*
X10204019Y-17624856D01*
X10274731Y-17624856D01*
X10274731Y-18132856D02*
X10274731Y-18062144D01*
X10204019Y-18062144D01*
X10204019Y-18132856D01*
X10274731Y-18132856D01*
X10750981Y-11433606D02*
X10750981Y-11362894D01*
X10680269Y-11362894D01*
X10680269Y-11433606D01*
X10750981Y-11433606D01*
X10750981Y-11941606D02*
X10750981Y-11870894D01*
X10680269Y-11870894D01*
X10680269Y-11941606D01*
X10750981Y-11941606D01*
X10750981Y-13814856D02*
X10750981Y-13744144D01*
X10680269Y-13744144D01*
X10680269Y-13814856D01*
X10750981Y-13814856D01*
X10750981Y-14322856D02*
X10750981Y-14252144D01*
X10680269Y-14252144D01*
X10680269Y-14322856D01*
X10750981Y-14322856D01*
X11034271Y-9045363D02*
X11034271Y-8974652D01*
X10963560Y-8974652D01*
X10963560Y-9045363D01*
X11034271Y-9045363D01*
X11227231Y-19529856D02*
X11227231Y-19459144D01*
X11156519Y-19459144D01*
X11156519Y-19529856D01*
X11227231Y-19529856D01*
X11227231Y-20037856D02*
X11227231Y-19967144D01*
X11156519Y-19967144D01*
X11156519Y-20037856D01*
X11227231Y-20037856D01*
X11227231Y-21434856D02*
X11227231Y-21364144D01*
X11156519Y-21364144D01*
X11156519Y-21434856D01*
X11227231Y-21434856D01*
X11227231Y-21942856D02*
X11227231Y-21872144D01*
X11156519Y-21872144D01*
X11156519Y-21942856D01*
X11227231Y-21942856D01*
X11288271Y-9045363D02*
X11288271Y-8974652D01*
X11217560Y-8974652D01*
X11217560Y-9045363D01*
X11288271Y-9045363D01*
X11542271Y-9045363D02*
X11542271Y-8974652D01*
X11471560Y-8974652D01*
X11471560Y-9045363D01*
X11542271Y-9045363D01*
X11703481Y-15719856D02*
X11703481Y-15649144D01*
X11632769Y-15649144D01*
X11632769Y-15719856D01*
X11703481Y-15719856D01*
X11703481Y-16227856D02*
X11703481Y-16157144D01*
X11632769Y-16157144D01*
X11632769Y-16227856D01*
X11703481Y-16227856D01*
X12179731Y-17624856D02*
X12179731Y-17554144D01*
X12109019Y-17554144D01*
X12109019Y-17624856D01*
X12179731Y-17624856D01*
X12179731Y-18132856D02*
X12179731Y-18062144D01*
X12109019Y-18062144D01*
X12109019Y-18132856D01*
X12179731Y-18132856D01*
X12655981Y-11433606D02*
X12655981Y-11362894D01*
X12585269Y-11362894D01*
X12585269Y-11433606D01*
X12655981Y-11433606D01*
X12655981Y-11941606D02*
X12655981Y-11870894D01*
X12585269Y-11870894D01*
X12585269Y-11941606D01*
X12655981Y-11941606D01*
X12655981Y-13814856D02*
X12655981Y-13744144D01*
X12585269Y-13744144D01*
X12585269Y-13814856D01*
X12655981Y-13814856D01*
X12655981Y-14322856D02*
X12655981Y-14252144D01*
X12585269Y-14252144D01*
X12585269Y-14322856D01*
X12655981Y-14322856D01*
X13132231Y-19529856D02*
X13132231Y-19459144D01*
X13061519Y-19459144D01*
X13061519Y-19529856D01*
X13132231Y-19529856D01*
X13132231Y-20037856D02*
X13132231Y-19967144D01*
X13061519Y-19967144D01*
X13061519Y-20037856D01*
X13132231Y-20037856D01*
X13132231Y-21434856D02*
X13132231Y-21364144D01*
X13061519Y-21364144D01*
X13061519Y-21434856D01*
X13132231Y-21434856D01*
X13132231Y-21942856D02*
X13132231Y-21872144D01*
X13061519Y-21872144D01*
X13061519Y-21942856D01*
X13132231Y-21942856D01*
X13608481Y-15719856D02*
X13608481Y-15649144D01*
X13537769Y-15649144D01*
X13537769Y-15719856D01*
X13608481Y-15719856D01*
X13608481Y-16227856D02*
X13608481Y-16157144D01*
X13537769Y-16157144D01*
X13537769Y-16227856D01*
X13608481Y-16227856D01*
X14084731Y-17624856D02*
X14084731Y-17554144D01*
X14014019Y-17554144D01*
X14014019Y-17624856D01*
X14084731Y-17624856D01*
X14084731Y-18132856D02*
X14084731Y-18062144D01*
X14014019Y-18062144D01*
X14014019Y-18132856D01*
X14084731Y-18132856D01*
X14560981Y-11433606D02*
X14560981Y-11362894D01*
X14490269Y-11362894D01*
X14490269Y-11433606D01*
X14560981Y-11433606D01*
X14560981Y-11941606D02*
X14560981Y-11870894D01*
X14490269Y-11870894D01*
X14490269Y-11941606D01*
X14560981Y-11941606D01*
X14560981Y-13814856D02*
X14560981Y-13744144D01*
X14490269Y-13744144D01*
X14490269Y-13814856D01*
X14560981Y-13814856D01*
X14560981Y-14322856D02*
X14560981Y-14252144D01*
X14490269Y-14252144D01*
X14490269Y-14322856D01*
X14560981Y-14322856D01*
X15037231Y-19529856D02*
X15037231Y-19459144D01*
X14966519Y-19459144D01*
X14966519Y-19529856D01*
X15037231Y-19529856D01*
X15037231Y-20037856D02*
X15037231Y-19967144D01*
X14966519Y-19967144D01*
X14966519Y-20037856D01*
X15037231Y-20037856D01*
X15513481Y-15719856D02*
X15513481Y-15649144D01*
X15442769Y-15649144D01*
X15442769Y-15719856D01*
X15513481Y-15719856D01*
X15513481Y-16227856D02*
X15513481Y-16157144D01*
X15442769Y-16157144D01*
X15442769Y-16227856D01*
X15513481Y-16227856D01*
X15989731Y-17624856D02*
X15989731Y-17554144D01*
X15919019Y-17554144D01*
X15919019Y-17624856D01*
X15989731Y-17624856D01*
X15989731Y-18132856D02*
X15989731Y-18062144D01*
X15919019Y-18062144D01*
X15919019Y-18132856D01*
X15989731Y-18132856D01*
X16465981Y-11433606D02*
X16465981Y-11362894D01*
X16395269Y-11362894D01*
X16395269Y-11433606D01*
X16465981Y-11433606D01*
X16465981Y-11941606D02*
X16465981Y-11870894D01*
X16395269Y-11870894D01*
X16395269Y-11941606D01*
X16465981Y-11941606D01*
X16465981Y-13814856D02*
X16465981Y-13744144D01*
X16395269Y-13744144D01*
X16395269Y-13814856D01*
X16465981Y-13814856D01*
X16465981Y-14322856D02*
X16465981Y-14252144D01*
X16395269Y-14252144D01*
X16395269Y-14322856D01*
X16465981Y-14322856D01*
X16942231Y-19529856D02*
X16942231Y-19459144D01*
X16871519Y-19459144D01*
X16871519Y-19529856D01*
X16942231Y-19529856D01*
X16942231Y-20037856D02*
X16942231Y-19967144D01*
X16871519Y-19967144D01*
X16871519Y-20037856D01*
X16942231Y-20037856D01*
X17418481Y-15719856D02*
X17418481Y-15649144D01*
X17347769Y-15649144D01*
X17347769Y-15719856D01*
X17418481Y-15719856D01*
X17418481Y-16227856D02*
X17418481Y-16157144D01*
X17347769Y-16157144D01*
X17347769Y-16227856D01*
X17418481Y-16227856D01*
X17894731Y-17624856D02*
X17894731Y-17554144D01*
X17824019Y-17554144D01*
X17824019Y-17624856D01*
X17894731Y-17624856D01*
X17894731Y-18132856D02*
X17894731Y-18062144D01*
X17824019Y-18062144D01*
X17824019Y-18132856D01*
X17894731Y-18132856D01*
X18370981Y-11433606D02*
X18370981Y-11362894D01*
X18300269Y-11362894D01*
X18300269Y-11433606D01*
X18370981Y-11433606D01*
X18370981Y-11941606D02*
X18370981Y-11870894D01*
X18300269Y-11870894D01*
X18300269Y-11941606D01*
X18370981Y-11941606D01*
X18370981Y-13814856D02*
X18370981Y-13744144D01*
X18300269Y-13744144D01*
X18300269Y-13814856D01*
X18370981Y-13814856D01*
X18370981Y-14322856D02*
X18370981Y-14252144D01*
X18300269Y-14252144D01*
X18300269Y-14322856D01*
X18370981Y-14322856D01*
X18370981Y-21434856D02*
X18370981Y-21364144D01*
X18300269Y-21364144D01*
X18300269Y-21434856D01*
X18370981Y-21434856D01*
X18370981Y-21942856D02*
X18370981Y-21872144D01*
X18300269Y-21872144D01*
X18300269Y-21942856D01*
X18370981Y-21942856D01*
X18847231Y-19529856D02*
X18847231Y-19459144D01*
X18776519Y-19459144D01*
X18776519Y-19529856D01*
X18847231Y-19529856D01*
X18847231Y-20037856D02*
X18847231Y-19967144D01*
X18776519Y-19967144D01*
X18776519Y-20037856D01*
X18847231Y-20037856D01*
X19323481Y-15719856D02*
X19323481Y-15649144D01*
X19252769Y-15649144D01*
X19252769Y-15719856D01*
X19323481Y-15719856D01*
X19323481Y-16227856D02*
X19323481Y-16157144D01*
X19252769Y-16157144D01*
X19252769Y-16227856D01*
X19323481Y-16227856D01*
X19799731Y-17624856D02*
X19799731Y-17554144D01*
X19729019Y-17554144D01*
X19729019Y-17624856D01*
X19799731Y-17624856D01*
X19799731Y-18132856D02*
X19799731Y-18062144D01*
X19729019Y-18062144D01*
X19729019Y-18132856D01*
X19799731Y-18132856D01*
X20275981Y-11433606D02*
X20275981Y-11362894D01*
X20205269Y-11362894D01*
X20205269Y-11433606D01*
X20275981Y-11433606D01*
X20275981Y-11941606D02*
X20275981Y-11870894D01*
X20205269Y-11870894D01*
X20205269Y-11941606D01*
X20275981Y-11941606D01*
X20275981Y-13814856D02*
X20275981Y-13744144D01*
X20205269Y-13744144D01*
X20205269Y-13814856D01*
X20275981Y-13814856D01*
X20275981Y-14322856D02*
X20275981Y-14252144D01*
X20205269Y-14252144D01*
X20205269Y-14322856D01*
X20275981Y-14322856D01*
X20752231Y-19529856D02*
X20752231Y-19459144D01*
X20681519Y-19459144D01*
X20681519Y-19529856D01*
X20752231Y-19529856D01*
X20752231Y-20037856D02*
X20752231Y-19967144D01*
X20681519Y-19967144D01*
X20681519Y-20037856D01*
X20752231Y-20037856D01*
X21228481Y-15719856D02*
X21228481Y-15649144D01*
X21157769Y-15649144D01*
X21157769Y-15719856D01*
X21228481Y-15719856D01*
X21228481Y-16227856D02*
X21228481Y-16157144D01*
X21157769Y-16157144D01*
X21157769Y-16227856D01*
X21228481Y-16227856D01*
X21704731Y-17624856D02*
X21704731Y-17554144D01*
X21634019Y-17554144D01*
X21634019Y-17624856D01*
X21704731Y-17624856D01*
X21704731Y-18132856D02*
X21704731Y-18062144D01*
X21634019Y-18062144D01*
X21634019Y-18132856D01*
X21704731Y-18132856D01*
X22180981Y-11433606D02*
X22180981Y-11362894D01*
X22110269Y-11362894D01*
X22110269Y-11433606D01*
X22180981Y-11433606D01*
X22180981Y-11941606D02*
X22180981Y-11870894D01*
X22110269Y-11870894D01*
X22110269Y-11941606D01*
X22180981Y-11941606D01*
X22180981Y-13814856D02*
X22180981Y-13744144D01*
X22110269Y-13744144D01*
X22110269Y-13814856D01*
X22180981Y-13814856D01*
X22180981Y-14322856D02*
X22180981Y-14252144D01*
X22110269Y-14252144D01*
X22110269Y-14322856D01*
X22180981Y-14322856D01*
X22657231Y-19529856D02*
X22657231Y-19459144D01*
X22586519Y-19459144D01*
X22586519Y-19529856D01*
X22657231Y-19529856D01*
X22657231Y-20037856D02*
X22657231Y-19967144D01*
X22586519Y-19967144D01*
X22586519Y-20037856D01*
X22657231Y-20037856D01*
X22657231Y-21434856D02*
X22657231Y-21364144D01*
X22586519Y-21364144D01*
X22586519Y-21434856D01*
X22657231Y-21434856D01*
X22657231Y-21942856D02*
X22657231Y-21872144D01*
X22586519Y-21872144D01*
X22586519Y-21942856D01*
X22657231Y-21942856D01*
X23133481Y-15719856D02*
X23133481Y-15649144D01*
X23062769Y-15649144D01*
X23062769Y-15719856D01*
X23133481Y-15719856D01*
X23133481Y-16227856D02*
X23133481Y-16157144D01*
X23062769Y-16157144D01*
X23062769Y-16227856D01*
X23133481Y-16227856D01*
X23609731Y-17624856D02*
X23609731Y-17554144D01*
X23539019Y-17554144D01*
X23539019Y-17624856D01*
X23609731Y-17624856D01*
X23609731Y-18132856D02*
X23609731Y-18062144D01*
X23539019Y-18062144D01*
X23539019Y-18132856D01*
X23609731Y-18132856D01*
X24085981Y-11433606D02*
X24085981Y-11362894D01*
X24015269Y-11362894D01*
X24015269Y-11433606D01*
X24085981Y-11433606D01*
X24085981Y-11941606D02*
X24085981Y-11870894D01*
X24015269Y-11870894D01*
X24015269Y-11941606D01*
X24085981Y-11941606D01*
X24085981Y-13814856D02*
X24085981Y-13744144D01*
X24015269Y-13744144D01*
X24015269Y-13814856D01*
X24085981Y-13814856D01*
X24085981Y-14322856D02*
X24085981Y-14252144D01*
X24015269Y-14252144D01*
X24015269Y-14322856D01*
X24085981Y-14322856D01*
X24562231Y-19529856D02*
X24562231Y-19459144D01*
X24491519Y-19459144D01*
X24491519Y-19529856D01*
X24562231Y-19529856D01*
X24562231Y-20037856D02*
X24562231Y-19967144D01*
X24491519Y-19967144D01*
X24491519Y-20037856D01*
X24562231Y-20037856D01*
X24800356Y-21434856D02*
X24800356Y-21364144D01*
X24729644Y-21364144D01*
X24729644Y-21434856D01*
X24800356Y-21434856D01*
X24800356Y-21942856D02*
X24800356Y-21872144D01*
X24729644Y-21872144D01*
X24729644Y-21942856D01*
X24800356Y-21942856D01*
X25038481Y-15719856D02*
X25038481Y-15649144D01*
X24967769Y-15649144D01*
X24967769Y-15719856D01*
X25038481Y-15719856D01*
X25038481Y-16227856D02*
X25038481Y-16157144D01*
X24967769Y-16157144D01*
X24967769Y-16227856D01*
X25038481Y-16227856D01*
X25514731Y-17624856D02*
X25514731Y-17554144D01*
X25444019Y-17554144D01*
X25444019Y-17624856D01*
X25514731Y-17624856D01*
X25514731Y-18132856D02*
X25514731Y-18062144D01*
X25444019Y-18062144D01*
X25444019Y-18132856D01*
X25514731Y-18132856D01*
X25990981Y-11433606D02*
X25990981Y-11362894D01*
X25920269Y-11362894D01*
X25920269Y-11433606D01*
X25990981Y-11433606D01*
X25990981Y-11941606D02*
X25990981Y-11870894D01*
X25920269Y-11870894D01*
X25920269Y-11941606D01*
X25990981Y-11941606D01*
X25990981Y-13814856D02*
X25990981Y-13744144D01*
X25920269Y-13744144D01*
X25920269Y-13814856D01*
X25990981Y-13814856D01*
X25990981Y-14322856D02*
X25990981Y-14252144D01*
X25920269Y-14252144D01*
X25920269Y-14322856D01*
X25990981Y-14322856D01*
X26467231Y-19529856D02*
X26467231Y-19459144D01*
X26396519Y-19459144D01*
X26396519Y-19529856D01*
X26467231Y-19529856D01*
X26467231Y-20037856D02*
X26467231Y-19967144D01*
X26396519Y-19967144D01*
X26396519Y-20037856D01*
X26467231Y-20037856D01*
X26943481Y-15719856D02*
X26943481Y-15649144D01*
X26872769Y-15649144D01*
X26872769Y-15719856D01*
X26943481Y-15719856D01*
X26943481Y-16227856D02*
X26943481Y-16157144D01*
X26872769Y-16157144D01*
X26872769Y-16227856D01*
X26943481Y-16227856D01*
X27181606Y-21434856D02*
X27181606Y-21364144D01*
X27110894Y-21364144D01*
X27110894Y-21434856D01*
X27181606Y-21434856D01*
X27181606Y-21942856D02*
X27181606Y-21872144D01*
X27110894Y-21872144D01*
X27110894Y-21942856D01*
X27181606Y-21942856D01*
X27419731Y-17624856D02*
X27419731Y-17554144D01*
X27349019Y-17554144D01*
X27349019Y-17624856D01*
X27419731Y-17624856D01*
X27419731Y-18132856D02*
X27419731Y-18062144D01*
X27349019Y-18062144D01*
X27349019Y-18132856D01*
X27419731Y-18132856D01*
X27895981Y-11433606D02*
X27895981Y-11362894D01*
X27825269Y-11362894D01*
X27825269Y-11433606D01*
X27895981Y-11433606D01*
X27895981Y-11941606D02*
X27895981Y-11870894D01*
X27825269Y-11870894D01*
X27825269Y-11941606D01*
X27895981Y-11941606D01*
X27895981Y-13814856D02*
X27895981Y-13744144D01*
X27825269Y-13744144D01*
X27825269Y-13814856D01*
X27895981Y-13814856D01*
X27895981Y-14322856D02*
X27895981Y-14252144D01*
X27825269Y-14252144D01*
X27825269Y-14322856D01*
X27895981Y-14322856D01*
X28372231Y-19529856D02*
X28372231Y-19459144D01*
X28301519Y-19459144D01*
X28301519Y-19529856D01*
X28372231Y-19529856D01*
X28372231Y-20037856D02*
X28372231Y-19967144D01*
X28301519Y-19967144D01*
X28301519Y-20037856D01*
X28372231Y-20037856D01*
X28848481Y-15719856D02*
X28848481Y-15649144D01*
X28777769Y-15649144D01*
X28777769Y-15719856D01*
X28848481Y-15719856D01*
X28848481Y-16227856D02*
X28848481Y-16157144D01*
X28777769Y-16157144D01*
X28777769Y-16227856D01*
X28848481Y-16227856D01*
X29324731Y-17624856D02*
X29324731Y-17554144D01*
X29254019Y-17554144D01*
X29254019Y-17624856D01*
X29324731Y-17624856D01*
X29324731Y-18132856D02*
X29324731Y-18062144D01*
X29254019Y-18062144D01*
X29254019Y-18132856D01*
X29324731Y-18132856D01*
X29562856Y-21434856D02*
X29562856Y-21364144D01*
X29492144Y-21364144D01*
X29492144Y-21434856D01*
X29562856Y-21434856D01*
X29562856Y-21942856D02*
X29562856Y-21872144D01*
X29492144Y-21872144D01*
X29492144Y-21942856D01*
X29562856Y-21942856D01*
X29800981Y-11433606D02*
X29800981Y-11362894D01*
X29730269Y-11362894D01*
X29730269Y-11433606D01*
X29800981Y-11433606D01*
X29800981Y-11941606D02*
X29800981Y-11870894D01*
X29730269Y-11870894D01*
X29730269Y-11941606D01*
X29800981Y-11941606D01*
X29800981Y-13814856D02*
X29800981Y-13744144D01*
X29730269Y-13744144D01*
X29730269Y-13814856D01*
X29800981Y-13814856D01*
X29800981Y-14322856D02*
X29800981Y-14252144D01*
X29730269Y-14252144D01*
X29730269Y-14322856D01*
X29800981Y-14322856D01*
X30991606Y-15719856D02*
X30991606Y-15649144D01*
X30920894Y-15649144D01*
X30920894Y-15719856D01*
X30991606Y-15719856D01*
X30991606Y-16227856D02*
X30991606Y-16157144D01*
X30920894Y-16157144D01*
X30920894Y-16227856D01*
X30991606Y-16227856D01*
X31705981Y-11433606D02*
X31705981Y-11362894D01*
X31635269Y-11362894D01*
X31635269Y-11433606D01*
X31705981Y-11433606D01*
X31705981Y-11941606D02*
X31705981Y-11870894D01*
X31635269Y-11870894D01*
X31635269Y-11941606D01*
X31705981Y-11941606D01*
X31705981Y-19529856D02*
X31705981Y-19459144D01*
X31635269Y-19459144D01*
X31635269Y-19529856D01*
X31705981Y-19529856D01*
X31705981Y-20037856D02*
X31705981Y-19967144D01*
X31635269Y-19967144D01*
X31635269Y-20037856D01*
X31705981Y-20037856D01*
X31705981Y-21434856D02*
X31705981Y-21364144D01*
X31635269Y-21364144D01*
X31635269Y-21434856D01*
X31705981Y-21434856D01*
X31705981Y-21942856D02*
X31705981Y-21872144D01*
X31635269Y-21872144D01*
X31635269Y-21942856D01*
X31705981Y-21942856D01*
X33610981Y-11433606D02*
X33610981Y-11362894D01*
X33540269Y-11362894D01*
X33540269Y-11433606D01*
X33610981Y-11433606D01*
X33610981Y-11941606D02*
X33610981Y-11870894D01*
X33540269Y-11870894D01*
X33540269Y-11941606D01*
X33610981Y-11941606D01*
X33610981Y-13814868D02*
X33610981Y-13744156D01*
X33540269Y-13744156D01*
X33540269Y-13814868D01*
X33610981Y-13814868D01*
X33610981Y-14322868D02*
X33610981Y-14252156D01*
X33540269Y-14252156D01*
X33540269Y-14322868D01*
X33610981Y-14322868D01*
X33610981Y-15719856D02*
X33610981Y-15649144D01*
X33540269Y-15649144D01*
X33540269Y-15719856D01*
X33610981Y-15719856D01*
X33610981Y-16227856D02*
X33610981Y-16157144D01*
X33540269Y-16157144D01*
X33540269Y-16227856D01*
X33610981Y-16227856D01*
X33610981Y-17624856D02*
X33610981Y-17554144D01*
X33540269Y-17554144D01*
X33540269Y-17624856D01*
X33610981Y-17624856D01*
X33610981Y-18132856D02*
X33610981Y-18062144D01*
X33540269Y-18062144D01*
X33540269Y-18132856D01*
X33610981Y-18132856D01*
X33610981Y-19529856D02*
X33610981Y-19459144D01*
X33540269Y-19459144D01*
X33540269Y-19529856D01*
X33610981Y-19529856D01*
X33610981Y-20037856D02*
X33610981Y-19967144D01*
X33540269Y-19967144D01*
X33540269Y-20037856D01*
X33610981Y-20037856D01*
X33610981Y-21434856D02*
X33610981Y-21364144D01*
X33540269Y-21364144D01*
X33540269Y-21434856D01*
X33610981Y-21434856D01*
X33610981Y-21942856D02*
X33610981Y-21872144D01*
X33540269Y-21872144D01*
X33540269Y-21942856D01*
X33610981Y-21942856D01*
X35515981Y-11433606D02*
X35515981Y-11362894D01*
X35445269Y-11362894D01*
X35445269Y-11433606D01*
X35515981Y-11433606D01*
X35515981Y-11941606D02*
X35515981Y-11870894D01*
X35445269Y-11870894D01*
X35445269Y-11941606D01*
X35515981Y-11941606D01*
X35515981Y-13814856D02*
X35515981Y-13744144D01*
X35445269Y-13744144D01*
X35445269Y-13814856D01*
X35515981Y-13814856D01*
X35515981Y-14322856D02*
X35515981Y-14252144D01*
X35445269Y-14252144D01*
X35445269Y-14322856D01*
X35515981Y-14322856D01*
X35515981Y-15719856D02*
X35515981Y-15649144D01*
X35445269Y-15649144D01*
X35445269Y-15719856D01*
X35515981Y-15719856D01*
X35515981Y-16227856D02*
X35515981Y-16157144D01*
X35445269Y-16157144D01*
X35445269Y-16227856D01*
X35515981Y-16227856D01*
X35515981Y-17624856D02*
X35515981Y-17554144D01*
X35445269Y-17554144D01*
X35445269Y-17624856D01*
X35515981Y-17624856D01*
X35515981Y-18132856D02*
X35515981Y-18062144D01*
X35445269Y-18062144D01*
X35445269Y-18132856D01*
X35515981Y-18132856D01*
X35515981Y-19529856D02*
X35515981Y-19459144D01*
X35445269Y-19459144D01*
X35445269Y-19529856D01*
X35515981Y-19529856D01*
X35515981Y-20037856D02*
X35515981Y-19967144D01*
X35445269Y-19967144D01*
X35445269Y-20037856D01*
X35515981Y-20037856D01*
X35515981Y-21434856D02*
X35515981Y-21364144D01*
X35445269Y-21364144D01*
X35445269Y-21434856D01*
X35515981Y-21434856D01*
X35515981Y-21942856D02*
X35515981Y-21872144D01*
X35445269Y-21872144D01*
X35445269Y-21942856D01*
X35515981Y-21942856D01*
X35992231Y-13814856D02*
X35992231Y-13744144D01*
X35921519Y-13744144D01*
X35921519Y-13814856D01*
X35992231Y-13814856D01*
X35992231Y-14322856D02*
X35992231Y-14252144D01*
X35921519Y-14252144D01*
X35921519Y-14322856D01*
X35992231Y-14322856D01*
X35992231Y-15719856D02*
X35992231Y-15649144D01*
X35921519Y-15649144D01*
X35921519Y-15719856D01*
X35992231Y-15719856D01*
X35992231Y-16227856D02*
X35992231Y-16157144D01*
X35921519Y-16157144D01*
X35921519Y-16227856D01*
X35992231Y-16227856D01*
X35992231Y-17624856D02*
X35992231Y-17554144D01*
X35921519Y-17554144D01*
X35921519Y-17624856D01*
X35992231Y-17624856D01*
X35992231Y-18132856D02*
X35992231Y-18062144D01*
X35921519Y-18062144D01*
X35921519Y-18132856D01*
X35992231Y-18132856D01*
X35992231Y-19529856D02*
X35992231Y-19459144D01*
X35921519Y-19459144D01*
X35921519Y-19529856D01*
X35992231Y-19529856D01*
X35992231Y-20037856D02*
X35992231Y-19967144D01*
X35921519Y-19967144D01*
X35921519Y-20037856D01*
X35992231Y-20037856D01*
X35992231Y-21434856D02*
X35992231Y-21364144D01*
X35921519Y-21364144D01*
X35921519Y-21434856D01*
X35992231Y-21434856D01*
X35992231Y-21942856D02*
X35992231Y-21872144D01*
X35921519Y-21872144D01*
X35921519Y-21942856D01*
X35992231Y-21942856D01*
X35992321Y-11433636D02*
X35992321Y-11362924D01*
X35921610Y-11362924D01*
X35921610Y-11433636D01*
X35992321Y-11433636D01*
X35992321Y-11941636D02*
X35992321Y-11870924D01*
X35921610Y-11870924D01*
X35921610Y-11941636D01*
X35992321Y-11941636D01*
X36694731Y-10477231D02*
X36694731Y-10406519D01*
X36624019Y-10406519D01*
X36624019Y-10477231D01*
X36694731Y-10477231D01*
X36694731Y-11927231D02*
X36694731Y-11856519D01*
X36624019Y-11856519D01*
X36624019Y-11927231D01*
X36694731Y-11927231D01*
X36944731Y-10477231D02*
X36944731Y-10406519D01*
X36874019Y-10406519D01*
X36874019Y-10477231D01*
X36944731Y-10477231D01*
X37194731Y-10477231D02*
X37194731Y-10406519D01*
X37124019Y-10406519D01*
X37124019Y-10477231D01*
X37194731Y-10477231D01*
X37194731Y-11927231D02*
X37194731Y-11856519D01*
X37124019Y-11856519D01*
X37124019Y-11927231D01*
X37194731Y-11927231D01*
D16*
X36684375Y-10921875D02*
X36739375Y-10866875D01*
X36684375Y-10811875D01*
X36629375Y-10866875D01*
X36684375Y-10921875D01*
X36684375Y-11571875D02*
X36739375Y-11516875D01*
X36684375Y-11461875D01*
X36629375Y-11516875D01*
X36684375Y-11571875D01*
X37134375Y-10921875D02*
X37189375Y-10866875D01*
X37134375Y-10811875D01*
X37079375Y-10866875D01*
X37134375Y-10921875D01*
X37134375Y-11571875D02*
X37189375Y-11516875D01*
X37134375Y-11461875D01*
X37079375Y-11516875D01*
X37134375Y-11571875D01*
D17*
X36274375Y-11116875D02*
X36424375Y-11266875D01*
X36424375Y-11116875D02*
X36274375Y-11266875D01*
X36424375Y-11191875D02*
G75*
G03*
X36424375Y-11191875I-75000J0D01*
G01*
D11*
X36284375Y-11126875D02*
X36284375Y-11256875D01*
X36414375Y-11126875D02*
X36414375Y-11256875D01*
X36284375Y-11256875D02*
G75*
G03*
X36414375Y-11256875I65000J0D01*
G01*
X36414375Y-11126875D02*
G75*
G03*
X36284375Y-11126875I-65000J0D01*
G01*
D17*
X37394375Y-11116875D02*
X37544375Y-11266875D01*
X37544375Y-11116875D02*
X37394375Y-11266875D01*
X37544375Y-11191875D02*
G75*
G03*
X37544375Y-11191875I-75000J0D01*
G01*
D11*
X37404375Y-11126875D02*
X37404375Y-11256875D01*
X37534375Y-11126875D02*
X37534375Y-11256875D01*
X37404375Y-11256875D02*
G75*
G03*
X37534375Y-11256875I65000J0D01*
G01*
X37534375Y-11126875D02*
G75*
G03*
X37404375Y-11126875I-65000J0D01*
G01*
X5253244Y-22461101D02*
X5253244Y-22261101D01*
X5300863Y-22261101D01*
X5329434Y-22270625D01*
X5348482Y-22289673D01*
X5358006Y-22308720D01*
X5367530Y-22346816D01*
X5367530Y-22375387D01*
X5358006Y-22413482D01*
X5348482Y-22432530D01*
X5329434Y-22451577D01*
X5300863Y-22461101D01*
X5253244Y-22461101D01*
X5453244Y-22461101D02*
X5453244Y-22327768D01*
X5453244Y-22365863D02*
X5462768Y-22346816D01*
X5472292Y-22337292D01*
X5491339Y-22327768D01*
X5510387Y-22327768D01*
X5577053Y-22461101D02*
X5577053Y-22327768D01*
X5577053Y-22261101D02*
X5567530Y-22270625D01*
X5577053Y-22280149D01*
X5586577Y-22270625D01*
X5577053Y-22261101D01*
X5577053Y-22280149D01*
X5700863Y-22461101D02*
X5681815Y-22451577D01*
X5672291Y-22432530D01*
X5672291Y-22261101D01*
X5805625Y-22461101D02*
X5786577Y-22451577D01*
X5777053Y-22432530D01*
X5777053Y-22261101D01*
X6034196Y-22461101D02*
X6034196Y-22261101D01*
X6100863Y-22403958D01*
X6167530Y-22261101D01*
X6167530Y-22461101D01*
X6348482Y-22461101D02*
X6348482Y-22356339D01*
X6338958Y-22337292D01*
X6319911Y-22327768D01*
X6281815Y-22327768D01*
X6262768Y-22337292D01*
X6348482Y-22451577D02*
X6329434Y-22461101D01*
X6281815Y-22461101D01*
X6262768Y-22451577D01*
X6253244Y-22432530D01*
X6253244Y-22413482D01*
X6262768Y-22394435D01*
X6281815Y-22384911D01*
X6329434Y-22384911D01*
X6348482Y-22375387D01*
X6443720Y-22327768D02*
X6443720Y-22527768D01*
X6443720Y-22337292D02*
X6462768Y-22327768D01*
X6500863Y-22327768D01*
X6519911Y-22337292D01*
X6529434Y-22346816D01*
X6538958Y-22365863D01*
X6538958Y-22423006D01*
X6529434Y-22442054D01*
X6519911Y-22451577D01*
X6500863Y-22461101D01*
X6462768Y-22461101D01*
X6443720Y-22451577D01*
X6624672Y-22442054D02*
X6634196Y-22451577D01*
X6624672Y-22461101D01*
X6615149Y-22451577D01*
X6624672Y-22442054D01*
X6624672Y-22461101D01*
X6624672Y-22337292D02*
X6634196Y-22346816D01*
X6624672Y-22356339D01*
X6615149Y-22346816D01*
X6624672Y-22337292D01*
X6624672Y-22356339D01*
D12*
X4955625Y-22770625D02*
X4995625Y-22810625D01*
X4995625Y-22770625D02*
X4955625Y-22810625D01*
D11*
X5291339Y-22681101D02*
X5310387Y-22681101D01*
X5329434Y-22690625D01*
X5338958Y-22700149D01*
X5348482Y-22719196D01*
X5358006Y-22757292D01*
X5358006Y-22804911D01*
X5348482Y-22843006D01*
X5338958Y-22862054D01*
X5329434Y-22871577D01*
X5310387Y-22881101D01*
X5291339Y-22881101D01*
X5272292Y-22871577D01*
X5262768Y-22862054D01*
X5253244Y-22843006D01*
X5243720Y-22804911D01*
X5243720Y-22757292D01*
X5253244Y-22719196D01*
X5262768Y-22700149D01*
X5272292Y-22690625D01*
X5291339Y-22681101D01*
X5443720Y-22862054D02*
X5453244Y-22871577D01*
X5443720Y-22881101D01*
X5434196Y-22871577D01*
X5443720Y-22862054D01*
X5443720Y-22881101D01*
X5624672Y-22747768D02*
X5624672Y-22881101D01*
X5577053Y-22671577D02*
X5529434Y-22814435D01*
X5653244Y-22814435D01*
X5767530Y-22681101D02*
X5786577Y-22681101D01*
X5805625Y-22690625D01*
X5815149Y-22700149D01*
X5824672Y-22719196D01*
X5834196Y-22757292D01*
X5834196Y-22804911D01*
X5824672Y-22843006D01*
X5815149Y-22862054D01*
X5805625Y-22871577D01*
X5786577Y-22881101D01*
X5767530Y-22881101D01*
X5748482Y-22871577D01*
X5738958Y-22862054D01*
X5729434Y-22843006D01*
X5719911Y-22804911D01*
X5719911Y-22757292D01*
X5729434Y-22719196D01*
X5738958Y-22700149D01*
X5748482Y-22690625D01*
X5767530Y-22681101D01*
X5958006Y-22681101D02*
X5977053Y-22681101D01*
X5996101Y-22690625D01*
X6005625Y-22700149D01*
X6015149Y-22719196D01*
X6024672Y-22757292D01*
X6024672Y-22804911D01*
X6015149Y-22843006D01*
X6005625Y-22862054D01*
X5996101Y-22871577D01*
X5977053Y-22881101D01*
X5958006Y-22881101D01*
X5938958Y-22871577D01*
X5929434Y-22862054D01*
X5919911Y-22843006D01*
X5910387Y-22804911D01*
X5910387Y-22757292D01*
X5919911Y-22719196D01*
X5929434Y-22700149D01*
X5938958Y-22690625D01*
X5958006Y-22681101D01*
X6110387Y-22881101D02*
X6110387Y-22747768D01*
X6110387Y-22766815D02*
X6119911Y-22757292D01*
X6138958Y-22747768D01*
X6167530Y-22747768D01*
X6186577Y-22757292D01*
X6196101Y-22776339D01*
X6196101Y-22881101D01*
X6196101Y-22776339D02*
X6205625Y-22757292D01*
X6224672Y-22747768D01*
X6253244Y-22747768D01*
X6272291Y-22757292D01*
X6281815Y-22776339D01*
X6281815Y-22881101D01*
X6377053Y-22881101D02*
X6377053Y-22747768D01*
X6377053Y-22766815D02*
X6386577Y-22757292D01*
X6405625Y-22747768D01*
X6434196Y-22747768D01*
X6453244Y-22757292D01*
X6462768Y-22776339D01*
X6462768Y-22881101D01*
X6462768Y-22776339D02*
X6472291Y-22757292D01*
X6491339Y-22747768D01*
X6519911Y-22747768D01*
X6538958Y-22757292D01*
X6548482Y-22776339D01*
X6548482Y-22881101D01*
X6938958Y-22671577D02*
X6767530Y-22928720D01*
X7196101Y-22681101D02*
X7215149Y-22681101D01*
X7234196Y-22690625D01*
X7243720Y-22700149D01*
X7253244Y-22719196D01*
X7262768Y-22757292D01*
X7262768Y-22804911D01*
X7253244Y-22843006D01*
X7243720Y-22862054D01*
X7234196Y-22871577D01*
X7215149Y-22881101D01*
X7196101Y-22881101D01*
X7177053Y-22871577D01*
X7167530Y-22862054D01*
X7158006Y-22843006D01*
X7148482Y-22804911D01*
X7148482Y-22757292D01*
X7158006Y-22719196D01*
X7167530Y-22700149D01*
X7177053Y-22690625D01*
X7196101Y-22681101D01*
X7348482Y-22862054D02*
X7358006Y-22871577D01*
X7348482Y-22881101D01*
X7338958Y-22871577D01*
X7348482Y-22862054D01*
X7348482Y-22881101D01*
X7481815Y-22681101D02*
X7500863Y-22681101D01*
X7519911Y-22690625D01*
X7529434Y-22700149D01*
X7538958Y-22719196D01*
X7548482Y-22757292D01*
X7548482Y-22804911D01*
X7538958Y-22843006D01*
X7529434Y-22862054D01*
X7519911Y-22871577D01*
X7500863Y-22881101D01*
X7481815Y-22881101D01*
X7462768Y-22871577D01*
X7453244Y-22862054D01*
X7443720Y-22843006D01*
X7434196Y-22804911D01*
X7434196Y-22757292D01*
X7443720Y-22719196D01*
X7453244Y-22700149D01*
X7462768Y-22690625D01*
X7481815Y-22681101D01*
X7738958Y-22881101D02*
X7624672Y-22881101D01*
X7681815Y-22881101D02*
X7681815Y-22681101D01*
X7662768Y-22709673D01*
X7643720Y-22728720D01*
X7624672Y-22738244D01*
X7919911Y-22681101D02*
X7824672Y-22681101D01*
X7815149Y-22776339D01*
X7824672Y-22766815D01*
X7843720Y-22757292D01*
X7891339Y-22757292D01*
X7910387Y-22766815D01*
X7919911Y-22776339D01*
X7929434Y-22795387D01*
X7929434Y-22843006D01*
X7919911Y-22862054D01*
X7910387Y-22871577D01*
X7891339Y-22881101D01*
X7843720Y-22881101D01*
X7824672Y-22871577D01*
X7815149Y-22862054D01*
X7996101Y-22681101D02*
X8129434Y-22681101D01*
X8043720Y-22881101D01*
X8196101Y-22681101D02*
X8196101Y-22719196D01*
X8272291Y-22681101D02*
X8272291Y-22719196D01*
X8567530Y-22957292D02*
X8558006Y-22947768D01*
X8538958Y-22919196D01*
X8529434Y-22900149D01*
X8519911Y-22871577D01*
X8510387Y-22823958D01*
X8510387Y-22785863D01*
X8519911Y-22738244D01*
X8529434Y-22709673D01*
X8538958Y-22690625D01*
X8558006Y-22662054D01*
X8567530Y-22652530D01*
X8624673Y-22681101D02*
X8748482Y-22681101D01*
X8681815Y-22757292D01*
X8710387Y-22757292D01*
X8729434Y-22766815D01*
X8738958Y-22776339D01*
X8748482Y-22795387D01*
X8748482Y-22843006D01*
X8738958Y-22862054D01*
X8729434Y-22871577D01*
X8710387Y-22881101D01*
X8653244Y-22881101D01*
X8634196Y-22871577D01*
X8624673Y-22862054D01*
X8938958Y-22881101D02*
X8824673Y-22881101D01*
X8881815Y-22881101D02*
X8881815Y-22681101D01*
X8862768Y-22709673D01*
X8843720Y-22728720D01*
X8824673Y-22738244D01*
X9053244Y-22766815D02*
X9034196Y-22757292D01*
X9024673Y-22747768D01*
X9015149Y-22728720D01*
X9015149Y-22719196D01*
X9024673Y-22700149D01*
X9034196Y-22690625D01*
X9053244Y-22681101D01*
X9091339Y-22681101D01*
X9110387Y-22690625D01*
X9119911Y-22700149D01*
X9129434Y-22719196D01*
X9129434Y-22728720D01*
X9119911Y-22747768D01*
X9110387Y-22757292D01*
X9091339Y-22766815D01*
X9053244Y-22766815D01*
X9034196Y-22776339D01*
X9024673Y-22785863D01*
X9015149Y-22804911D01*
X9015149Y-22843006D01*
X9024673Y-22862054D01*
X9034196Y-22871577D01*
X9053244Y-22881101D01*
X9091339Y-22881101D01*
X9110387Y-22871577D01*
X9119911Y-22862054D01*
X9129434Y-22843006D01*
X9129434Y-22804911D01*
X9119911Y-22785863D01*
X9110387Y-22776339D01*
X9091339Y-22766815D01*
X9367530Y-22881101D02*
X9367530Y-22681101D01*
X9453244Y-22881101D02*
X9453244Y-22776339D01*
X9443720Y-22757292D01*
X9424673Y-22747768D01*
X9396101Y-22747768D01*
X9377053Y-22757292D01*
X9367530Y-22766815D01*
X9577053Y-22881101D02*
X9558006Y-22871577D01*
X9548482Y-22862054D01*
X9538958Y-22843006D01*
X9538958Y-22785863D01*
X9548482Y-22766815D01*
X9558006Y-22757292D01*
X9577053Y-22747768D01*
X9605625Y-22747768D01*
X9624673Y-22757292D01*
X9634196Y-22766815D01*
X9643720Y-22785863D01*
X9643720Y-22843006D01*
X9634196Y-22862054D01*
X9624673Y-22871577D01*
X9605625Y-22881101D01*
X9577053Y-22881101D01*
X9758006Y-22881101D02*
X9738958Y-22871577D01*
X9729434Y-22852530D01*
X9729434Y-22681101D01*
X9910387Y-22871577D02*
X9891339Y-22881101D01*
X9853244Y-22881101D01*
X9834196Y-22871577D01*
X9824673Y-22852530D01*
X9824673Y-22776339D01*
X9834196Y-22757292D01*
X9853244Y-22747768D01*
X9891339Y-22747768D01*
X9910387Y-22757292D01*
X9919911Y-22776339D01*
X9919911Y-22795387D01*
X9824673Y-22814435D01*
X9996101Y-22871577D02*
X10015149Y-22881101D01*
X10053244Y-22881101D01*
X10072292Y-22871577D01*
X10081815Y-22852530D01*
X10081815Y-22843006D01*
X10072292Y-22823958D01*
X10053244Y-22814435D01*
X10024673Y-22814435D01*
X10005625Y-22804911D01*
X9996101Y-22785863D01*
X9996101Y-22776339D01*
X10005625Y-22757292D01*
X10024673Y-22747768D01*
X10053244Y-22747768D01*
X10072292Y-22757292D01*
X10148482Y-22957292D02*
X10158006Y-22947768D01*
X10177053Y-22919196D01*
X10186577Y-22900149D01*
X10196101Y-22871577D01*
X10205625Y-22823958D01*
X10205625Y-22785863D01*
X10196101Y-22738244D01*
X10186577Y-22709673D01*
X10177053Y-22690625D01*
X10158006Y-22662054D01*
X10148482Y-22652530D01*
D13*
X4995625Y-23054625D02*
G75*
G03*
X4995625Y-23054625I-35000J0D01*
G01*
D11*
X5291339Y-22945101D02*
X5310387Y-22945101D01*
X5329434Y-22954625D01*
X5338958Y-22964149D01*
X5348482Y-22983196D01*
X5358006Y-23021292D01*
X5358006Y-23068911D01*
X5348482Y-23107006D01*
X5338958Y-23126054D01*
X5329434Y-23135577D01*
X5310387Y-23145101D01*
X5291339Y-23145101D01*
X5272292Y-23135577D01*
X5262768Y-23126054D01*
X5253244Y-23107006D01*
X5243720Y-23068911D01*
X5243720Y-23021292D01*
X5253244Y-22983196D01*
X5262768Y-22964149D01*
X5272292Y-22954625D01*
X5291339Y-22945101D01*
X5443720Y-23126054D02*
X5453244Y-23135577D01*
X5443720Y-23145101D01*
X5434196Y-23135577D01*
X5443720Y-23126054D01*
X5443720Y-23145101D01*
X5519911Y-22945101D02*
X5653244Y-22945101D01*
X5567530Y-23145101D01*
X5767530Y-22945101D02*
X5786577Y-22945101D01*
X5805625Y-22954625D01*
X5815149Y-22964149D01*
X5824672Y-22983196D01*
X5834196Y-23021292D01*
X5834196Y-23068911D01*
X5824672Y-23107006D01*
X5815149Y-23126054D01*
X5805625Y-23135577D01*
X5786577Y-23145101D01*
X5767530Y-23145101D01*
X5748482Y-23135577D01*
X5738958Y-23126054D01*
X5729434Y-23107006D01*
X5719911Y-23068911D01*
X5719911Y-23021292D01*
X5729434Y-22983196D01*
X5738958Y-22964149D01*
X5748482Y-22954625D01*
X5767530Y-22945101D01*
X5958006Y-22945101D02*
X5977053Y-22945101D01*
X5996101Y-22954625D01*
X6005625Y-22964149D01*
X6015149Y-22983196D01*
X6024672Y-23021292D01*
X6024672Y-23068911D01*
X6015149Y-23107006D01*
X6005625Y-23126054D01*
X5996101Y-23135577D01*
X5977053Y-23145101D01*
X5958006Y-23145101D01*
X5938958Y-23135577D01*
X5929434Y-23126054D01*
X5919911Y-23107006D01*
X5910387Y-23068911D01*
X5910387Y-23021292D01*
X5919911Y-22983196D01*
X5929434Y-22964149D01*
X5938958Y-22954625D01*
X5958006Y-22945101D01*
X6110387Y-23145101D02*
X6110387Y-23011768D01*
X6110387Y-23030815D02*
X6119911Y-23021292D01*
X6138958Y-23011768D01*
X6167530Y-23011768D01*
X6186577Y-23021292D01*
X6196101Y-23040339D01*
X6196101Y-23145101D01*
X6196101Y-23040339D02*
X6205625Y-23021292D01*
X6224672Y-23011768D01*
X6253244Y-23011768D01*
X6272291Y-23021292D01*
X6281815Y-23040339D01*
X6281815Y-23145101D01*
X6377053Y-23145101D02*
X6377053Y-23011768D01*
X6377053Y-23030815D02*
X6386577Y-23021292D01*
X6405625Y-23011768D01*
X6434196Y-23011768D01*
X6453244Y-23021292D01*
X6462768Y-23040339D01*
X6462768Y-23145101D01*
X6462768Y-23040339D02*
X6472291Y-23021292D01*
X6491339Y-23011768D01*
X6519911Y-23011768D01*
X6538958Y-23021292D01*
X6548482Y-23040339D01*
X6548482Y-23145101D01*
X6938958Y-22935577D02*
X6767530Y-23192720D01*
X7196101Y-22945101D02*
X7215149Y-22945101D01*
X7234196Y-22954625D01*
X7243720Y-22964149D01*
X7253244Y-22983196D01*
X7262768Y-23021292D01*
X7262768Y-23068911D01*
X7253244Y-23107006D01*
X7243720Y-23126054D01*
X7234196Y-23135577D01*
X7215149Y-23145101D01*
X7196101Y-23145101D01*
X7177053Y-23135577D01*
X7167530Y-23126054D01*
X7158006Y-23107006D01*
X7148482Y-23068911D01*
X7148482Y-23021292D01*
X7158006Y-22983196D01*
X7167530Y-22964149D01*
X7177053Y-22954625D01*
X7196101Y-22945101D01*
X7348482Y-23126054D02*
X7358006Y-23135577D01*
X7348482Y-23145101D01*
X7338958Y-23135577D01*
X7348482Y-23126054D01*
X7348482Y-23145101D01*
X7481815Y-22945101D02*
X7500863Y-22945101D01*
X7519911Y-22954625D01*
X7529434Y-22964149D01*
X7538958Y-22983196D01*
X7548482Y-23021292D01*
X7548482Y-23068911D01*
X7538958Y-23107006D01*
X7529434Y-23126054D01*
X7519911Y-23135577D01*
X7500863Y-23145101D01*
X7481815Y-23145101D01*
X7462768Y-23135577D01*
X7453244Y-23126054D01*
X7443720Y-23107006D01*
X7434196Y-23068911D01*
X7434196Y-23021292D01*
X7443720Y-22983196D01*
X7453244Y-22964149D01*
X7462768Y-22954625D01*
X7481815Y-22945101D01*
X7624672Y-22964149D02*
X7634196Y-22954625D01*
X7653244Y-22945101D01*
X7700863Y-22945101D01*
X7719911Y-22954625D01*
X7729434Y-22964149D01*
X7738958Y-22983196D01*
X7738958Y-23002244D01*
X7729434Y-23030815D01*
X7615149Y-23145101D01*
X7738958Y-23145101D01*
X7805625Y-22945101D02*
X7938958Y-22945101D01*
X7853244Y-23145101D01*
X8100863Y-22945101D02*
X8062768Y-22945101D01*
X8043720Y-22954625D01*
X8034196Y-22964149D01*
X8015149Y-22992720D01*
X8005625Y-23030815D01*
X8005625Y-23107006D01*
X8015149Y-23126054D01*
X8024672Y-23135577D01*
X8043720Y-23145101D01*
X8081815Y-23145101D01*
X8100863Y-23135577D01*
X8110387Y-23126054D01*
X8119911Y-23107006D01*
X8119911Y-23059387D01*
X8110387Y-23040339D01*
X8100863Y-23030815D01*
X8081815Y-23021292D01*
X8043720Y-23021292D01*
X8024672Y-23030815D01*
X8015149Y-23040339D01*
X8005625Y-23059387D01*
X8196101Y-22945101D02*
X8196101Y-22983196D01*
X8272291Y-22945101D02*
X8272291Y-22983196D01*
X8567530Y-23221292D02*
X8558006Y-23211768D01*
X8538958Y-23183196D01*
X8529434Y-23164149D01*
X8519911Y-23135577D01*
X8510387Y-23087958D01*
X8510387Y-23049863D01*
X8519911Y-23002244D01*
X8529434Y-22973673D01*
X8538958Y-22954625D01*
X8558006Y-22926054D01*
X8567530Y-22916530D01*
X8634196Y-22964149D02*
X8643720Y-22954625D01*
X8662768Y-22945101D01*
X8710387Y-22945101D01*
X8729434Y-22954625D01*
X8738958Y-22964149D01*
X8748482Y-22983196D01*
X8748482Y-23002244D01*
X8738958Y-23030815D01*
X8624673Y-23145101D01*
X8748482Y-23145101D01*
X8986577Y-23145101D02*
X8986577Y-22945101D01*
X9072292Y-23145101D02*
X9072292Y-23040339D01*
X9062768Y-23021292D01*
X9043720Y-23011768D01*
X9015149Y-23011768D01*
X8996101Y-23021292D01*
X8986577Y-23030815D01*
X9196101Y-23145101D02*
X9177053Y-23135577D01*
X9167530Y-23126054D01*
X9158006Y-23107006D01*
X9158006Y-23049863D01*
X9167530Y-23030815D01*
X9177053Y-23021292D01*
X9196101Y-23011768D01*
X9224673Y-23011768D01*
X9243720Y-23021292D01*
X9253244Y-23030815D01*
X9262768Y-23049863D01*
X9262768Y-23107006D01*
X9253244Y-23126054D01*
X9243720Y-23135577D01*
X9224673Y-23145101D01*
X9196101Y-23145101D01*
X9377053Y-23145101D02*
X9358006Y-23135577D01*
X9348482Y-23116530D01*
X9348482Y-22945101D01*
X9529434Y-23135577D02*
X9510387Y-23145101D01*
X9472292Y-23145101D01*
X9453244Y-23135577D01*
X9443720Y-23116530D01*
X9443720Y-23040339D01*
X9453244Y-23021292D01*
X9472292Y-23011768D01*
X9510387Y-23011768D01*
X9529434Y-23021292D01*
X9538958Y-23040339D01*
X9538958Y-23059387D01*
X9443720Y-23078435D01*
X9615149Y-23135577D02*
X9634196Y-23145101D01*
X9672292Y-23145101D01*
X9691339Y-23135577D01*
X9700863Y-23116530D01*
X9700863Y-23107006D01*
X9691339Y-23087958D01*
X9672292Y-23078435D01*
X9643720Y-23078435D01*
X9624673Y-23068911D01*
X9615149Y-23049863D01*
X9615149Y-23040339D01*
X9624673Y-23021292D01*
X9643720Y-23011768D01*
X9672292Y-23011768D01*
X9691339Y-23021292D01*
X9767530Y-23221292D02*
X9777053Y-23211768D01*
X9796101Y-23183196D01*
X9805625Y-23164149D01*
X9815149Y-23135577D01*
X9824673Y-23087958D01*
X9824673Y-23049863D01*
X9815149Y-23002244D01*
X9805625Y-22973673D01*
X9796101Y-22954625D01*
X9777053Y-22926054D01*
X9767530Y-22916530D01*
D14*
X4957525Y-23280525D02*
X4957525Y-23356725D01*
X4919425Y-23318625D02*
X4995625Y-23318625D01*
D11*
X5291339Y-23209101D02*
X5310387Y-23209101D01*
X5329434Y-23218625D01*
X5338958Y-23228149D01*
X5348482Y-23247196D01*
X5358006Y-23285292D01*
X5358006Y-23332911D01*
X5348482Y-23371006D01*
X5338958Y-23390054D01*
X5329434Y-23399577D01*
X5310387Y-23409101D01*
X5291339Y-23409101D01*
X5272292Y-23399577D01*
X5262768Y-23390054D01*
X5253244Y-23371006D01*
X5243720Y-23332911D01*
X5243720Y-23285292D01*
X5253244Y-23247196D01*
X5262768Y-23228149D01*
X5272292Y-23218625D01*
X5291339Y-23209101D01*
X5443720Y-23390054D02*
X5453244Y-23399577D01*
X5443720Y-23409101D01*
X5434196Y-23399577D01*
X5443720Y-23390054D01*
X5443720Y-23409101D01*
X5519911Y-23209101D02*
X5653244Y-23209101D01*
X5567530Y-23409101D01*
X5815149Y-23209101D02*
X5777053Y-23209101D01*
X5758006Y-23218625D01*
X5748482Y-23228149D01*
X5729434Y-23256720D01*
X5719911Y-23294815D01*
X5719911Y-23371006D01*
X5729434Y-23390054D01*
X5738958Y-23399577D01*
X5758006Y-23409101D01*
X5796101Y-23409101D01*
X5815149Y-23399577D01*
X5824672Y-23390054D01*
X5834196Y-23371006D01*
X5834196Y-23323387D01*
X5824672Y-23304339D01*
X5815149Y-23294815D01*
X5796101Y-23285292D01*
X5758006Y-23285292D01*
X5738958Y-23294815D01*
X5729434Y-23304339D01*
X5719911Y-23323387D01*
X5910387Y-23228149D02*
X5919911Y-23218625D01*
X5938958Y-23209101D01*
X5986577Y-23209101D01*
X6005625Y-23218625D01*
X6015149Y-23228149D01*
X6024672Y-23247196D01*
X6024672Y-23266244D01*
X6015149Y-23294815D01*
X5900863Y-23409101D01*
X6024672Y-23409101D01*
X6110387Y-23409101D02*
X6110387Y-23275768D01*
X6110387Y-23294815D02*
X6119911Y-23285292D01*
X6138958Y-23275768D01*
X6167530Y-23275768D01*
X6186577Y-23285292D01*
X6196101Y-23304339D01*
X6196101Y-23409101D01*
X6196101Y-23304339D02*
X6205625Y-23285292D01*
X6224672Y-23275768D01*
X6253244Y-23275768D01*
X6272291Y-23285292D01*
X6281815Y-23304339D01*
X6281815Y-23409101D01*
X6377053Y-23409101D02*
X6377053Y-23275768D01*
X6377053Y-23294815D02*
X6386577Y-23285292D01*
X6405625Y-23275768D01*
X6434196Y-23275768D01*
X6453244Y-23285292D01*
X6462768Y-23304339D01*
X6462768Y-23409101D01*
X6462768Y-23304339D02*
X6472291Y-23285292D01*
X6491339Y-23275768D01*
X6519911Y-23275768D01*
X6538958Y-23285292D01*
X6548482Y-23304339D01*
X6548482Y-23409101D01*
X6938958Y-23199577D02*
X6767530Y-23456720D01*
X7196101Y-23209101D02*
X7215149Y-23209101D01*
X7234196Y-23218625D01*
X7243720Y-23228149D01*
X7253244Y-23247196D01*
X7262768Y-23285292D01*
X7262768Y-23332911D01*
X7253244Y-23371006D01*
X7243720Y-23390054D01*
X7234196Y-23399577D01*
X7215149Y-23409101D01*
X7196101Y-23409101D01*
X7177053Y-23399577D01*
X7167530Y-23390054D01*
X7158006Y-23371006D01*
X7148482Y-23332911D01*
X7148482Y-23285292D01*
X7158006Y-23247196D01*
X7167530Y-23228149D01*
X7177053Y-23218625D01*
X7196101Y-23209101D01*
X7348482Y-23390054D02*
X7358006Y-23399577D01*
X7348482Y-23409101D01*
X7338958Y-23399577D01*
X7348482Y-23390054D01*
X7348482Y-23409101D01*
X7481815Y-23209101D02*
X7500863Y-23209101D01*
X7519911Y-23218625D01*
X7529434Y-23228149D01*
X7538958Y-23247196D01*
X7548482Y-23285292D01*
X7548482Y-23332911D01*
X7538958Y-23371006D01*
X7529434Y-23390054D01*
X7519911Y-23399577D01*
X7500863Y-23409101D01*
X7481815Y-23409101D01*
X7462768Y-23399577D01*
X7453244Y-23390054D01*
X7443720Y-23371006D01*
X7434196Y-23332911D01*
X7434196Y-23285292D01*
X7443720Y-23247196D01*
X7453244Y-23228149D01*
X7462768Y-23218625D01*
X7481815Y-23209101D01*
X7615149Y-23209101D02*
X7738958Y-23209101D01*
X7672291Y-23285292D01*
X7700863Y-23285292D01*
X7719911Y-23294815D01*
X7729434Y-23304339D01*
X7738958Y-23323387D01*
X7738958Y-23371006D01*
X7729434Y-23390054D01*
X7719911Y-23399577D01*
X7700863Y-23409101D01*
X7643720Y-23409101D01*
X7624672Y-23399577D01*
X7615149Y-23390054D01*
X7862768Y-23209101D02*
X7881815Y-23209101D01*
X7900863Y-23218625D01*
X7910387Y-23228149D01*
X7919911Y-23247196D01*
X7929434Y-23285292D01*
X7929434Y-23332911D01*
X7919911Y-23371006D01*
X7910387Y-23390054D01*
X7900863Y-23399577D01*
X7881815Y-23409101D01*
X7862768Y-23409101D01*
X7843720Y-23399577D01*
X7834196Y-23390054D01*
X7824672Y-23371006D01*
X7815149Y-23332911D01*
X7815149Y-23285292D01*
X7824672Y-23247196D01*
X7834196Y-23228149D01*
X7843720Y-23218625D01*
X7862768Y-23209101D01*
X8053244Y-23209101D02*
X8072291Y-23209101D01*
X8091339Y-23218625D01*
X8100863Y-23228149D01*
X8110387Y-23247196D01*
X8119911Y-23285292D01*
X8119911Y-23332911D01*
X8110387Y-23371006D01*
X8100863Y-23390054D01*
X8091339Y-23399577D01*
X8072291Y-23409101D01*
X8053244Y-23409101D01*
X8034196Y-23399577D01*
X8024672Y-23390054D01*
X8015149Y-23371006D01*
X8005625Y-23332911D01*
X8005625Y-23285292D01*
X8015149Y-23247196D01*
X8024672Y-23228149D01*
X8034196Y-23218625D01*
X8053244Y-23209101D01*
X8196101Y-23209101D02*
X8196101Y-23247196D01*
X8272291Y-23209101D02*
X8272291Y-23247196D01*
X8567530Y-23485292D02*
X8558006Y-23475768D01*
X8538958Y-23447196D01*
X8529434Y-23428149D01*
X8519911Y-23399577D01*
X8510387Y-23351958D01*
X8510387Y-23313863D01*
X8519911Y-23266244D01*
X8529434Y-23237673D01*
X8538958Y-23218625D01*
X8558006Y-23190054D01*
X8567530Y-23180530D01*
X8729434Y-23275768D02*
X8729434Y-23409101D01*
X8681815Y-23199577D02*
X8634196Y-23342435D01*
X8758006Y-23342435D01*
X8986577Y-23409101D02*
X8986577Y-23209101D01*
X9072292Y-23409101D02*
X9072292Y-23304339D01*
X9062768Y-23285292D01*
X9043720Y-23275768D01*
X9015149Y-23275768D01*
X8996101Y-23285292D01*
X8986577Y-23294815D01*
X9196101Y-23409101D02*
X9177053Y-23399577D01*
X9167530Y-23390054D01*
X9158006Y-23371006D01*
X9158006Y-23313863D01*
X9167530Y-23294815D01*
X9177053Y-23285292D01*
X9196101Y-23275768D01*
X9224673Y-23275768D01*
X9243720Y-23285292D01*
X9253244Y-23294815D01*
X9262768Y-23313863D01*
X9262768Y-23371006D01*
X9253244Y-23390054D01*
X9243720Y-23399577D01*
X9224673Y-23409101D01*
X9196101Y-23409101D01*
X9377053Y-23409101D02*
X9358006Y-23399577D01*
X9348482Y-23380530D01*
X9348482Y-23209101D01*
X9529434Y-23399577D02*
X9510387Y-23409101D01*
X9472292Y-23409101D01*
X9453244Y-23399577D01*
X9443720Y-23380530D01*
X9443720Y-23304339D01*
X9453244Y-23285292D01*
X9472292Y-23275768D01*
X9510387Y-23275768D01*
X9529434Y-23285292D01*
X9538958Y-23304339D01*
X9538958Y-23323387D01*
X9443720Y-23342435D01*
X9615149Y-23399577D02*
X9634196Y-23409101D01*
X9672292Y-23409101D01*
X9691339Y-23399577D01*
X9700863Y-23380530D01*
X9700863Y-23371006D01*
X9691339Y-23351958D01*
X9672292Y-23342435D01*
X9643720Y-23342435D01*
X9624673Y-23332911D01*
X9615149Y-23313863D01*
X9615149Y-23304339D01*
X9624673Y-23285292D01*
X9643720Y-23275768D01*
X9672292Y-23275768D01*
X9691339Y-23285292D01*
X9767530Y-23485292D02*
X9777053Y-23475768D01*
X9796101Y-23447196D01*
X9805625Y-23428149D01*
X9815149Y-23399577D01*
X9824673Y-23351958D01*
X9824673Y-23313863D01*
X9815149Y-23266244D01*
X9805625Y-23237673D01*
X9796101Y-23218625D01*
X9777053Y-23190054D01*
X9767530Y-23180530D01*
D15*
X4980981Y-23617981D02*
X4980981Y-23547269D01*
X4910269Y-23547269D01*
X4910269Y-23617981D01*
X4980981Y-23617981D01*
D11*
X5358006Y-23673101D02*
X5243720Y-23673101D01*
X5300863Y-23673101D02*
X5300863Y-23473101D01*
X5281815Y-23501673D01*
X5262768Y-23520720D01*
X5243720Y-23530244D01*
X5443720Y-23654054D02*
X5453244Y-23663577D01*
X5443720Y-23673101D01*
X5434196Y-23663577D01*
X5443720Y-23654054D01*
X5443720Y-23673101D01*
X5577053Y-23473101D02*
X5596101Y-23473101D01*
X5615149Y-23482625D01*
X5624672Y-23492149D01*
X5634196Y-23511196D01*
X5643720Y-23549292D01*
X5643720Y-23596911D01*
X5634196Y-23635006D01*
X5624672Y-23654054D01*
X5615149Y-23663577D01*
X5596101Y-23673101D01*
X5577053Y-23673101D01*
X5558006Y-23663577D01*
X5548482Y-23654054D01*
X5538958Y-23635006D01*
X5529434Y-23596911D01*
X5529434Y-23549292D01*
X5538958Y-23511196D01*
X5548482Y-23492149D01*
X5558006Y-23482625D01*
X5577053Y-23473101D01*
X5767530Y-23473101D02*
X5786577Y-23473101D01*
X5805625Y-23482625D01*
X5815149Y-23492149D01*
X5824672Y-23511196D01*
X5834196Y-23549292D01*
X5834196Y-23596911D01*
X5824672Y-23635006D01*
X5815149Y-23654054D01*
X5805625Y-23663577D01*
X5786577Y-23673101D01*
X5767530Y-23673101D01*
X5748482Y-23663577D01*
X5738958Y-23654054D01*
X5729434Y-23635006D01*
X5719911Y-23596911D01*
X5719911Y-23549292D01*
X5729434Y-23511196D01*
X5738958Y-23492149D01*
X5748482Y-23482625D01*
X5767530Y-23473101D01*
X5958006Y-23473101D02*
X5977053Y-23473101D01*
X5996101Y-23482625D01*
X6005625Y-23492149D01*
X6015149Y-23511196D01*
X6024672Y-23549292D01*
X6024672Y-23596911D01*
X6015149Y-23635006D01*
X6005625Y-23654054D01*
X5996101Y-23663577D01*
X5977053Y-23673101D01*
X5958006Y-23673101D01*
X5938958Y-23663577D01*
X5929434Y-23654054D01*
X5919911Y-23635006D01*
X5910387Y-23596911D01*
X5910387Y-23549292D01*
X5919911Y-23511196D01*
X5929434Y-23492149D01*
X5938958Y-23482625D01*
X5958006Y-23473101D01*
X6110387Y-23673101D02*
X6110387Y-23539768D01*
X6110387Y-23558815D02*
X6119911Y-23549292D01*
X6138958Y-23539768D01*
X6167530Y-23539768D01*
X6186577Y-23549292D01*
X6196101Y-23568339D01*
X6196101Y-23673101D01*
X6196101Y-23568339D02*
X6205625Y-23549292D01*
X6224672Y-23539768D01*
X6253244Y-23539768D01*
X6272291Y-23549292D01*
X6281815Y-23568339D01*
X6281815Y-23673101D01*
X6377053Y-23673101D02*
X6377053Y-23539768D01*
X6377053Y-23558815D02*
X6386577Y-23549292D01*
X6405625Y-23539768D01*
X6434196Y-23539768D01*
X6453244Y-23549292D01*
X6462768Y-23568339D01*
X6462768Y-23673101D01*
X6462768Y-23568339D02*
X6472291Y-23549292D01*
X6491339Y-23539768D01*
X6519911Y-23539768D01*
X6538958Y-23549292D01*
X6548482Y-23568339D01*
X6548482Y-23673101D01*
X6938958Y-23463577D02*
X6767530Y-23720720D01*
X7196101Y-23473101D02*
X7215149Y-23473101D01*
X7234196Y-23482625D01*
X7243720Y-23492149D01*
X7253244Y-23511196D01*
X7262768Y-23549292D01*
X7262768Y-23596911D01*
X7253244Y-23635006D01*
X7243720Y-23654054D01*
X7234196Y-23663577D01*
X7215149Y-23673101D01*
X7196101Y-23673101D01*
X7177053Y-23663577D01*
X7167530Y-23654054D01*
X7158006Y-23635006D01*
X7148482Y-23596911D01*
X7148482Y-23549292D01*
X7158006Y-23511196D01*
X7167530Y-23492149D01*
X7177053Y-23482625D01*
X7196101Y-23473101D01*
X7348482Y-23654054D02*
X7358006Y-23663577D01*
X7348482Y-23673101D01*
X7338958Y-23663577D01*
X7348482Y-23654054D01*
X7348482Y-23673101D01*
X7481815Y-23473101D02*
X7500863Y-23473101D01*
X7519911Y-23482625D01*
X7529434Y-23492149D01*
X7538958Y-23511196D01*
X7548482Y-23549292D01*
X7548482Y-23596911D01*
X7538958Y-23635006D01*
X7529434Y-23654054D01*
X7519911Y-23663577D01*
X7500863Y-23673101D01*
X7481815Y-23673101D01*
X7462768Y-23663577D01*
X7453244Y-23654054D01*
X7443720Y-23635006D01*
X7434196Y-23596911D01*
X7434196Y-23549292D01*
X7443720Y-23511196D01*
X7453244Y-23492149D01*
X7462768Y-23482625D01*
X7481815Y-23473101D01*
X7615149Y-23473101D02*
X7738958Y-23473101D01*
X7672291Y-23549292D01*
X7700863Y-23549292D01*
X7719911Y-23558815D01*
X7729434Y-23568339D01*
X7738958Y-23587387D01*
X7738958Y-23635006D01*
X7729434Y-23654054D01*
X7719911Y-23663577D01*
X7700863Y-23673101D01*
X7643720Y-23673101D01*
X7624672Y-23663577D01*
X7615149Y-23654054D01*
X7834196Y-23673101D02*
X7872291Y-23673101D01*
X7891339Y-23663577D01*
X7900863Y-23654054D01*
X7919911Y-23625482D01*
X7929434Y-23587387D01*
X7929434Y-23511196D01*
X7919911Y-23492149D01*
X7910387Y-23482625D01*
X7891339Y-23473101D01*
X7853244Y-23473101D01*
X7834196Y-23482625D01*
X7824672Y-23492149D01*
X7815149Y-23511196D01*
X7815149Y-23558815D01*
X7824672Y-23577863D01*
X7834196Y-23587387D01*
X7853244Y-23596911D01*
X7891339Y-23596911D01*
X7910387Y-23587387D01*
X7919911Y-23577863D01*
X7929434Y-23558815D01*
X8100863Y-23539768D02*
X8100863Y-23673101D01*
X8053244Y-23463577D02*
X8005625Y-23606435D01*
X8129434Y-23606435D01*
X8196101Y-23473101D02*
X8196101Y-23511196D01*
X8272291Y-23473101D02*
X8272291Y-23511196D01*
X8567530Y-23749292D02*
X8558006Y-23739768D01*
X8538958Y-23711196D01*
X8529434Y-23692149D01*
X8519911Y-23663577D01*
X8510387Y-23615958D01*
X8510387Y-23577863D01*
X8519911Y-23530244D01*
X8529434Y-23501673D01*
X8538958Y-23482625D01*
X8558006Y-23454054D01*
X8567530Y-23444530D01*
X8634196Y-23492149D02*
X8643720Y-23482625D01*
X8662768Y-23473101D01*
X8710387Y-23473101D01*
X8729434Y-23482625D01*
X8738958Y-23492149D01*
X8748482Y-23511196D01*
X8748482Y-23530244D01*
X8738958Y-23558815D01*
X8624673Y-23673101D01*
X8748482Y-23673101D01*
X8815149Y-23473101D02*
X8938958Y-23473101D01*
X8872292Y-23549292D01*
X8900863Y-23549292D01*
X8919911Y-23558815D01*
X8929434Y-23568339D01*
X8938958Y-23587387D01*
X8938958Y-23635006D01*
X8929434Y-23654054D01*
X8919911Y-23663577D01*
X8900863Y-23673101D01*
X8843720Y-23673101D01*
X8824673Y-23663577D01*
X8815149Y-23654054D01*
X9015149Y-23492149D02*
X9024673Y-23482625D01*
X9043720Y-23473101D01*
X9091339Y-23473101D01*
X9110387Y-23482625D01*
X9119911Y-23492149D01*
X9129434Y-23511196D01*
X9129434Y-23530244D01*
X9119911Y-23558815D01*
X9005625Y-23673101D01*
X9129434Y-23673101D01*
X9367530Y-23673101D02*
X9367530Y-23473101D01*
X9453244Y-23673101D02*
X9453244Y-23568339D01*
X9443720Y-23549292D01*
X9424673Y-23539768D01*
X9396101Y-23539768D01*
X9377053Y-23549292D01*
X9367530Y-23558815D01*
X9577053Y-23673101D02*
X9558006Y-23663577D01*
X9548482Y-23654054D01*
X9538958Y-23635006D01*
X9538958Y-23577863D01*
X9548482Y-23558815D01*
X9558006Y-23549292D01*
X9577053Y-23539768D01*
X9605625Y-23539768D01*
X9624673Y-23549292D01*
X9634196Y-23558815D01*
X9643720Y-23577863D01*
X9643720Y-23635006D01*
X9634196Y-23654054D01*
X9624673Y-23663577D01*
X9605625Y-23673101D01*
X9577053Y-23673101D01*
X9758006Y-23673101D02*
X9738958Y-23663577D01*
X9729434Y-23644530D01*
X9729434Y-23473101D01*
X9910387Y-23663577D02*
X9891339Y-23673101D01*
X9853244Y-23673101D01*
X9834196Y-23663577D01*
X9824673Y-23644530D01*
X9824673Y-23568339D01*
X9834196Y-23549292D01*
X9853244Y-23539768D01*
X9891339Y-23539768D01*
X9910387Y-23549292D01*
X9919911Y-23568339D01*
X9919911Y-23587387D01*
X9824673Y-23606435D01*
X9996101Y-23663577D02*
X10015149Y-23673101D01*
X10053244Y-23673101D01*
X10072292Y-23663577D01*
X10081815Y-23644530D01*
X10081815Y-23635006D01*
X10072292Y-23615958D01*
X10053244Y-23606435D01*
X10024673Y-23606435D01*
X10005625Y-23596911D01*
X9996101Y-23577863D01*
X9996101Y-23568339D01*
X10005625Y-23549292D01*
X10024673Y-23539768D01*
X10053244Y-23539768D01*
X10072292Y-23549292D01*
X10148482Y-23749292D02*
X10158006Y-23739768D01*
X10177053Y-23711196D01*
X10186577Y-23692149D01*
X10196101Y-23663577D01*
X10205625Y-23615958D01*
X10205625Y-23577863D01*
X10196101Y-23530244D01*
X10186577Y-23501673D01*
X10177053Y-23482625D01*
X10158006Y-23454054D01*
X10148482Y-23444530D01*
D16*
X4940625Y-23901625D02*
X4995625Y-23846625D01*
X4940625Y-23791625D01*
X4885625Y-23846625D01*
X4940625Y-23901625D01*
D11*
X5358006Y-23937101D02*
X5243720Y-23937101D01*
X5300863Y-23937101D02*
X5300863Y-23737101D01*
X5281815Y-23765673D01*
X5262768Y-23784720D01*
X5243720Y-23794244D01*
X5443720Y-23918054D02*
X5453244Y-23927577D01*
X5443720Y-23937101D01*
X5434196Y-23927577D01*
X5443720Y-23918054D01*
X5443720Y-23937101D01*
X5643720Y-23937101D02*
X5529434Y-23937101D01*
X5586577Y-23937101D02*
X5586577Y-23737101D01*
X5567530Y-23765673D01*
X5548482Y-23784720D01*
X5529434Y-23794244D01*
X5767530Y-23737101D02*
X5786577Y-23737101D01*
X5805625Y-23746625D01*
X5815149Y-23756149D01*
X5824672Y-23775196D01*
X5834196Y-23813292D01*
X5834196Y-23860911D01*
X5824672Y-23899006D01*
X5815149Y-23918054D01*
X5805625Y-23927577D01*
X5786577Y-23937101D01*
X5767530Y-23937101D01*
X5748482Y-23927577D01*
X5738958Y-23918054D01*
X5729434Y-23899006D01*
X5719911Y-23860911D01*
X5719911Y-23813292D01*
X5729434Y-23775196D01*
X5738958Y-23756149D01*
X5748482Y-23746625D01*
X5767530Y-23737101D01*
X5958006Y-23737101D02*
X5977053Y-23737101D01*
X5996101Y-23746625D01*
X6005625Y-23756149D01*
X6015149Y-23775196D01*
X6024672Y-23813292D01*
X6024672Y-23860911D01*
X6015149Y-23899006D01*
X6005625Y-23918054D01*
X5996101Y-23927577D01*
X5977053Y-23937101D01*
X5958006Y-23937101D01*
X5938958Y-23927577D01*
X5929434Y-23918054D01*
X5919911Y-23899006D01*
X5910387Y-23860911D01*
X5910387Y-23813292D01*
X5919911Y-23775196D01*
X5929434Y-23756149D01*
X5938958Y-23746625D01*
X5958006Y-23737101D01*
X6110387Y-23937101D02*
X6110387Y-23803768D01*
X6110387Y-23822815D02*
X6119911Y-23813292D01*
X6138958Y-23803768D01*
X6167530Y-23803768D01*
X6186577Y-23813292D01*
X6196101Y-23832339D01*
X6196101Y-23937101D01*
X6196101Y-23832339D02*
X6205625Y-23813292D01*
X6224672Y-23803768D01*
X6253244Y-23803768D01*
X6272291Y-23813292D01*
X6281815Y-23832339D01*
X6281815Y-23937101D01*
X6377053Y-23937101D02*
X6377053Y-23803768D01*
X6377053Y-23822815D02*
X6386577Y-23813292D01*
X6405625Y-23803768D01*
X6434196Y-23803768D01*
X6453244Y-23813292D01*
X6462768Y-23832339D01*
X6462768Y-23937101D01*
X6462768Y-23832339D02*
X6472291Y-23813292D01*
X6491339Y-23803768D01*
X6519911Y-23803768D01*
X6538958Y-23813292D01*
X6548482Y-23832339D01*
X6548482Y-23937101D01*
X6938958Y-23727577D02*
X6767530Y-23984720D01*
X7196101Y-23737101D02*
X7215149Y-23737101D01*
X7234196Y-23746625D01*
X7243720Y-23756149D01*
X7253244Y-23775196D01*
X7262768Y-23813292D01*
X7262768Y-23860911D01*
X7253244Y-23899006D01*
X7243720Y-23918054D01*
X7234196Y-23927577D01*
X7215149Y-23937101D01*
X7196101Y-23937101D01*
X7177053Y-23927577D01*
X7167530Y-23918054D01*
X7158006Y-23899006D01*
X7148482Y-23860911D01*
X7148482Y-23813292D01*
X7158006Y-23775196D01*
X7167530Y-23756149D01*
X7177053Y-23746625D01*
X7196101Y-23737101D01*
X7348482Y-23918054D02*
X7358006Y-23927577D01*
X7348482Y-23937101D01*
X7338958Y-23927577D01*
X7348482Y-23918054D01*
X7348482Y-23937101D01*
X7481815Y-23737101D02*
X7500863Y-23737101D01*
X7519911Y-23746625D01*
X7529434Y-23756149D01*
X7538958Y-23775196D01*
X7548482Y-23813292D01*
X7548482Y-23860911D01*
X7538958Y-23899006D01*
X7529434Y-23918054D01*
X7519911Y-23927577D01*
X7500863Y-23937101D01*
X7481815Y-23937101D01*
X7462768Y-23927577D01*
X7453244Y-23918054D01*
X7443720Y-23899006D01*
X7434196Y-23860911D01*
X7434196Y-23813292D01*
X7443720Y-23775196D01*
X7453244Y-23756149D01*
X7462768Y-23746625D01*
X7481815Y-23737101D01*
X7719911Y-23803768D02*
X7719911Y-23937101D01*
X7672291Y-23727577D02*
X7624672Y-23870435D01*
X7748482Y-23870435D01*
X7805625Y-23737101D02*
X7929434Y-23737101D01*
X7862768Y-23813292D01*
X7891339Y-23813292D01*
X7910387Y-23822815D01*
X7919911Y-23832339D01*
X7929434Y-23851387D01*
X7929434Y-23899006D01*
X7919911Y-23918054D01*
X7910387Y-23927577D01*
X7891339Y-23937101D01*
X7834196Y-23937101D01*
X7815149Y-23927577D01*
X7805625Y-23918054D01*
X7996101Y-23737101D02*
X8119911Y-23737101D01*
X8053244Y-23813292D01*
X8081815Y-23813292D01*
X8100863Y-23822815D01*
X8110387Y-23832339D01*
X8119911Y-23851387D01*
X8119911Y-23899006D01*
X8110387Y-23918054D01*
X8100863Y-23927577D01*
X8081815Y-23937101D01*
X8024672Y-23937101D01*
X8005625Y-23927577D01*
X7996101Y-23918054D01*
X8196101Y-23737101D02*
X8196101Y-23775196D01*
X8272291Y-23737101D02*
X8272291Y-23775196D01*
X8567530Y-24013292D02*
X8558006Y-24003768D01*
X8538958Y-23975196D01*
X8529434Y-23956149D01*
X8519911Y-23927577D01*
X8510387Y-23879958D01*
X8510387Y-23841863D01*
X8519911Y-23794244D01*
X8529434Y-23765673D01*
X8538958Y-23746625D01*
X8558006Y-23718054D01*
X8567530Y-23708530D01*
X8729434Y-23803768D02*
X8729434Y-23937101D01*
X8681815Y-23727577D02*
X8634196Y-23870435D01*
X8758006Y-23870435D01*
X8986577Y-23937101D02*
X8986577Y-23737101D01*
X9072292Y-23937101D02*
X9072292Y-23832339D01*
X9062768Y-23813292D01*
X9043720Y-23803768D01*
X9015149Y-23803768D01*
X8996101Y-23813292D01*
X8986577Y-23822815D01*
X9196101Y-23937101D02*
X9177053Y-23927577D01*
X9167530Y-23918054D01*
X9158006Y-23899006D01*
X9158006Y-23841863D01*
X9167530Y-23822815D01*
X9177053Y-23813292D01*
X9196101Y-23803768D01*
X9224673Y-23803768D01*
X9243720Y-23813292D01*
X9253244Y-23822815D01*
X9262768Y-23841863D01*
X9262768Y-23899006D01*
X9253244Y-23918054D01*
X9243720Y-23927577D01*
X9224673Y-23937101D01*
X9196101Y-23937101D01*
X9377053Y-23937101D02*
X9358006Y-23927577D01*
X9348482Y-23908530D01*
X9348482Y-23737101D01*
X9529434Y-23927577D02*
X9510387Y-23937101D01*
X9472292Y-23937101D01*
X9453244Y-23927577D01*
X9443720Y-23908530D01*
X9443720Y-23832339D01*
X9453244Y-23813292D01*
X9472292Y-23803768D01*
X9510387Y-23803768D01*
X9529434Y-23813292D01*
X9538958Y-23832339D01*
X9538958Y-23851387D01*
X9443720Y-23870435D01*
X9615149Y-23927577D02*
X9634196Y-23937101D01*
X9672292Y-23937101D01*
X9691339Y-23927577D01*
X9700863Y-23908530D01*
X9700863Y-23899006D01*
X9691339Y-23879958D01*
X9672292Y-23870435D01*
X9643720Y-23870435D01*
X9624673Y-23860911D01*
X9615149Y-23841863D01*
X9615149Y-23832339D01*
X9624673Y-23813292D01*
X9643720Y-23803768D01*
X9672292Y-23803768D01*
X9691339Y-23813292D01*
X9767530Y-24013292D02*
X9777053Y-24003768D01*
X9796101Y-23975196D01*
X9805625Y-23956149D01*
X9815149Y-23927577D01*
X9824673Y-23879958D01*
X9824673Y-23841863D01*
X9815149Y-23794244D01*
X9805625Y-23765673D01*
X9796101Y-23746625D01*
X9777053Y-23718054D01*
X9767530Y-23708530D01*
D17*
X4845625Y-24035625D02*
X4995625Y-24185625D01*
X4995625Y-24035625D02*
X4845625Y-24185625D01*
X4995625Y-24110625D02*
G75*
G03*
X4995625Y-24110625I-75000J0D01*
G01*
D11*
X5358006Y-24201101D02*
X5243720Y-24201101D01*
X5300863Y-24201101D02*
X5300863Y-24001101D01*
X5281815Y-24029673D01*
X5262768Y-24048720D01*
X5243720Y-24058244D01*
X5443720Y-24182054D02*
X5453244Y-24191577D01*
X5443720Y-24201101D01*
X5434196Y-24191577D01*
X5443720Y-24182054D01*
X5443720Y-24201101D01*
X5634196Y-24001101D02*
X5538958Y-24001101D01*
X5529434Y-24096339D01*
X5538958Y-24086815D01*
X5558006Y-24077292D01*
X5605625Y-24077292D01*
X5624672Y-24086815D01*
X5634196Y-24096339D01*
X5643720Y-24115387D01*
X5643720Y-24163006D01*
X5634196Y-24182054D01*
X5624672Y-24191577D01*
X5605625Y-24201101D01*
X5558006Y-24201101D01*
X5538958Y-24191577D01*
X5529434Y-24182054D01*
X5767530Y-24001101D02*
X5786577Y-24001101D01*
X5805625Y-24010625D01*
X5815149Y-24020149D01*
X5824672Y-24039196D01*
X5834196Y-24077292D01*
X5834196Y-24124911D01*
X5824672Y-24163006D01*
X5815149Y-24182054D01*
X5805625Y-24191577D01*
X5786577Y-24201101D01*
X5767530Y-24201101D01*
X5748482Y-24191577D01*
X5738958Y-24182054D01*
X5729434Y-24163006D01*
X5719911Y-24124911D01*
X5719911Y-24077292D01*
X5729434Y-24039196D01*
X5738958Y-24020149D01*
X5748482Y-24010625D01*
X5767530Y-24001101D01*
X5958006Y-24001101D02*
X5977053Y-24001101D01*
X5996101Y-24010625D01*
X6005625Y-24020149D01*
X6015149Y-24039196D01*
X6024672Y-24077292D01*
X6024672Y-24124911D01*
X6015149Y-24163006D01*
X6005625Y-24182054D01*
X5996101Y-24191577D01*
X5977053Y-24201101D01*
X5958006Y-24201101D01*
X5938958Y-24191577D01*
X5929434Y-24182054D01*
X5919911Y-24163006D01*
X5910387Y-24124911D01*
X5910387Y-24077292D01*
X5919911Y-24039196D01*
X5929434Y-24020149D01*
X5938958Y-24010625D01*
X5958006Y-24001101D01*
X6110387Y-24201101D02*
X6110387Y-24067768D01*
X6110387Y-24086815D02*
X6119911Y-24077292D01*
X6138958Y-24067768D01*
X6167530Y-24067768D01*
X6186577Y-24077292D01*
X6196101Y-24096339D01*
X6196101Y-24201101D01*
X6196101Y-24096339D02*
X6205625Y-24077292D01*
X6224672Y-24067768D01*
X6253244Y-24067768D01*
X6272291Y-24077292D01*
X6281815Y-24096339D01*
X6281815Y-24201101D01*
X6377053Y-24201101D02*
X6377053Y-24067768D01*
X6377053Y-24086815D02*
X6386577Y-24077292D01*
X6405625Y-24067768D01*
X6434196Y-24067768D01*
X6453244Y-24077292D01*
X6462768Y-24096339D01*
X6462768Y-24201101D01*
X6462768Y-24096339D02*
X6472291Y-24077292D01*
X6491339Y-24067768D01*
X6519911Y-24067768D01*
X6538958Y-24077292D01*
X6548482Y-24096339D01*
X6548482Y-24201101D01*
X6938958Y-23991577D02*
X6767530Y-24248720D01*
X7196101Y-24001101D02*
X7215149Y-24001101D01*
X7234196Y-24010625D01*
X7243720Y-24020149D01*
X7253244Y-24039196D01*
X7262768Y-24077292D01*
X7262768Y-24124911D01*
X7253244Y-24163006D01*
X7243720Y-24182054D01*
X7234196Y-24191577D01*
X7215149Y-24201101D01*
X7196101Y-24201101D01*
X7177053Y-24191577D01*
X7167530Y-24182054D01*
X7158006Y-24163006D01*
X7148482Y-24124911D01*
X7148482Y-24077292D01*
X7158006Y-24039196D01*
X7167530Y-24020149D01*
X7177053Y-24010625D01*
X7196101Y-24001101D01*
X7348482Y-24182054D02*
X7358006Y-24191577D01*
X7348482Y-24201101D01*
X7338958Y-24191577D01*
X7348482Y-24182054D01*
X7348482Y-24201101D01*
X7481815Y-24001101D02*
X7500863Y-24001101D01*
X7519911Y-24010625D01*
X7529434Y-24020149D01*
X7538958Y-24039196D01*
X7548482Y-24077292D01*
X7548482Y-24124911D01*
X7538958Y-24163006D01*
X7529434Y-24182054D01*
X7519911Y-24191577D01*
X7500863Y-24201101D01*
X7481815Y-24201101D01*
X7462768Y-24191577D01*
X7453244Y-24182054D01*
X7443720Y-24163006D01*
X7434196Y-24124911D01*
X7434196Y-24077292D01*
X7443720Y-24039196D01*
X7453244Y-24020149D01*
X7462768Y-24010625D01*
X7481815Y-24001101D01*
X7729434Y-24001101D02*
X7634196Y-24001101D01*
X7624672Y-24096339D01*
X7634196Y-24086815D01*
X7653244Y-24077292D01*
X7700863Y-24077292D01*
X7719911Y-24086815D01*
X7729434Y-24096339D01*
X7738958Y-24115387D01*
X7738958Y-24163006D01*
X7729434Y-24182054D01*
X7719911Y-24191577D01*
X7700863Y-24201101D01*
X7653244Y-24201101D01*
X7634196Y-24191577D01*
X7624672Y-24182054D01*
X7834196Y-24201101D02*
X7872291Y-24201101D01*
X7891339Y-24191577D01*
X7900863Y-24182054D01*
X7919911Y-24153482D01*
X7929434Y-24115387D01*
X7929434Y-24039196D01*
X7919911Y-24020149D01*
X7910387Y-24010625D01*
X7891339Y-24001101D01*
X7853244Y-24001101D01*
X7834196Y-24010625D01*
X7824672Y-24020149D01*
X7815149Y-24039196D01*
X7815149Y-24086815D01*
X7824672Y-24105863D01*
X7834196Y-24115387D01*
X7853244Y-24124911D01*
X7891339Y-24124911D01*
X7910387Y-24115387D01*
X7919911Y-24105863D01*
X7929434Y-24086815D01*
X8119911Y-24201101D02*
X8005625Y-24201101D01*
X8062768Y-24201101D02*
X8062768Y-24001101D01*
X8043720Y-24029673D01*
X8024672Y-24048720D01*
X8005625Y-24058244D01*
X8196101Y-24001101D02*
X8196101Y-24039196D01*
X8272291Y-24001101D02*
X8272291Y-24039196D01*
X8567530Y-24277292D02*
X8558006Y-24267768D01*
X8538958Y-24239196D01*
X8529434Y-24220149D01*
X8519911Y-24191577D01*
X8510387Y-24143958D01*
X8510387Y-24105863D01*
X8519911Y-24058244D01*
X8529434Y-24029673D01*
X8538958Y-24010625D01*
X8558006Y-23982054D01*
X8567530Y-23972530D01*
X8681815Y-24001101D02*
X8700863Y-24001101D01*
X8719911Y-24010625D01*
X8729434Y-24020149D01*
X8738958Y-24039196D01*
X8748482Y-24077292D01*
X8748482Y-24124911D01*
X8738958Y-24163006D01*
X8729434Y-24182054D01*
X8719911Y-24191577D01*
X8700863Y-24201101D01*
X8681815Y-24201101D01*
X8662768Y-24191577D01*
X8653244Y-24182054D01*
X8643720Y-24163006D01*
X8634196Y-24124911D01*
X8634196Y-24077292D01*
X8643720Y-24039196D01*
X8653244Y-24020149D01*
X8662768Y-24010625D01*
X8681815Y-24001101D01*
X8986577Y-24201101D02*
X8986577Y-24001101D01*
X9072292Y-24201101D02*
X9072292Y-24096339D01*
X9062768Y-24077292D01*
X9043720Y-24067768D01*
X9015149Y-24067768D01*
X8996101Y-24077292D01*
X8986577Y-24086815D01*
X9196101Y-24201101D02*
X9177053Y-24191577D01*
X9167530Y-24182054D01*
X9158006Y-24163006D01*
X9158006Y-24105863D01*
X9167530Y-24086815D01*
X9177053Y-24077292D01*
X9196101Y-24067768D01*
X9224673Y-24067768D01*
X9243720Y-24077292D01*
X9253244Y-24086815D01*
X9262768Y-24105863D01*
X9262768Y-24163006D01*
X9253244Y-24182054D01*
X9243720Y-24191577D01*
X9224673Y-24201101D01*
X9196101Y-24201101D01*
X9377053Y-24201101D02*
X9358006Y-24191577D01*
X9348482Y-24172530D01*
X9348482Y-24001101D01*
X9529434Y-24191577D02*
X9510387Y-24201101D01*
X9472292Y-24201101D01*
X9453244Y-24191577D01*
X9443720Y-24172530D01*
X9443720Y-24096339D01*
X9453244Y-24077292D01*
X9472292Y-24067768D01*
X9510387Y-24067768D01*
X9529434Y-24077292D01*
X9538958Y-24096339D01*
X9538958Y-24115387D01*
X9443720Y-24134435D01*
X9615149Y-24191577D02*
X9634196Y-24201101D01*
X9672292Y-24201101D01*
X9691339Y-24191577D01*
X9700863Y-24172530D01*
X9700863Y-24163006D01*
X9691339Y-24143958D01*
X9672292Y-24134435D01*
X9643720Y-24134435D01*
X9624673Y-24124911D01*
X9615149Y-24105863D01*
X9615149Y-24096339D01*
X9624673Y-24077292D01*
X9643720Y-24067768D01*
X9672292Y-24067768D01*
X9691339Y-24077292D01*
X9938958Y-24124911D02*
X10091339Y-24124911D01*
X10015149Y-24201101D02*
X10015149Y-24048720D01*
X10329434Y-24020149D02*
X10338958Y-24010625D01*
X10358006Y-24001101D01*
X10405625Y-24001101D01*
X10424673Y-24010625D01*
X10434196Y-24020149D01*
X10443720Y-24039196D01*
X10443720Y-24058244D01*
X10434196Y-24086815D01*
X10319911Y-24201101D01*
X10443720Y-24201101D01*
X10672292Y-24191577D02*
X10691339Y-24201101D01*
X10729434Y-24201101D01*
X10748482Y-24191577D01*
X10758006Y-24172530D01*
X10758006Y-24163006D01*
X10748482Y-24143958D01*
X10729434Y-24134435D01*
X10700863Y-24134435D01*
X10681815Y-24124911D01*
X10672292Y-24105863D01*
X10672292Y-24096339D01*
X10681815Y-24077292D01*
X10700863Y-24067768D01*
X10729434Y-24067768D01*
X10748482Y-24077292D01*
X10872292Y-24201101D02*
X10853244Y-24191577D01*
X10843720Y-24172530D01*
X10843720Y-24001101D01*
X10977053Y-24201101D02*
X10958006Y-24191577D01*
X10948482Y-24182054D01*
X10938958Y-24163006D01*
X10938958Y-24105863D01*
X10948482Y-24086815D01*
X10958006Y-24077292D01*
X10977053Y-24067768D01*
X11005625Y-24067768D01*
X11024673Y-24077292D01*
X11034196Y-24086815D01*
X11043720Y-24105863D01*
X11043720Y-24163006D01*
X11034196Y-24182054D01*
X11024673Y-24191577D01*
X11005625Y-24201101D01*
X10977053Y-24201101D01*
X11100863Y-24067768D02*
X11177053Y-24067768D01*
X11129434Y-24001101D02*
X11129434Y-24172530D01*
X11138958Y-24191577D01*
X11158006Y-24201101D01*
X11177053Y-24201101D01*
X11234196Y-24191577D02*
X11253244Y-24201101D01*
X11291339Y-24201101D01*
X11310387Y-24191577D01*
X11319911Y-24172530D01*
X11319911Y-24163006D01*
X11310387Y-24143958D01*
X11291339Y-24134435D01*
X11262768Y-24134435D01*
X11243720Y-24124911D01*
X11234196Y-24105863D01*
X11234196Y-24096339D01*
X11243720Y-24077292D01*
X11262768Y-24067768D01*
X11291339Y-24067768D01*
X11310387Y-24077292D01*
X11386577Y-24277292D02*
X11396101Y-24267768D01*
X11415149Y-24239196D01*
X11424672Y-24220149D01*
X11434196Y-24191577D01*
X11443720Y-24143958D01*
X11443720Y-24105863D01*
X11434196Y-24058244D01*
X11424672Y-24029673D01*
X11415149Y-24010625D01*
X11396101Y-23982054D01*
X11386577Y-23972530D01*
M02*
